<?xml version="1.0" encoding="UTF-8"?><svg xmlns="http://www.w3.org/2000/svg" xmlns:xlink="http://www.w3.org/1999/xlink" fill-opacity="1" color-rendering="auto" color-interpolation="auto" text-rendering="auto" stroke="black" stroke-linecap="square" width="985" stroke-miterlimit="10" shape-rendering="auto" stroke-opacity="1" fill="black" stroke-dasharray="none" font-weight="normal" stroke-width="1" height="351" font-family="'Dialog'" font-style="normal" stroke-linejoin="miter" font-size="12px" stroke-dashoffset="0" image-rendering="auto">
  <!--Generated by ySVG 2.5-->
  <defs id="genericDefs"/>
  <g>
    <defs id="defs1">
      <clipPath clipPathUnits="userSpaceOnUse" id="clipPath1">
        <path d="M0 0 L985 0 L985 351 L0 351 L0 0 Z"/>
      </clipPath>
      <clipPath clipPathUnits="userSpaceOnUse" id="clipPath2">
        <path d="M228 453 L1213 453 L1213 804 L228 804 L228 453 Z"/>
      </clipPath>
      <clipPath clipPathUnits="userSpaceOnUse" id="clipPath3">
        <path d="M286.5452 -236.488 L286.5452 748.512 L-64.4548 748.512 L-64.4548 -236.488 L286.5452 -236.488 Z"/>
      </clipPath>
      <clipPath clipPathUnits="userSpaceOnUse" id="clipPath4">
        <path d="M124.3288 -236.488 L124.3288 748.512 L-226.6712 748.512 L-226.6712 -236.488 L124.3288 -236.488 Z"/>
      </clipPath>
      <clipPath clipPathUnits="userSpaceOnUse" id="clipPath5">
        <path d="M119.7693 -258.122 L119.7693 726.878 L-231.2307 726.878 L-231.2307 -258.122 L119.7693 -258.122 Z"/>
      </clipPath>
      <clipPath clipPathUnits="userSpaceOnUse" id="clipPath6">
        <path d="M134.1755 -15.1245 L134.1755 969.8755 L-216.8245 969.8755 L-216.8245 -15.1245 L134.1755 -15.1245 Z"/>
      </clipPath>
    </defs>
    <g fill="rgb(248,248,248)" text-rendering="geometricPrecision" shape-rendering="geometricPrecision" transform="matrix(1,0,0,1,-228,-453)" stroke="rgb(248,248,248)">
      <rect x="228.1245" y="453.169" clip-path="url(#clipPath2)" width="984.1317" rx="4" ry="4" height="350.4315" stroke="none"/>
    </g>
    <g font-size="15px" stroke-linecap="butt" transform="matrix(1,0,0,1,-228,-453)" text-rendering="geometricPrecision" font-family="'Carlito'" shape-rendering="geometricPrecision" stroke-miterlimit="1.45">
      <text x="493.7328" xml:space="preserve" y="472.419" clip-path="url(#clipPath2)" stroke="none">SAMA5D2 Xplained Board (SAMA5D2-XULT) eMMC (4 GB) Memory Layout</text>
      <text x="1101.4076" font-size="10px" y="798.1005" clip-path="url(#clipPath2)" fill="silver" stroke="none" xml:space="preserve">© 2022 Tano Systems LLC</text>
    </g>
    <g stroke-linecap="butt" transform="matrix(1,0,0,1,-228,-453)" fill="silver" text-rendering="geometricPrecision" shape-rendering="geometricPrecision" stroke="silver" stroke-miterlimit="1.45">
      <rect x="228.1245" y="453.169" clip-path="url(#clipPath2)" fill="none" width="984.1317" rx="4" ry="4" height="350.4315"/>
      <rect stroke-linecap="square" x="484.488" y="641.4703" clip-path="url(#clipPath2)" width="712.7682" rx="4" ry="4" height="119.1302" stroke="none" stroke-miterlimit="10"/>
      <rect x="484.488" y="641.4703" clip-path="url(#clipPath2)" fill="none" width="712.7682" rx="4" ry="4" height="119.1302" stroke-width="7"/>
    </g>
    <g text-rendering="geometricPrecision" stroke-miterlimit="1.45" shape-rendering="geometricPrecision" font-family="'Carlito'" transform="matrix(-0,-1,1,-0,236.488,286.5452)" stroke-linecap="butt">
      <text x="2" xml:space="preserve" y="11" clip-path="url(#clipPath3)" stroke="none">MBR Partitions</text>
    </g>
    <g transform="matrix(1,0,0,1,-228,-453)" fill-opacity="0.6275" fill="rgb(255,255,255)" text-rendering="geometricPrecision" shape-rendering="geometricPrecision" stroke="rgb(255,255,255)" stroke-opacity="0.6275">
      <rect x="903.172" y="641.4703" clip-path="url(#clipPath2)" width="294.0841" rx="4" ry="4" height="119.1302" stroke="none"/>
    </g>
    <g stroke-linecap="butt" transform="matrix(1,0,0,1,-228,-453)" fill="rgb(153,153,153)" text-rendering="geometricPrecision" shape-rendering="geometricPrecision" stroke="rgb(153,153,153)" stroke-miterlimit="1.45">
      <rect x="903.172" y="641.4703" clip-path="url(#clipPath2)" fill="none" width="294.0841" rx="4" ry="4" height="119.1302"/>
    </g>
    <g font-size="10px" stroke-linecap="butt" transform="matrix(1,0,0,1,-228,-453)" text-rendering="geometricPrecision" font-family="'Carlito'" shape-rendering="geometricPrecision" stroke-miterlimit="1.45">
      <text x="940.4036" xml:space="preserve" y="632.9703" clip-path="url(#clipPath2)" stroke="none">Extended Partition 4</text>
      <text x="1026.3689" xml:space="preserve" y="774.1005" clip-path="url(#clipPath2)" stroke="none">mmcblk1p4</text>
    </g>
    <g fill="silver" text-rendering="geometricPrecision" shape-rendering="geometricPrecision" transform="matrix(1,0,0,1,-228,-453)" stroke="silver">
      <rect x="484.488" y="534.2045" clip-path="url(#clipPath2)" width="712.7682" rx="4" ry="4" height="49.36" stroke="none"/>
      <rect stroke-linecap="butt" x="484.488" y="534.2045" clip-path="url(#clipPath2)" fill="none" width="712.7682" rx="4" ry="4" height="49.36" stroke-width="7" stroke-miterlimit="1.45"/>
    </g>
    <g text-rendering="geometricPrecision" stroke-miterlimit="1.45" shape-rendering="geometricPrecision" font-family="'Carlito'" transform="matrix(-0,-1,1,-0,236.488,124.3288)" stroke-linecap="butt">
      <text x="2" xml:space="preserve" y="11" clip-path="url(#clipPath4)" stroke="none">eMMC</text>
    </g>
    <g fill="rgb(158,255,0)" text-rendering="geometricPrecision" shape-rendering="geometricPrecision" transform="matrix(1,0,0,1,-228,-453)" stroke="rgb(158,255,0)">
      <rect x="525.224" y="534.2045" clip-path="url(#clipPath2)" width="65.68" rx="4" ry="4" height="49.36" stroke="none"/>
    </g>
    <g text-rendering="geometricPrecision" stroke-miterlimit="1.45" shape-rendering="geometricPrecision" transform="matrix(1,0,0,1,-228,-453)" stroke-linecap="butt">
      <rect x="525.224" y="534.2045" clip-path="url(#clipPath2)" fill="none" width="65.68" rx="4" ry="4" height="49.36"/>
      <text x="543.025" font-size="10px" y="551.3845" clip-path="url(#clipPath2)" font-family="'Carlito'" stroke="none" xml:space="preserve">Startup</text>
      <text x="546.46" font-size="10px" y="561.3845" clip-path="url(#clipPath2)" font-family="'Carlito'" stroke="none" xml:space="preserve">Script</text>
      <text x="539.834" font-size="10px" y="571.3845" clip-path="url(#clipPath2)" font-family="'Carlito'" stroke="none" xml:space="preserve">(256 KiB)</text>
      <text x="548.0079" font-size="10px" y="597.0645" clip-path="url(#clipPath2)" font-family="'Carlito'" stroke="none" xml:space="preserve">RAW</text>
    </g>
    <g fill="rgb(158,255,0)" text-rendering="geometricPrecision" shape-rendering="geometricPrecision" transform="matrix(1,0,0,1,-228,-453)" stroke="rgb(158,255,0)">
      <rect x="590.904" y="534.2045" clip-path="url(#clipPath2)" width="65.68" rx="4" ry="4" height="49.36" stroke="none"/>
    </g>
    <g text-rendering="geometricPrecision" stroke-miterlimit="1.45" shape-rendering="geometricPrecision" transform="matrix(1,0,0,1,-228,-453)" stroke-linecap="butt">
      <rect x="590.904" y="534.2045" clip-path="url(#clipPath2)" fill="none" width="65.68" rx="4" ry="4" height="49.36"/>
      <text x="609.3373" font-size="10px" y="551.3845" clip-path="url(#clipPath2)" font-family="'Carlito'" stroke="none" xml:space="preserve">U-Boot</text>
      <text x="597.4794" font-size="10px" y="561.3845" clip-path="url(#clipPath2)" font-family="'Carlito'" stroke="none" xml:space="preserve">Environment</text>
      <text x="598.5536" font-size="10px" y="571.3845" clip-path="url(#clipPath2)" font-family="'Carlito'" stroke="none" xml:space="preserve">(2 x 128 KiB)</text>
      <text x="613.6879" font-size="10px" y="597.0645" clip-path="url(#clipPath2)" font-family="'Carlito'" stroke="none" xml:space="preserve">RAW</text>
    </g>
    <g fill="rgb(153,204,255)" text-rendering="geometricPrecision" shape-rendering="geometricPrecision" transform="matrix(1,0,0,1,-228,-453)" stroke="rgb(153,204,255)">
      <rect x="636.3716" width="57.4824" height="22" y="491.169" clip-path="url(#clipPath2)" stroke="none"/>
    </g>
    <g font-size="9px" stroke-linecap="butt" transform="matrix(1,0,0,1,-228,-453)" text-rendering="geometricPrecision" font-family="'Consolas'" shape-rendering="geometricPrecision" stroke-miterlimit="1.45">
      <text x="640.3716" xml:space="preserve" y="499.8531" clip-path="url(#clipPath2)" stroke="none">0x00100000</text>
      <text x="650.2681" xml:space="preserve" y="508.8531" clip-path="url(#clipPath2)" stroke="none">+1 MiB</text>
    </g>
    <g fill="rgb(153,204,255)" text-rendering="geometricPrecision" shape-rendering="geometricPrecision" transform="matrix(1,0,0,1,-228,-453)" stroke="rgb(153,204,255)">
      <rect x="496.4828" width="57.4824" height="22" y="491.169" clip-path="url(#clipPath2)" stroke="none"/>
    </g>
    <g font-size="9px" stroke-linecap="butt" transform="matrix(1,0,0,1,-228,-453)" text-rendering="geometricPrecision" font-family="'Consolas'" shape-rendering="geometricPrecision" stroke-miterlimit="1.45">
      <text x="500.4828" xml:space="preserve" y="499.8531" clip-path="url(#clipPath2)" stroke="none">0x00040000</text>
      <text x="505.431" xml:space="preserve" y="508.8531" clip-path="url(#clipPath2)" stroke="none">+256 KiB</text>
    </g>
    <g fill="rgb(153,204,255)" text-rendering="geometricPrecision" shape-rendering="geometricPrecision" transform="matrix(1,0,0,1,-228,-453)" stroke="rgb(153,204,255)">
      <rect x="562.1771" width="57.4824" height="22" y="491.169" clip-path="url(#clipPath2)" stroke="none"/>
    </g>
    <g font-size="9px" stroke-linecap="butt" transform="matrix(1,0,0,1,-228,-453)" text-rendering="geometricPrecision" font-family="'Consolas'" shape-rendering="geometricPrecision" stroke-miterlimit="1.45">
      <text x="566.1771" xml:space="preserve" y="499.8531" clip-path="url(#clipPath2)" stroke="none">0x00080000</text>
      <text x="571.1253" xml:space="preserve" y="508.8531" clip-path="url(#clipPath2)" stroke="none">+512 KiB</text>
    </g>
    <g fill="rgb(0,204,255)" text-rendering="geometricPrecision" shape-rendering="geometricPrecision" transform="matrix(1,0,0,1,-228,-453)" stroke="rgb(0,204,255)">
      <rect x="484.488" y="534.2045" clip-path="url(#clipPath2)" width="23.268" rx="4" ry="4" height="49.36" stroke="none"/>
    </g>
    <g text-rendering="geometricPrecision" stroke-miterlimit="1.45" shape-rendering="geometricPrecision" transform="matrix(1,0,0,1,-228,-453)" stroke-linecap="butt">
      <rect x="484.488" y="534.2045" clip-path="url(#clipPath2)" fill="none" width="23.268" rx="4" ry="4" height="49.36"/>
    </g>
    <g font-size="8px" stroke-linecap="butt" transform="matrix(-0,-1,1,-0,258.122,119.7693)" text-rendering="geometricPrecision" font-family="'Carlito'" shape-rendering="geometricPrecision" stroke-miterlimit="1.45">
      <text x="6.1172" xml:space="preserve" y="8" clip-path="url(#clipPath5)" stroke="none">MBR</text>
      <text x="2" xml:space="preserve" y="16" clip-path="url(#clipPath5)" stroke="none">Header</text>
    </g>
    <g fill="rgb(255,153,153)" text-rendering="geometricPrecision" shape-rendering="geometricPrecision" transform="matrix(1,0,0,1,-228,-453)" stroke="rgb(255,153,153)">
      <rect x="665.149" y="641.4703" clip-path="url(#clipPath2)" width="93.6959" rx="4" ry="4" height="119.1302" stroke="none"/>
    </g>
    <g text-rendering="geometricPrecision" stroke-miterlimit="1.45" shape-rendering="geometricPrecision" transform="matrix(1,0,0,1,-228,-453)" stroke-linecap="butt">
      <rect x="665.149" y="641.4703" clip-path="url(#clipPath2)" fill="none" width="93.6959" rx="4" ry="4" height="119.1302"/>
      <text x="677.5462" font-size="10px" y="693.5354" clip-path="url(#clipPath2)" font-family="'Carlito'" stroke="none" xml:space="preserve">FAT Filesystem:</text>
      <text x="677.5462" font-size="10px" y="703.5354" clip-path="url(#clipPath2)" font-family="'Carlito'" stroke="none" xml:space="preserve">• u-boot.bin</text>
      <text x="677.5462" font-size="10px" y="713.5354" clip-path="url(#clipPath2)" font-family="'Carlito'" stroke="none" xml:space="preserve">   (U-Boot Image)</text>
      <text x="696.1277" font-size="10px" y="612.9703" clip-path="url(#clipPath2)" font-family="'Carlito'" stroke="none" xml:space="preserve">Primary</text>
      <text x="690.7029" font-size="10px" y="622.9703" clip-path="url(#clipPath2)" font-family="'Carlito'" stroke="none" xml:space="preserve">Partition 1</text>
      <text x="699.3895" font-size="10px" y="632.9703" clip-path="url(#clipPath2)" font-family="'Carlito'" stroke="none" xml:space="preserve">(boot)</text>
      <text x="688.1517" font-size="10px" y="774.1005" clip-path="url(#clipPath2)" font-family="'Carlito'" stroke="none" xml:space="preserve">mmcblk1p1</text>
      <text x="704.1429" font-size="10px" y="784.1005" clip-path="url(#clipPath2)" font-family="'Carlito'" stroke="none" xml:space="preserve">vfat</text>
    </g>
    <g fill="rgb(255,214,214)" text-rendering="geometricPrecision" shape-rendering="geometricPrecision" transform="matrix(1,0,0,1,-228,-453)" stroke="rgb(255,214,214)">
      <rect x="665.149" y="534.2045" clip-path="url(#clipPath2)" width="93.6959" rx="4" ry="4" height="49.36" stroke="none"/>
    </g>
    <g text-rendering="geometricPrecision" stroke-miterlimit="1.45" shape-rendering="geometricPrecision" transform="matrix(1,0,0,1,-228,-453)" stroke-linecap="butt">
      <rect x="665.149" y="534.2045" clip-path="url(#clipPath2)" fill="none" width="93.6959" rx="4" ry="4" height="49.36"/>
      <text x="683.5692" font-size="10px" y="561.3845" clip-path="url(#clipPath2)" font-family="'Carlito'" stroke="none" xml:space="preserve">Boot Partition</text>
    </g>
    <g fill="rgb(255,255,153)" text-rendering="geometricPrecision" shape-rendering="geometricPrecision" transform="matrix(1,0,0,1,-228,-453)" stroke="rgb(255,255,153)">
      <rect x="758.8448" y="641.4703" clip-path="url(#clipPath2)" width="65.68" rx="4" ry="4" height="119.1302" stroke="none"/>
    </g>
    <g text-rendering="geometricPrecision" stroke-miterlimit="1.45" shape-rendering="geometricPrecision" transform="matrix(1,0,0,1,-228,-453)" stroke-linecap="butt">
      <rect x="758.8448" y="641.4703" clip-path="url(#clipPath2)" fill="none" width="65.68" rx="4" ry="4" height="119.1302"/>
      <text x="772.0706" font-size="10px" y="688.5354" clip-path="url(#clipPath2)" font-family="'Carlito'" stroke="none" xml:space="preserve">FIT Image</text>
      <text x="778.594" font-size="10px" y="698.5354" clip-path="url(#clipPath2)" font-family="'Carlito'" stroke="none" xml:space="preserve">Kernel</text>
      <text x="767.1584" font-size="10px" y="708.5354" clip-path="url(#clipPath2)" font-family="'Carlito'" stroke="none" xml:space="preserve">DTB + DTBO</text>
      <text x="774.3118" font-size="10px" y="718.5354" clip-path="url(#clipPath2)" font-family="'Carlito'" stroke="none" xml:space="preserve">(64 MiB)</text>
      <text x="775.8157" font-size="10px" y="612.9703" clip-path="url(#clipPath2)" font-family="'Carlito'" stroke="none" xml:space="preserve">Primary</text>
      <text x="770.3909" font-size="10px" y="622.9703" clip-path="url(#clipPath2)" font-family="'Carlito'" stroke="none" xml:space="preserve">Partition 2</text>
      <text x="771.0012" font-size="10px" y="632.9703" clip-path="url(#clipPath2)" font-family="'Carlito'" stroke="none" xml:space="preserve">(kernel_a)</text>
      <text x="767.8396" font-size="10px" y="774.1005" clip-path="url(#clipPath2)" font-family="'Carlito'" stroke="none" xml:space="preserve">mmcblk1p2</text>
      <text x="782.8225" font-size="10px" y="784.1005" clip-path="url(#clipPath2)" font-family="'Carlito'" stroke="none" xml:space="preserve">ext4</text>
    </g>
    <g fill="rgb(153,204,255)" text-rendering="geometricPrecision" shape-rendering="geometricPrecision" transform="matrix(1,0,0,1,-228,-453)" stroke="rgb(153,204,255)">
      <rect x="911.918" y="681.6623" clip-path="url(#clipPath2)" width="65.68" rx="4" ry="4" height="49.36" stroke="none"/>
    </g>
    <g text-rendering="geometricPrecision" stroke-miterlimit="1.45" shape-rendering="geometricPrecision" transform="matrix(1,0,0,1,-228,-453)" stroke-linecap="butt">
      <rect x="911.918" y="681.6623" clip-path="url(#clipPath2)" fill="none" width="65.68" rx="4" ry="4" height="49.36"/>
      <text x="925.1438" font-size="10px" y="693.8423" clip-path="url(#clipPath2)" font-family="'Carlito'" stroke="none" xml:space="preserve">FIT Image</text>
      <text x="931.6672" font-size="10px" y="703.8423" clip-path="url(#clipPath2)" font-family="'Carlito'" stroke="none" xml:space="preserve">Kernel</text>
      <text x="920.2317" font-size="10px" y="713.8423" clip-path="url(#clipPath2)" font-family="'Carlito'" stroke="none" xml:space="preserve">DTB + DTBO</text>
      <text x="927.385" font-size="10px" y="723.8423" clip-path="url(#clipPath2)" font-family="'Carlito'" stroke="none" xml:space="preserve">(64 MiB)</text>
    </g>
    <g stroke-linecap="butt" font-size="9px" transform="matrix(1,0,0,1,-228,-453)" fill="rgb(80,80,80)" text-rendering="geometricPrecision" font-family="'Carlito'" shape-rendering="geometricPrecision" stroke="rgb(80,80,80)" stroke-miterlimit="1.45">
      <text x="932.2512" xml:space="preserve" y="657.4123" clip-path="url(#clipPath2)" stroke="none">Logical</text>
      <text x="925.5935" xml:space="preserve" y="666.4123" clip-path="url(#clipPath2)" stroke="none">Partition 5</text>
      <text x="925.9341" xml:space="preserve" y="675.4123" clip-path="url(#clipPath2)" stroke="none">(kernel_b)</text>
      <text x="923.2974" xml:space="preserve" y="741.7723" clip-path="url(#clipPath2)" stroke="none">mmcblk1p5</text>
      <text x="936.782" xml:space="preserve" y="750.7723" clip-path="url(#clipPath2)" stroke="none">ext4</text>
    </g>
    <g fill="rgb(255,255,153)" text-rendering="geometricPrecision" shape-rendering="geometricPrecision" transform="matrix(1,0,0,1,-228,-453)" stroke="rgb(255,255,153)">
      <rect x="824.5248" y="641.4703" clip-path="url(#clipPath2)" width="78.6472" rx="4" ry="4" height="119.1302" stroke="none"/>
    </g>
    <g text-rendering="geometricPrecision" stroke-miterlimit="1.45" shape-rendering="geometricPrecision" transform="matrix(1,0,0,1,-228,-453)" stroke-linecap="butt">
      <rect x="824.5248" y="641.4703" clip-path="url(#clipPath2)" fill="none" width="78.6472" rx="4" ry="4" height="119.1302"/>
      <text x="842.7449" font-size="10px" y="693.5354" clip-path="url(#clipPath2)" font-family="'Carlito'" stroke="none" xml:space="preserve">Read-Only</text>
      <text x="830.1717" font-size="10px" y="703.5354" clip-path="url(#clipPath2)" font-family="'Carlito'" stroke="none" xml:space="preserve">Root File System</text>
      <text x="843.9412" font-size="10px" y="713.5354" clip-path="url(#clipPath2)" font-family="'Carlito'" stroke="none" xml:space="preserve">(384 MiB)</text>
      <text x="847.9793" font-size="10px" y="612.9703" clip-path="url(#clipPath2)" font-family="'Carlito'" stroke="none" xml:space="preserve">Primary</text>
      <text x="842.5545" font-size="10px" y="622.9703" clip-path="url(#clipPath2)" font-family="'Carlito'" stroke="none" xml:space="preserve">Partition 3</text>
      <text x="843.7581" font-size="10px" y="632.9703" clip-path="url(#clipPath2)" font-family="'Carlito'" stroke="none" xml:space="preserve">(rootfs_a)</text>
      <text x="840.0032" font-size="10px" y="774.1005" clip-path="url(#clipPath2)" font-family="'Carlito'" stroke="none" xml:space="preserve">mmcblk1p3</text>
      <text x="846.18" font-size="10px" y="784.1005" clip-path="url(#clipPath2)" font-family="'Carlito'" stroke="none" xml:space="preserve">squashfs</text>
    </g>
    <g fill="rgb(153,204,255)" text-rendering="geometricPrecision" shape-rendering="geometricPrecision" transform="matrix(1,0,0,1,-228,-453)" stroke="rgb(153,204,255)">
      <rect x="977.598" y="681.6623" clip-path="url(#clipPath2)" width="78.6472" rx="4" ry="4" height="49.36" stroke="none"/>
    </g>
    <g text-rendering="geometricPrecision" stroke-miterlimit="1.45" shape-rendering="geometricPrecision" transform="matrix(1,0,0,1,-228,-453)" stroke-linecap="butt">
      <rect x="977.598" y="681.6623" clip-path="url(#clipPath2)" fill="none" width="78.6472" rx="4" ry="4" height="49.36"/>
      <text x="995.8181" font-size="10px" y="698.8423" clip-path="url(#clipPath2)" font-family="'Carlito'" stroke="none" xml:space="preserve">Read-Only</text>
      <text x="983.2449" font-size="10px" y="708.8423" clip-path="url(#clipPath2)" font-family="'Carlito'" stroke="none" xml:space="preserve">Root File System</text>
      <text x="997.0144" font-size="10px" y="718.8423" clip-path="url(#clipPath2)" font-family="'Carlito'" stroke="none" xml:space="preserve">(384 MiB)</text>
    </g>
    <g stroke-linecap="butt" font-size="9px" transform="matrix(1,0,0,1,-228,-453)" fill="rgb(80,80,80)" text-rendering="geometricPrecision" font-family="'Carlito'" shape-rendering="geometricPrecision" stroke="rgb(80,80,80)" stroke-miterlimit="1.45">
      <text x="1004.4148" xml:space="preserve" y="657.4123" clip-path="url(#clipPath2)" stroke="none">Logical</text>
      <text x="997.7571" xml:space="preserve" y="666.4123" clip-path="url(#clipPath2)" stroke="none">Partition 6</text>
      <text x="998.6316" xml:space="preserve" y="675.4123" clip-path="url(#clipPath2)" stroke="none">(rootfs_b)</text>
      <text x="995.4609" xml:space="preserve" y="741.7723" clip-path="url(#clipPath2)" stroke="none">mmcblk1p6</text>
      <text x="1001.02" xml:space="preserve" y="750.7723" clip-path="url(#clipPath2)" stroke="none">squashfs</text>
    </g>
    <g fill="rgb(255,255,229)" text-rendering="geometricPrecision" shape-rendering="geometricPrecision" transform="matrix(1,0,0,1,-228,-453)" stroke="rgb(255,255,229)">
      <rect x="758.8448" y="534.2045" clip-path="url(#clipPath2)" width="144.3272" rx="4" ry="4" height="49.36" stroke="none"/>
    </g>
    <g text-rendering="geometricPrecision" stroke-miterlimit="1.45" shape-rendering="geometricPrecision" transform="matrix(1,0,0,1,-228,-453)" stroke-linecap="butt">
      <rect x="758.8448" y="534.2045" clip-path="url(#clipPath2)" fill="none" width="144.3272" rx="4" ry="4" height="49.36"/>
      <text x="812.3121" font-size="10px" y="551.3845" clip-path="url(#clipPath2)" font-family="'Carlito'" stroke="none" xml:space="preserve">System A</text>
      <text x="774.3312" font-size="10px" y="561.3845" clip-path="url(#clipPath2)" font-family="'Carlito'" stroke="none" xml:space="preserve">Kernel and Root File System</text>
      <text x="811.1012" font-size="10px" y="571.3845" clip-path="url(#clipPath2)" font-family="'Carlito'" stroke="none" xml:space="preserve">(448 MiB)</text>
    </g>
    <g fill="rgb(229,242,255)" text-rendering="geometricPrecision" shape-rendering="geometricPrecision" transform="matrix(1,0,0,1,-228,-453)" stroke="rgb(229,242,255)">
      <rect x="911.918" y="534.2045" clip-path="url(#clipPath2)" width="144.3272" rx="4" ry="4" height="49.36" stroke="none"/>
    </g>
    <g text-rendering="geometricPrecision" stroke-miterlimit="1.45" shape-rendering="geometricPrecision" transform="matrix(1,0,0,1,-228,-453)" stroke-linecap="butt">
      <rect x="911.918" y="534.2045" clip-path="url(#clipPath2)" fill="none" width="144.3272" rx="4" ry="4" height="49.36"/>
      <text x="965.5587" font-size="10px" y="551.3845" clip-path="url(#clipPath2)" font-family="'Carlito'" stroke="none" xml:space="preserve">System B</text>
      <text x="927.4044" font-size="10px" y="561.3845" clip-path="url(#clipPath2)" font-family="'Carlito'" stroke="none" xml:space="preserve">Kernel and Root File System</text>
      <text x="964.1744" font-size="10px" y="571.3845" clip-path="url(#clipPath2)" font-family="'Carlito'" stroke="none" xml:space="preserve">(448 MiB)</text>
    </g>
    <g fill="rgb(242,229,255)" text-rendering="geometricPrecision" shape-rendering="geometricPrecision" transform="matrix(1,0,0,1,-228,-453)" stroke="rgb(242,229,255)">
      <rect x="1056.2452" y="534.2045" clip-path="url(#clipPath2)" width="132.1636" rx="4" ry="4" height="49.36" stroke="none"/>
    </g>
    <g text-rendering="geometricPrecision" stroke-miterlimit="1.45" shape-rendering="geometricPrecision" transform="matrix(1,0,0,1,-228,-453)" stroke-linecap="butt">
      <rect x="1056.2452" y="534.2045" clip-path="url(#clipPath2)" fill="none" width="132.1636" rx="4" ry="4" height="49.36"/>
      <text x="1102.2611" font-size="10px" y="556.3845" clip-path="url(#clipPath2)" font-family="'Carlito'" stroke="none" xml:space="preserve">User Data</text>
      <text x="1073.389" font-size="10px" y="566.3845" clip-path="url(#clipPath2)" font-family="'Carlito'" stroke="none" xml:space="preserve">(all available free space)</text>
    </g>
    <g fill="rgb(204,153,255)" text-rendering="geometricPrecision" shape-rendering="geometricPrecision" transform="matrix(1,0,0,1,-228,-453)" stroke="rgb(204,153,255)">
      <rect x="1056.2452" y="681.6623" clip-path="url(#clipPath2)" width="132.1636" rx="4" ry="4" height="49.36" stroke="none"/>
    </g>
    <g text-rendering="geometricPrecision" stroke-miterlimit="1.45" shape-rendering="geometricPrecision" transform="matrix(1,0,0,1,-228,-453)" stroke-linecap="butt">
      <rect x="1056.2452" y="681.6623" clip-path="url(#clipPath2)" fill="none" width="132.1636" rx="4" ry="4" height="49.36"/>
      <text x="1102.2611" font-size="10px" y="698.8423" clip-path="url(#clipPath2)" font-family="'Carlito'" stroke="none" xml:space="preserve">User Data</text>
      <text x="1082.7079" font-size="10px" y="708.8423" clip-path="url(#clipPath2)" font-family="'Carlito'" stroke="none" xml:space="preserve">Overlay File System</text>
      <text x="1073.389" font-size="10px" y="718.8423" clip-path="url(#clipPath2)" font-family="'Carlito'" stroke="none" xml:space="preserve">(all available free space)</text>
    </g>
    <g stroke-linecap="butt" font-size="9px" transform="matrix(1,0,0,1,-228,-453)" fill="rgb(80,80,80)" text-rendering="geometricPrecision" font-family="'Carlito'" shape-rendering="geometricPrecision" stroke="rgb(80,80,80)" stroke-miterlimit="1.45">
      <text x="1109.8202" xml:space="preserve" y="657.4123" clip-path="url(#clipPath2)" stroke="none">Logical</text>
      <text x="1103.1625" xml:space="preserve" y="666.4123" clip-path="url(#clipPath2)" stroke="none">Partition 7</text>
      <text x="1098.2186" xml:space="preserve" y="675.4123" clip-path="url(#clipPath2)" stroke="none">(rootfs_data)</text>
      <text x="1100.8663" xml:space="preserve" y="741.7723" clip-path="url(#clipPath2)" stroke="none">mmcblk1p7</text>
      <text x="1114.351" xml:space="preserve" y="750.7723" clip-path="url(#clipPath2)" stroke="none">ext4</text>
    </g>
    <g fill="silver" text-rendering="geometricPrecision" shape-rendering="geometricPrecision" transform="matrix(1,0,0,1,-228,-453)" stroke="silver">
      <rect x="263.1245" y="534.2045" clip-path="url(#clipPath2)" width="182.8192" rx="4" ry="4" height="49.36" stroke="none"/>
      <rect stroke-linecap="butt" x="263.1245" y="534.2045" clip-path="url(#clipPath2)" fill="none" width="182.8192" rx="4" ry="4" height="49.36" stroke-width="7" stroke-miterlimit="1.45"/>
    </g>
    <g text-rendering="geometricPrecision" stroke-miterlimit="1.45" shape-rendering="geometricPrecision" font-family="'Carlito'" transform="matrix(-0,-1,1,-0,15.1245,134.1755)" stroke-linecap="butt">
      <text x="2" xml:space="preserve" y="11" clip-path="url(#clipPath6)" stroke="none">MTD Layer</text>
    </g>
    <g text-rendering="geometricPrecision" stroke-miterlimit="1.45" shape-rendering="geometricPrecision" font-family="'Carlito'" transform="matrix(1,0,0,1,-228,-453)" stroke-linecap="butt">
      <text x="289.1522" xml:space="preserve" y="523.2045" clip-path="url(#clipPath2)" stroke="none">Serial SPI EEPROM (4 MiB) </text>
    </g>
    <g fill="rgb(255,153,153)" text-rendering="geometricPrecision" shape-rendering="geometricPrecision" transform="matrix(1,0,0,1,-228,-453)" stroke="rgb(255,153,153)">
      <rect x="263.1245" y="534.2045" clip-path="url(#clipPath2)" width="76.2579" rx="4" ry="4" height="49.36" stroke="none"/>
    </g>
    <g text-rendering="geometricPrecision" stroke-miterlimit="1.45" shape-rendering="geometricPrecision" transform="matrix(1,0,0,1,-228,-453)" stroke-linecap="butt">
      <rect x="263.1245" y="534.2045" clip-path="url(#clipPath2)" fill="none" width="76.2579" rx="4" ry="4" height="49.36"/>
      <text x="284.0146" font-size="10px" y="551.3845" clip-path="url(#clipPath2)" font-family="'Carlito'" stroke="none" xml:space="preserve">boot.bin</text>
      <text x="267.7598" font-size="10px" y="561.3845" clip-path="url(#clipPath2)" font-family="'Carlito'" stroke="none" xml:space="preserve">(AT91Bootstrap)</text>
      <text x="285.5576" font-size="10px" y="571.3845" clip-path="url(#clipPath2)" font-family="'Carlito'" stroke="none" xml:space="preserve">(64 KiB)</text>
      <text x="291.1973" font-size="10px" y="597.0645" clip-path="url(#clipPath2)" font-family="'Carlito'" stroke="none" xml:space="preserve">RAW</text>
    </g>
    <g transform="matrix(1,0,0,1,-228,-453)" fill-opacity="0.498" fill="rgb(255,255,255)" text-rendering="geometricPrecision" shape-rendering="geometricPrecision" stroke="rgb(255,255,255)" stroke-opacity="0.498">
      <rect x="339.3824" y="534.2045" clip-path="url(#clipPath2)" width="106.5613" rx="4" ry="4" height="49.36" stroke="none"/>
    </g>
    <g text-rendering="geometricPrecision" stroke-miterlimit="1.45" stroke-dasharray="6,2" shape-rendering="geometricPrecision" transform="matrix(1,0,0,1,-228,-453)" stroke-linecap="butt">
      <rect x="339.3824" y="534.2045" clip-path="url(#clipPath2)" fill="none" width="106.5613" rx="4" ry="4" height="49.36"/>
      <text x="370.5952" font-size="10px" y="556.3845" clip-path="url(#clipPath2)" font-family="'Carlito'" stroke-dasharray="none" stroke="none" xml:space="preserve">Free Space</text>
      <text x="371.8989" font-size="10px" y="566.3845" clip-path="url(#clipPath2)" font-family="'Carlito'" stroke-dasharray="none" stroke="none" xml:space="preserve">(4032 KiB)</text>
      <path fill="none" stroke-dasharray="none" d="M525.2496 537.7741 L525.2279 513.169" clip-path="url(#clipPath2)"/>
      <path fill="none" stroke-dasharray="none" d="M590.9183 537.8721 L590.9183 513.169" clip-path="url(#clipPath2)"/>
      <path fill="none" stroke-dasharray="none" d="M665.125 558.8845 L665.1139 513.169" clip-path="url(#clipPath2)"/>
      <path fill="none" d="M665.1695 579.9503 L665.1695 645.075" clip-path="url(#clipPath2)"/>
      <path fill="none" d="M758.8345 558.8845 L758.8436 701.0354" clip-path="url(#clipPath2)"/>
      <path fill="none" d="M903.1824 558.8845 L903.2014 701.0354" clip-path="url(#clipPath2)"/>
      <path fill="none" d="M911.9077 558.8845 L911.9168 706.3423" clip-path="url(#clipPath2)"/>
      <path fill="none" d="M1188.3906 579.9448 L1188.3906 685.2657" clip-path="url(#clipPath2)"/>
      <path fill="none" d="M1056.2384 558.8845 L1056.2384 706.3423" clip-path="url(#clipPath2)"/>
    </g>
  </g>
</svg>
