<?xml version="1.0" encoding="UTF-8" standalone="no"?>
<!-- Created with Inkscape (http://www.inkscape.org/) -->

<svg
   xmlns:dc="http://purl.org/dc/elements/1.1/"
   xmlns:cc="http://creativecommons.org/ns#"
   xmlns:rdf="http://www.w3.org/1999/02/22-rdf-syntax-ns#"
   xmlns:svg="http://www.w3.org/2000/svg"
   xmlns="http://www.w3.org/2000/svg"
   xmlns:sodipodi="http://sodipodi.sourceforge.net/DTD/sodipodi-0.dtd"
   xmlns:inkscape="http://www.inkscape.org/namespaces/inkscape"
   width="339.11465"
   height="79.866959"
   viewBox="0 0 89.724082 21.131465"
   version="1.1"
   id="svg257"
   inkscape:version="0.92.0 r15299"
   sodipodi:docname="microchip.svg">
  <defs
     id="defs251">
    <clipPath
       id="clipPath44"
       clipPathUnits="userSpaceOnUse">
      <path
         inkscape:connector-curvature="0"
         id="path42"
         d="m 39.992,40.364 h 252.88 V 99.2 H 39.992 Z" />
    </clipPath>
  </defs>
  <sodipodi:namedview
     id="base"
     pagecolor="#ffffff"
     bordercolor="#666666"
     borderopacity="1.0"
     inkscape:pageopacity="0.0"
     inkscape:pageshadow="2"
     inkscape:zoom="2.3790126"
     inkscape:cx="168.55733"
     inkscape:cy="38.933477"
     inkscape:document-units="mm"
     inkscape:current-layer="layer1"
     showgrid="false"
     fit-margin-top="0"
     fit-margin-left="0"
     fit-margin-right="0"
     fit-margin-bottom="0"
     units="px"
     inkscape:window-width="1280"
     inkscape:window-height="744"
     inkscape:window-x="-4"
     inkscape:window-y="-4"
     inkscape:window-maximized="1" />
  <metadata
     id="metadata254">
    <rdf:RDF>
      <cc:Work
         rdf:about="">
        <dc:format>image/svg+xml</dc:format>
        <dc:type
           rdf:resource="http://purl.org/dc/dcmitype/StillImage" />
        <dc:title></dc:title>
      </cc:Work>
    </rdf:RDF>
  </metadata>
  <g
     inkscape:label="Layer 1"
     inkscape:groupmode="layer"
     id="layer1"
     transform="translate(-24.95016,-170.50898)">
    <g
       id="g38"
       transform="matrix(0.35277777,0,0,-0.35277777,11.090931,205.6667)">
      <g
         id="g40"
         clip-path="url(#clipPath44)">
        <g
           id="g46"
           transform="translate(136.4103,59.3614)">
          <path
             d="M 0,0 -1.481,18.551 H -1.542 L -7.262,3.739 c -0.53,-1.38 -1.701,-2.511 -3.342,-2.511 -1.639,0 -2.938,1.364 -3.341,2.511 l -5.594,14.626 h -0.06 L -21.207,0 l -5.457,0.004 2.787,26.15 c 0.183,1.444 1.367,3.088 2.977,3.088 2.468,0 3.456,-1.444 3.948,-2.888 l 6.318,-15.878 h 0.061 l 6.317,15.878 c 0.556,1.444 1.513,2.888 3.95,2.888 1.61,0 2.794,-1.644 2.976,-3.425 L 5.432,0.004 Z"
             style="fill:#231f20;fill-opacity:1;fill-rule:nonzero;stroke:none"
             id="path48"
             inkscape:connector-curvature="0" />
        </g>
        <path
           d="m 144.729,81.479 h 5.086 V 59.364 h -5.086 z"
           style="fill:#231f20;fill-opacity:1;fill-rule:nonzero;stroke:none"
           id="path50"
           inkscape:connector-curvature="0" />
        <path
           d="m 265.03,81.479 h 5.086 V 59.364 h -5.086 z"
           style="fill:#231f20;fill-opacity:1;fill-rule:nonzero;stroke:none"
           id="path52"
           inkscape:connector-curvature="0" />
        <g
           id="g54"
           transform="translate(152.631,73.7207)">
          <path
             d="m 0,0 c 0,6.476 2.479,8.003 6.644,8.003 h 5.435 c 6.581,0 7.436,0.428 7.393,-5.834 L 7.553,2.189 C 5.116,2.189 4.749,0.642 4.749,-2.108 V -4.49 c 0,-3.207 0.458,-4.429 2.645,-4.429 l 12.265,0.01 c 0,-3.726 -0.049,-5.692 -4.692,-5.692 H 6.644 C 2.479,-14.601 0,-13.073 0,-6.597 Z"
             style="fill:#231f20;fill-opacity:1;fill-rule:nonzero;stroke:none"
             id="path56"
             inkscape:connector-curvature="0" />
        </g>
        <g
           id="g58"
           transform="translate(194.3738,73.507)">
          <path
             d="m 0,0 v 1.405 c 0,3.971 -0.957,6.568 -4.518,6.568 h -14.779 v -22.115 h 4.624 v 5.743 h 8.093 c 1.437,0 1.894,-0.765 1.894,-3.086 v -2.657 h 4.625 v 3.756 c 0,3.635 -1.146,4.521 -2.521,4.889 v 0.06 C -0.457,-4.703 0,-2.962 0,0 m -4.498,-0.581 c 0,-1.587 -0.458,-2.321 -1.708,-2.321 h -8.467 v 5.377 h 8.051 c 1.458,0 2.124,-0.368 2.124,-2.322 z"
             style="fill:#231f20;fill-opacity:1;fill-rule:nonzero;stroke:none"
             id="path60"
             inkscape:connector-curvature="0" />
        </g>
        <g
           id="g62"
           transform="translate(197.1631,73.7207)">
          <path
             d="m 0,0 c 0,6.476 2.478,8.003 6.643,8.003 h 7.414 C 18.222,8.003 20.7,6.476 20.7,0 v -6.597 c 0,-6.476 -2.478,-8.004 -6.643,-8.004 H 6.643 C 2.478,-14.601 0,-13.073 0,-6.597 V 0 m 4.748,-4.49 c 0,-3.207 0.459,-4.429 2.645,-4.429 h 5.915 c 2.186,0 2.644,1.222 2.644,4.429 v 2.382 c 0,2.75 -0.458,4.43 -2.895,4.43 H 7.643 c -2.436,0 -2.895,-1.68 -2.895,-4.43 z"
             style="fill:#231f20;fill-opacity:1;fill-rule:nonzero;stroke:none"
             id="path64"
             inkscape:connector-curvature="0" />
        </g>
        <g
           id="g66"
           transform="translate(242.7647,81.4795)">
          <path
             d="M 0,0 H 4.622 V -7.881 H 14.37 V 0 h 4.623 V -22.115 H 14.37 v 8.37 H 4.622 v -8.37 H 0 Z"
             style="fill:#231f20;fill-opacity:1;fill-rule:nonzero;stroke:none"
             id="path68"
             inkscape:connector-curvature="0" />
        </g>
        <g
           id="g70"
           transform="translate(287.4161,81.4795)">
          <path
             d="m 0,0 h -14.291 v -22.115 h 4.623 v 5.559 H 1.207 c 3.271,0 4.249,3.789 4.249,7.086 v 1.895 C 5.456,-3.238 4.394,0 0,0 m 0.708,-8.705 c 0,-1.314 -0.416,-2.352 -1.5,-2.352 h -8.876 v 5.559 h 8.481 c 1.395,0 1.895,-0.855 1.895,-2.352 z"
             style="fill:#231f20;fill-opacity:1;fill-rule:nonzero;stroke:none"
             id="path72"
             inkscape:connector-curvature="0" />
        </g>
        <g
           id="g74"
           transform="translate(220.3734,73.687)">
          <path
             d="m 0,0 c 0,6.476 2.478,8.003 6.643,8.003 h 5.436 c 6.581,0 7.407,0.429 7.365,-5.834 L 7.553,2.19 C 5.115,2.19 4.748,0.642 4.748,-2.107 v -2.382 c 0,-3.208 0.459,-4.429 2.645,-4.429 l 12.266,0.01 c 0,-3.727 -0.048,-5.693 -4.692,-5.693 H 6.643 C 2.478,-14.601 0,-13.073 0,-6.596 Z"
             style="fill:#231f20;fill-opacity:1;fill-rule:nonzero;stroke:none"
             id="path76"
             inkscape:connector-curvature="0" />
        </g>
        <g
           id="g78"
           transform="translate(79.7847,97.4465)">
          <path
             d="m 0,0 c -2.841,0.816 -5.852,1.258 -8.975,1.258 -16.976,0 -30.739,-12.974 -30.739,-28.98 0,-16.005 13.763,-28.979 30.739,-28.979 15.6,0 28.476,10.958 30.463,25.152 z"
             style="fill:#ffffff;fill-opacity:1;fill-rule:nonzero;stroke:none"
             id="path80"
             inkscape:connector-curvature="0" />
        </g>
        <g
           id="g82"
           transform="translate(83.6022,96.0287)">
          <path
             d="m 0,0 c -3.956,1.867 -7.614,2.793 -12.322,2.876 -16.971,0.295 -30.958,-12.536 -31.24,-28.659 -0.048,-2.792 0.317,-5.499 1.043,-8.07 l 8.773,12.299 5.94,-9.297 c 0,0 1.785,-2.024 0.431,-4.071 -0.084,-0.128 -8.059,-11.144 -8.059,-11.144 5.508,-5.771 13.257,-9.294 22.094,-9.448 8.573,-0.151 16.226,2.976 21.893,8.257 l -18.66,29.454 c 0,0 2.943,4.13 5.244,7.403 2.534,3.602 4.815,1.087 5.576,-0.104 5.471,-8.578 15.737,-24.847 15.737,-24.847 l 0.005,0.094 c 1.052,2.419 1.591,3.152 1.704,6.636 L 0,0 m -4.427,-35.269 c 0,0 -4.967,-7.244 -5.476,-7.935 -3.039,-4.129 -5.274,0.638 -5.274,0.638 l -15.806,24.846 c 0,0 2.942,4.129 5.245,7.402 2.533,3.603 4.814,1.087 5.575,-0.104 5.471,-8.577 15.736,-24.847 15.736,-24.847"
             style="fill:#ee2223;fill-opacity:1;fill-rule:nonzero;stroke:none"
             id="path84"
             inkscape:connector-curvature="0" />
        </g>
        <g
           id="g86"
           transform="translate(88.455,94.4735)">
          <path
             d="m 0,0 c 0,1.361 1.103,2.361 2.405,2.361 1.291,0 2.392,-1 2.392,-2.361 0,-1.37 -1.101,-2.372 -2.392,-2.372 C 1.103,-2.372 0,-1.37 0,0 m 2.405,-1.977 c 1.071,0 1.916,0.84 1.916,1.977 0,1.121 -0.845,1.967 -1.916,1.967 C 1.322,1.967 0.476,1.121 0.476,0 c 0,-1.137 0.846,-1.977 1.929,-1.977 m -0.5,0.607 H 1.491 V 1.361 H 2.53 c 0.645,0 0.966,-0.24 0.966,-0.778 0,-0.489 -0.308,-0.702 -0.708,-0.752 L 3.564,-1.37 H 3.1 L 2.38,-0.186 H 1.905 V -1.37 M 2.4,0.163 c 0.35,0 0.662,0.026 0.662,0.446 0,0.336 -0.306,0.401 -0.595,0.401 H 1.905 V 0.163 Z"
             style="fill:#231f20;fill-opacity:1;fill-rule:nonzero;stroke:none"
             id="path88"
             inkscape:connector-curvature="0" />
        </g>
      </g>
    </g>
  </g>
</svg>
