<?xml version="1.0" encoding="UTF-8"?><svg xmlns="http://www.w3.org/2000/svg" xmlns:xlink="http://www.w3.org/1999/xlink" fill-opacity="1" color-rendering="auto" color-interpolation="auto" text-rendering="auto" stroke="black" stroke-linecap="square" width="869" stroke-miterlimit="10" shape-rendering="auto" stroke-opacity="1" fill="black" stroke-dasharray="none" font-weight="normal" stroke-width="1" height="310" font-family="'Dialog'" font-style="normal" stroke-linejoin="miter" font-size="12px" stroke-dashoffset="0" image-rendering="auto">
  <!--Generated by ySVG 2.5-->
  <defs id="genericDefs"/>
  <g>
    <defs id="defs1">
      <clipPath clipPathUnits="userSpaceOnUse" id="clipPath1">
        <path d="M0 0 L869 0 L869 310 L0 310 L0 0 Z"/>
      </clipPath>
      <clipPath clipPathUnits="userSpaceOnUse" id="clipPath2">
        <path d="M302 707 L1171 707 L1171 1017 L302 1017 L302 707 Z"/>
      </clipPath>
      <clipPath clipPathUnits="userSpaceOnUse" id="clipPath3">
        <path d="M165.3101 -27.1328 L165.3101 841.8672 L-144.6899 841.8672 L-144.6899 -27.1328 L165.3101 -27.1328 Z"/>
      </clipPath>
      <clipPath clipPathUnits="userSpaceOnUse" id="clipPath4">
        <path d="M263.3158 -15.1328 L263.3158 853.8672 L-46.6842 853.8672 L-46.6842 -15.1328 L263.3158 -15.1328 Z"/>
      </clipPath>
      <clipPath clipPathUnits="userSpaceOnUse" id="clipPath5">
        <path d="M155.0342 -362.5774 L155.0342 506.4226 L-154.9658 506.4226 L-154.9658 -362.5774 L155.0342 -362.5774 Z"/>
      </clipPath>
      <clipPath clipPathUnits="userSpaceOnUse" id="clipPath6">
        <path d="M160.7564 -72.0348 L160.7564 796.9652 L-149.2436 796.9652 L-149.2436 -72.0348 L160.7564 -72.0348 Z"/>
      </clipPath>
      <clipPath clipPathUnits="userSpaceOnUse" id="clipPath7">
        <path d="M162.8345 -48.7668 L162.8345 820.2332 L-147.1655 820.2332 L-147.1655 -48.7668 L162.8345 -48.7668 Z"/>
      </clipPath>
      <clipPath clipPathUnits="userSpaceOnUse" id="clipPath8">
        <path d="M163.1412 -831.4282 L163.1412 37.5718 L-146.8588 37.5718 L-146.8588 -831.4282 L163.1412 -831.4282 Z"/>
      </clipPath>
      <clipPath clipPathUnits="userSpaceOnUse" id="clipPath9">
        <path d="M163.6321 -194.4853 L163.6321 674.5147 L-146.3679 674.5147 L-146.3679 -194.4853 L163.6321 -194.4853 Z"/>
      </clipPath>
    </defs>
    <g fill="rgb(248,248,248)" text-rendering="geometricPrecision" shape-rendering="geometricPrecision" transform="matrix(1,0,0,1,-302,-707)" stroke="rgb(248,248,248)">
      <rect x="302.1328" y="707.2423" clip-path="url(#clipPath2)" width="867.9294" rx="4" ry="4" height="309.2516" stroke="none"/>
    </g>
    <g font-size="15px" stroke-linecap="butt" transform="matrix(1,0,0,1,-302,-707)" text-rendering="geometricPrecision" font-family="'Carlito'" shape-rendering="geometricPrecision" stroke-miterlimit="1.45">
      <text x="692.9799" xml:space="preserve" y="726.4922" clip-path="url(#clipPath2)" stroke="none">ls1028ardb-sd</text>
      <text x="559.2909" xml:space="preserve" y="741.4922" clip-path="url(#clipPath2)" stroke="none">NXP LS1028A RDB SD Card Memory Layout (at least 1 GiB)</text>
      <text x="944.2526" font-size="10px" y="1010.9938" clip-path="url(#clipPath2)" fill="silver" stroke="none" xml:space="preserve">© 2021 Tano Systems LLC | https://tano-systems.com</text>
    </g>
    <g stroke-linecap="butt" transform="matrix(1,0,0,1,-302,-707)" fill="silver" text-rendering="geometricPrecision" shape-rendering="geometricPrecision" stroke="silver" stroke-miterlimit="1.45">
      <rect x="302.1328" y="707.2423" clip-path="url(#clipPath2)" fill="none" width="867.9294" rx="4" ry="4" height="309.2516"/>
      <rect stroke-linecap="square" x="349.1328" y="826.508" clip-path="url(#clipPath2)" width="805.9294" rx="4" ry="4" height="49.36" stroke="none" stroke-miterlimit="10"/>
      <rect x="349.1328" y="826.508" clip-path="url(#clipPath2)" fill="none" width="805.9294" rx="4" ry="4" height="49.36" stroke-width="7"/>
    </g>
    <g text-rendering="geometricPrecision" stroke-miterlimit="1.45" shape-rendering="geometricPrecision" font-family="'Carlito'" transform="matrix(-0,-1,1,-0,27.1328,165.3101)" stroke-linecap="butt">
      <text x="2" xml:space="preserve" y="11" clip-path="url(#clipPath3)" stroke="none">SD Card</text>
    </g>
    <g fill="rgb(153,204,255)" text-rendering="geometricPrecision" shape-rendering="geometricPrecision" transform="matrix(1,0,0,1,-302,-707)" stroke="rgb(153,204,255)">
      <rect x="589.7453" width="57.4824" height="22" y="792.0978" clip-path="url(#clipPath2)" stroke="none"/>
    </g>
    <g font-size="9px" stroke-linecap="butt" transform="matrix(1,0,0,1,-302,-707)" text-rendering="geometricPrecision" font-family="'Consolas'" shape-rendering="geometricPrecision" stroke-miterlimit="1.45">
      <text x="593.7454" xml:space="preserve" y="800.7819" clip-path="url(#clipPath2)" stroke="none">0x00420000</text>
      <text x="593.7454" xml:space="preserve" y="809.7819" clip-path="url(#clipPath2)" stroke="none">+4.125 MiB</text>
    </g>
    <g fill="rgb(153,204,255)" text-rendering="geometricPrecision" shape-rendering="geometricPrecision" transform="matrix(1,0,0,1,-302,-707)" stroke="rgb(153,204,255)">
      <rect x="546.8615" width="57.4824" height="22" y="762.8023" clip-path="url(#clipPath2)" stroke="none"/>
    </g>
    <g font-size="9px" stroke-linecap="butt" transform="matrix(1,0,0,1,-302,-707)" text-rendering="geometricPrecision" font-family="'Consolas'" shape-rendering="geometricPrecision" stroke-miterlimit="1.45">
      <text x="550.8615" xml:space="preserve" y="771.4863" clip-path="url(#clipPath2)" stroke="none">0x00400000</text>
      <text x="560.758" xml:space="preserve" y="780.4863" clip-path="url(#clipPath2)" stroke="none">+4 MiB</text>
    </g>
    <g fill="rgb(153,204,255)" text-rendering="geometricPrecision" shape-rendering="geometricPrecision" transform="matrix(1,0,0,1,-302,-707)" stroke="rgb(153,204,255)">
      <rect x="501.3563" width="57.4824" height="22" y="792.0978" clip-path="url(#clipPath2)" stroke="none"/>
    </g>
    <g font-size="9px" stroke-linecap="butt" transform="matrix(1,0,0,1,-302,-707)" text-rendering="geometricPrecision" font-family="'Consolas'" shape-rendering="geometricPrecision" stroke-miterlimit="1.45">
      <text x="505.3563" xml:space="preserve" y="800.7819" clip-path="url(#clipPath2)" stroke="none">0x00380000</text>
      <text x="510.3045" xml:space="preserve" y="809.7819" clip-path="url(#clipPath2)" stroke="none">+3.5 MiB</text>
    </g>
    <g fill="rgb(153,204,255)" text-rendering="geometricPrecision" shape-rendering="geometricPrecision" transform="matrix(1,0,0,1,-302,-707)" stroke="rgb(153,204,255)">
      <rect x="467.1357" width="57.4824" height="22" y="762.8023" clip-path="url(#clipPath2)" stroke="none"/>
    </g>
    <g font-size="9px" stroke-linecap="butt" transform="matrix(1,0,0,1,-302,-707)" text-rendering="geometricPrecision" font-family="'Consolas'" shape-rendering="geometricPrecision" stroke-miterlimit="1.45">
      <text x="471.1357" xml:space="preserve" y="771.4863" clip-path="url(#clipPath2)" stroke="none">0x00340000</text>
      <text x="473.6098" xml:space="preserve" y="780.4863" clip-path="url(#clipPath2)" stroke="none">+3.25 MiB</text>
    </g>
    <g fill="rgb(153,204,255)" text-rendering="geometricPrecision" shape-rendering="geometricPrecision" transform="matrix(1,0,0,1,-302,-707)" stroke="rgb(153,204,255)">
      <rect x="373.6723" width="57.4824" height="22" y="762.8023" clip-path="url(#clipPath2)" stroke="none"/>
    </g>
    <g font-size="9px" stroke-linecap="butt" transform="matrix(1,0,0,1,-302,-707)" text-rendering="geometricPrecision" font-family="'Consolas'" shape-rendering="geometricPrecision" stroke-miterlimit="1.45">
      <text x="377.6723" xml:space="preserve" y="771.4863" clip-path="url(#clipPath2)" stroke="none">0x00100000</text>
      <text x="387.5688" xml:space="preserve" y="780.4863" clip-path="url(#clipPath2)" stroke="none">+1 MiB</text>
    </g>
    <g fill="rgb(255,255,229)" text-rendering="geometricPrecision" shape-rendering="geometricPrecision" transform="matrix(1,0,0,1,-302,-707)" stroke="rgb(255,255,229)">
      <rect x="698.8126" y="826.508" clip-path="url(#clipPath2)" width="144.3272" rx="4" ry="4" height="49.36" stroke="none"/>
    </g>
    <g text-rendering="geometricPrecision" stroke-miterlimit="1.45" shape-rendering="geometricPrecision" transform="matrix(1,0,0,1,-302,-707)" stroke-linecap="butt">
      <rect x="698.8126" y="826.508" clip-path="url(#clipPath2)" fill="none" width="144.3272" rx="4" ry="4" height="49.36"/>
      <text x="752.2799" font-size="10px" y="843.688" clip-path="url(#clipPath2)" font-family="'Carlito'" stroke="none" xml:space="preserve">System A</text>
      <text x="714.299" font-size="10px" y="853.688" clip-path="url(#clipPath2)" font-family="'Carlito'" stroke="none" xml:space="preserve">Kernel and Root File System</text>
      <text x="751.069" font-size="10px" y="863.688" clip-path="url(#clipPath2)" font-family="'Carlito'" stroke="none" xml:space="preserve">(448 MiB)</text>
    </g>
    <g fill="silver" text-rendering="geometricPrecision" shape-rendering="geometricPrecision" transform="matrix(1,0,0,1,-302,-707)" stroke="silver">
      <rect x="349.1328" y="920.1338" clip-path="url(#clipPath2)" width="805.9294" rx="4" ry="4" height="49.36" stroke="none"/>
      <rect stroke-linecap="butt" x="349.1328" y="920.1338" clip-path="url(#clipPath2)" fill="none" width="805.9294" rx="4" ry="4" height="49.36" stroke-width="7" stroke-miterlimit="1.45"/>
    </g>
    <g text-rendering="geometricPrecision" stroke-miterlimit="1.45" shape-rendering="geometricPrecision" font-family="'Carlito'" transform="matrix(-0,-1,1,-0,15.1328,263.3158)" stroke-linecap="butt">
      <text x="15.6934" xml:space="preserve" y="11" clip-path="url(#clipPath4)" stroke="none">GPT</text>
      <text x="2" xml:space="preserve" y="23" clip-path="url(#clipPath4)" stroke="none">Partitions</text>
    </g>
    <g fill="rgb(153,204,255)" text-rendering="geometricPrecision" shape-rendering="geometricPrecision" transform="matrix(1,0,0,1,-302,-707)" stroke="rgb(153,204,255)">
      <rect x="632.6684" width="57.4824" height="22" y="762.8023" clip-path="url(#clipPath2)" stroke="none"/>
    </g>
    <g font-size="9px" stroke-linecap="butt" transform="matrix(1,0,0,1,-302,-707)" text-rendering="geometricPrecision" font-family="'Consolas'" shape-rendering="geometricPrecision" stroke-miterlimit="1.45">
      <text x="636.6685" xml:space="preserve" y="771.4863" clip-path="url(#clipPath2)" stroke="none">0x00801000</text>
      <text x="639.1426" xml:space="preserve" y="780.4863" clip-path="url(#clipPath2)" stroke="none">+8196 KiB</text>
    </g>
    <g fill="rgb(255,153,153)" text-rendering="geometricPrecision" shape-rendering="geometricPrecision" transform="matrix(1,0,0,1,-302,-707)" stroke="rgb(255,153,153)">
      <rect x="661.384" y="826.508" clip-path="url(#clipPath2)" width="19.3867" rx="4" ry="4" height="49.36" stroke="none"/>
    </g>
    <g text-rendering="geometricPrecision" stroke-miterlimit="1.45" shape-rendering="geometricPrecision" transform="matrix(1,0,0,1,-302,-707)" stroke-linecap="butt">
      <rect x="661.384" y="826.508" clip-path="url(#clipPath2)" fill="none" width="19.3867" rx="4" ry="4" height="49.36"/>
    </g>
    <g font-size="9px" stroke-linecap="butt" transform="matrix(-0,-1,1,-0,362.5774,155.0342)" text-rendering="geometricPrecision" font-family="'Carlito'" shape-rendering="geometricPrecision" stroke-miterlimit="1.45">
      <text x="2" xml:space="preserve" y="8.75" clip-path="url(#clipPath5)" stroke="none">RCW</text>
    </g>
    <g font-size="10px" stroke-linecap="butt" transform="matrix(1,0,0,1,-302,-707)" text-rendering="geometricPrecision" font-family="'Carlito'" shape-rendering="geometricPrecision" stroke-miterlimit="1.45">
      <text x="661.0212" xml:space="preserve" y="889.368" clip-path="url(#clipPath2)" stroke="none">RAW</text>
    </g>
    <g fill="rgb(255,255,153)" text-rendering="geometricPrecision" shape-rendering="geometricPrecision" transform="matrix(1,0,0,1,-302,-707)" stroke="rgb(255,255,153)">
      <rect x="698.8126" y="920.1338" clip-path="url(#clipPath2)" width="65.68" rx="4" ry="4" height="49.36" stroke="none"/>
    </g>
    <g text-rendering="geometricPrecision" stroke-miterlimit="1.45" shape-rendering="geometricPrecision" transform="matrix(1,0,0,1,-302,-707)" stroke-linecap="butt">
      <rect x="698.8126" y="920.1338" clip-path="url(#clipPath2)" fill="none" width="65.68" rx="4" ry="4" height="49.36"/>
      <text x="712.0383" font-size="10px" y="932.3138" clip-path="url(#clipPath2)" font-family="'Carlito'" stroke="none" xml:space="preserve">FIT Image</text>
      <text x="718.5618" font-size="10px" y="942.3138" clip-path="url(#clipPath2)" font-family="'Carlito'" stroke="none" xml:space="preserve">Kernel</text>
      <text x="707.1262" font-size="10px" y="952.3138" clip-path="url(#clipPath2)" font-family="'Carlito'" stroke="none" xml:space="preserve">DTB + DTBO</text>
      <text x="714.2795" font-size="10px" y="962.3138" clip-path="url(#clipPath2)" font-family="'Carlito'" stroke="none" xml:space="preserve">(64 MiB)</text>
      <text x="710.3586" font-size="10px" y="901.6339" clip-path="url(#clipPath2)" font-family="'Carlito'" stroke="none" xml:space="preserve">Partition 1</text>
      <text x="710.969" font-size="10px" y="911.6339" clip-path="url(#clipPath2)" font-family="'Carlito'" stroke="none" xml:space="preserve">(kernel_a)</text>
      <text x="707.8074" font-size="10px" y="982.9938" clip-path="url(#clipPath2)" font-family="'Carlito'" stroke="none" xml:space="preserve">mmcblk0p1</text>
      <text x="722.7903" font-size="10px" y="992.9938" clip-path="url(#clipPath2)" font-family="'Carlito'" stroke="none" xml:space="preserve">ext4</text>
    </g>
    <g fill="rgb(153,204,255)" text-rendering="geometricPrecision" shape-rendering="geometricPrecision" transform="matrix(1,0,0,1,-302,-707)" stroke="rgb(153,204,255)">
      <rect x="843.1398" y="920.1338" clip-path="url(#clipPath2)" width="65.68" rx="4" ry="4" height="49.36" stroke="none"/>
    </g>
    <g text-rendering="geometricPrecision" stroke-miterlimit="1.45" shape-rendering="geometricPrecision" transform="matrix(1,0,0,1,-302,-707)" stroke-linecap="butt">
      <rect x="843.1398" y="920.1338" clip-path="url(#clipPath2)" fill="none" width="65.68" rx="4" ry="4" height="49.36"/>
      <text x="856.3655" font-size="10px" y="932.3138" clip-path="url(#clipPath2)" font-family="'Carlito'" stroke="none" xml:space="preserve">FIT Image</text>
      <text x="862.889" font-size="10px" y="942.3138" clip-path="url(#clipPath2)" font-family="'Carlito'" stroke="none" xml:space="preserve">Kernel</text>
      <text x="851.4534" font-size="10px" y="952.3138" clip-path="url(#clipPath2)" font-family="'Carlito'" stroke="none" xml:space="preserve">DTB + DTBO</text>
      <text x="858.6068" font-size="10px" y="962.3138" clip-path="url(#clipPath2)" font-family="'Carlito'" stroke="none" xml:space="preserve">(64 MiB)</text>
      <text x="854.6859" font-size="10px" y="901.6339" clip-path="url(#clipPath2)" font-family="'Carlito'" stroke="none" xml:space="preserve">Partition 3</text>
      <text x="855.0643" font-size="10px" y="911.6339" clip-path="url(#clipPath2)" font-family="'Carlito'" stroke="none" xml:space="preserve">(kernel_b)</text>
      <text x="852.1346" font-size="10px" y="982.9938" clip-path="url(#clipPath2)" font-family="'Carlito'" stroke="none" xml:space="preserve">mmcblk0p3</text>
      <text x="867.1175" font-size="10px" y="992.9938" clip-path="url(#clipPath2)" font-family="'Carlito'" stroke="none" xml:space="preserve">ext4</text>
    </g>
    <g fill="rgb(255,153,0)" text-rendering="geometricPrecision" shape-rendering="geometricPrecision" transform="matrix(1,0,0,1,-302,-707)" stroke="rgb(255,153,0)">
      <rect x="372.4008" y="826.508" clip-path="url(#clipPath2)" width="23.268" rx="4" ry="4" height="49.36" stroke="none"/>
    </g>
    <g text-rendering="geometricPrecision" stroke-miterlimit="1.45" shape-rendering="geometricPrecision" transform="matrix(1,0,0,1,-302,-707)" stroke-linecap="butt">
      <rect x="372.4008" y="826.508" clip-path="url(#clipPath2)" fill="none" width="23.268" rx="4" ry="4" height="49.36"/>
    </g>
    <g font-size="8px" stroke-linecap="butt" transform="matrix(-0,-1,1,-0,72.0348,160.7564)" text-rendering="geometricPrecision" font-family="'Carlito'" shape-rendering="geometricPrecision" stroke-miterlimit="1.45">
      <text x="3.873" xml:space="preserve" y="8" clip-path="url(#clipPath6)" stroke="none">Primary</text>
      <text x="2" xml:space="preserve" y="16" clip-path="url(#clipPath6)" stroke="none">GPT HDR</text>
    </g>
    <g fill="silver" text-rendering="geometricPrecision" shape-rendering="geometricPrecision" transform="matrix(1,0,0,1,-302,-707)" stroke="silver">
      <rect x="349.1328" y="826.508" clip-path="url(#clipPath2)" width="23.268" rx="4" ry="4" height="49.36" stroke="none"/>
    </g>
    <g text-rendering="geometricPrecision" stroke-miterlimit="1.45" shape-rendering="geometricPrecision" transform="matrix(1,0,0,1,-302,-707)" stroke-linecap="butt">
      <rect x="349.1328" y="826.508" clip-path="url(#clipPath2)" fill="none" width="23.268" rx="4" ry="4" height="49.36"/>
    </g>
    <g font-size="8px" stroke-linecap="butt" transform="matrix(-0,-1,1,-0,48.7668,162.8345)" text-rendering="geometricPrecision" font-family="'Carlito'" shape-rendering="geometricPrecision" stroke-miterlimit="1.45">
      <text x="2" xml:space="preserve" y="8" clip-path="url(#clipPath7)" stroke="none">Protective</text>
      <text x="2.8496" xml:space="preserve" y="16" clip-path="url(#clipPath7)" stroke="none">MBR HDR</text>
    </g>
    <g fill="rgb(255,255,153)" text-rendering="geometricPrecision" shape-rendering="geometricPrecision" transform="matrix(1,0,0,1,-302,-707)" stroke="rgb(255,255,153)">
      <rect x="764.4926" y="920.1338" clip-path="url(#clipPath2)" width="78.6472" rx="4" ry="4" height="49.36" stroke="none"/>
    </g>
    <g text-rendering="geometricPrecision" stroke-miterlimit="1.45" shape-rendering="geometricPrecision" transform="matrix(1,0,0,1,-302,-707)" stroke-linecap="butt">
      <rect x="764.4926" y="920.1338" clip-path="url(#clipPath2)" fill="none" width="78.6472" rx="4" ry="4" height="49.36"/>
      <text x="782.7127" font-size="10px" y="937.3138" clip-path="url(#clipPath2)" font-family="'Carlito'" stroke="none" xml:space="preserve">Read-Only</text>
      <text x="770.1395" font-size="10px" y="947.3138" clip-path="url(#clipPath2)" font-family="'Carlito'" stroke="none" xml:space="preserve">Root File System</text>
      <text x="783.909" font-size="10px" y="957.3138" clip-path="url(#clipPath2)" font-family="'Carlito'" stroke="none" xml:space="preserve">(384 MiB)</text>
      <text x="782.5223" font-size="10px" y="901.6339" clip-path="url(#clipPath2)" font-family="'Carlito'" stroke="none" xml:space="preserve">Partition 2</text>
      <text x="783.7259" font-size="10px" y="911.6339" clip-path="url(#clipPath2)" font-family="'Carlito'" stroke="none" xml:space="preserve">(rootfs_a)</text>
      <text x="779.971" font-size="10px" y="982.9938" clip-path="url(#clipPath2)" font-family="'Carlito'" stroke="none" xml:space="preserve">mmcblk0p2</text>
      <text x="786.1478" font-size="10px" y="992.9938" clip-path="url(#clipPath2)" font-family="'Carlito'" stroke="none" xml:space="preserve">squashfs</text>
    </g>
    <g fill="rgb(153,204,255)" text-rendering="geometricPrecision" shape-rendering="geometricPrecision" transform="matrix(1,0,0,1,-302,-707)" stroke="rgb(153,204,255)">
      <rect x="908.8198" y="920.1338" clip-path="url(#clipPath2)" width="78.6472" rx="4" ry="4" height="49.36" stroke="none"/>
    </g>
    <g text-rendering="geometricPrecision" stroke-miterlimit="1.45" shape-rendering="geometricPrecision" transform="matrix(1,0,0,1,-302,-707)" stroke-linecap="butt">
      <rect x="908.8198" y="920.1338" clip-path="url(#clipPath2)" fill="none" width="78.6472" rx="4" ry="4" height="49.36"/>
      <text x="927.0399" font-size="10px" y="937.3138" clip-path="url(#clipPath2)" font-family="'Carlito'" stroke="none" xml:space="preserve">Read-Only</text>
      <text x="914.4667" font-size="10px" y="947.3138" clip-path="url(#clipPath2)" font-family="'Carlito'" stroke="none" xml:space="preserve">Root File System</text>
      <text x="928.2362" font-size="10px" y="957.3138" clip-path="url(#clipPath2)" font-family="'Carlito'" stroke="none" xml:space="preserve">(384 MiB)</text>
      <text x="926.8495" font-size="10px" y="901.6339" clip-path="url(#clipPath2)" font-family="'Carlito'" stroke="none" xml:space="preserve">Partition 4</text>
      <text x="927.8212" font-size="10px" y="911.6339" clip-path="url(#clipPath2)" font-family="'Carlito'" stroke="none" xml:space="preserve">(rootfs_b)</text>
      <text x="924.2982" font-size="10px" y="982.9938" clip-path="url(#clipPath2)" font-family="'Carlito'" stroke="none" xml:space="preserve">mmcblk0p4</text>
      <text x="930.475" font-size="10px" y="992.9938" clip-path="url(#clipPath2)" font-family="'Carlito'" stroke="none" xml:space="preserve">squashfs</text>
    </g>
    <g fill="rgb(255,153,0)" text-rendering="geometricPrecision" shape-rendering="geometricPrecision" transform="matrix(1,0,0,1,-302,-707)" stroke="rgb(255,153,0)">
      <rect x="1131.7942" y="826.508" clip-path="url(#clipPath2)" width="23.268" rx="4" ry="4" height="49.36" stroke="none"/>
    </g>
    <g text-rendering="geometricPrecision" stroke-miterlimit="1.45" shape-rendering="geometricPrecision" transform="matrix(1,0,0,1,-302,-707)" stroke-linecap="butt">
      <rect x="1131.7942" y="826.508" clip-path="url(#clipPath2)" fill="none" width="23.268" rx="4" ry="4" height="49.36"/>
    </g>
    <g font-size="8px" stroke-linecap="butt" transform="matrix(-0,-1,1,-0,831.4282,163.1412)" text-rendering="geometricPrecision" font-family="'Carlito'" shape-rendering="geometricPrecision" stroke-miterlimit="1.45">
      <text x="2" xml:space="preserve" y="8" clip-path="url(#clipPath8)" stroke="none">Secondary</text>
      <text x="4.3848" xml:space="preserve" y="16" clip-path="url(#clipPath8)" stroke="none">GPT HDR</text>
    </g>
    <g fill="rgb(229,242,255)" text-rendering="geometricPrecision" shape-rendering="geometricPrecision" transform="matrix(1,0,0,1,-302,-707)" stroke="rgb(229,242,255)">
      <rect x="843.1398" y="826.508" clip-path="url(#clipPath2)" width="144.3272" rx="4" ry="4" height="49.36" stroke="none"/>
    </g>
    <g text-rendering="geometricPrecision" stroke-miterlimit="1.45" shape-rendering="geometricPrecision" transform="matrix(1,0,0,1,-302,-707)" stroke-linecap="butt">
      <rect x="843.1398" y="826.508" clip-path="url(#clipPath2)" fill="none" width="144.3272" rx="4" ry="4" height="49.36"/>
      <text x="896.7805" font-size="10px" y="843.688" clip-path="url(#clipPath2)" font-family="'Carlito'" stroke="none" xml:space="preserve">System B</text>
      <text x="858.6262" font-size="10px" y="853.688" clip-path="url(#clipPath2)" font-family="'Carlito'" stroke="none" xml:space="preserve">Kernel and Root File System</text>
      <text x="895.3962" font-size="10px" y="863.688" clip-path="url(#clipPath2)" font-family="'Carlito'" stroke="none" xml:space="preserve">(448 MiB)</text>
    </g>
    <g fill="rgb(255,178,127)" text-rendering="geometricPrecision" shape-rendering="geometricPrecision" transform="matrix(1,0,0,1,-302,-707)" stroke="rgb(255,178,127)">
      <rect x="402.4008" y="826.508" clip-path="url(#clipPath2)" width="36.8394" rx="4" ry="4" height="49.36" stroke="none"/>
    </g>
    <g text-rendering="geometricPrecision" stroke-miterlimit="1.45" shape-rendering="geometricPrecision" transform="matrix(1,0,0,1,-302,-707)" stroke-linecap="butt">
      <rect x="402.4008" y="826.508" clip-path="url(#clipPath2)" fill="none" width="36.8394" rx="4" ry="4" height="49.36"/>
      <text x="407.8545" font-size="9px" y="839.938" clip-path="url(#clipPath2)" font-family="'Carlito'" stroke="none" xml:space="preserve">U-Boot</text>
      <text x="405.3979" font-size="9px" y="848.938" clip-path="url(#clipPath2)" font-family="'Carlito'" stroke="none" xml:space="preserve">with SPL</text>
      <text x="409.8298" font-size="9px" y="857.938" clip-path="url(#clipPath2)" font-family="'Carlito'" stroke="none" xml:space="preserve">(up to</text>
      <text x="408.83" font-size="9px" y="866.938" clip-path="url(#clipPath2)" font-family="'Carlito'" stroke="none" xml:space="preserve">2 MiB)</text>
      <text x="410.7644" font-size="10px" y="889.368" clip-path="url(#clipPath2)" font-family="'Carlito'" stroke="none" xml:space="preserve">RAW</text>
    </g>
    <g fill="rgb(242,229,255)" text-rendering="geometricPrecision" shape-rendering="geometricPrecision" transform="matrix(1,0,0,1,-302,-707)" stroke="rgb(242,229,255)">
      <rect x="987.467" y="826.508" clip-path="url(#clipPath2)" width="144.3272" rx="4" ry="4" height="49.36" stroke="none"/>
    </g>
    <g text-rendering="geometricPrecision" stroke-miterlimit="1.45" shape-rendering="geometricPrecision" transform="matrix(1,0,0,1,-302,-707)" stroke-linecap="butt">
      <rect x="987.467" y="826.508" clip-path="url(#clipPath2)" fill="none" width="144.3272" rx="4" ry="4" height="49.36"/>
      <text x="1039.5647" font-size="10px" y="848.688" clip-path="url(#clipPath2)" font-family="'Carlito'" stroke="none" xml:space="preserve">User Data</text>
      <text x="1010.6926" font-size="10px" y="858.688" clip-path="url(#clipPath2)" font-family="'Carlito'" stroke="none" xml:space="preserve">(all available free space)</text>
    </g>
    <g fill="rgb(204,153,255)" text-rendering="geometricPrecision" shape-rendering="geometricPrecision" transform="matrix(1,0,0,1,-302,-707)" stroke="rgb(204,153,255)">
      <rect x="987.467" y="920.1338" clip-path="url(#clipPath2)" width="144.3272" rx="4" ry="4" height="49.36" stroke="none"/>
    </g>
    <g text-rendering="geometricPrecision" stroke-miterlimit="1.45" shape-rendering="geometricPrecision" transform="matrix(1,0,0,1,-302,-707)" stroke-linecap="butt">
      <rect x="987.467" y="920.1338" clip-path="url(#clipPath2)" fill="none" width="144.3272" rx="4" ry="4" height="49.36"/>
      <text x="1039.5647" font-size="10px" y="937.3138" clip-path="url(#clipPath2)" font-family="'Carlito'" stroke="none" xml:space="preserve">User Data</text>
      <text x="1020.0115" font-size="10px" y="947.3138" clip-path="url(#clipPath2)" font-family="'Carlito'" stroke="none" xml:space="preserve">Overlay File System</text>
      <text x="1010.6926" font-size="10px" y="957.3138" clip-path="url(#clipPath2)" font-family="'Carlito'" stroke="none" xml:space="preserve">(all available free space)</text>
      <text x="1038.3367" font-size="10px" y="901.6339" clip-path="url(#clipPath2)" font-family="'Carlito'" stroke="none" xml:space="preserve">Partition 5</text>
      <text x="1032.8435" font-size="10px" y="911.6339" clip-path="url(#clipPath2)" font-family="'Carlito'" stroke="none" xml:space="preserve">(rootfs_data)</text>
      <text x="1035.7854" font-size="10px" y="982.9938" clip-path="url(#clipPath2)" font-family="'Carlito'" stroke="none" xml:space="preserve">mmcblk0p5</text>
      <text x="1050.7683" font-size="10px" y="992.9938" clip-path="url(#clipPath2)" font-family="'Carlito'" stroke="none" xml:space="preserve">ext4</text>
    </g>
    <g fill="rgb(158,255,0)" text-rendering="geometricPrecision" shape-rendering="geometricPrecision" transform="matrix(1,0,0,1,-302,-707)" stroke="rgb(158,255,0)">
      <rect x="575.6164" y="826.508" clip-path="url(#clipPath2)" width="34.218" rx="4" ry="4" height="49.36" stroke="none"/>
    </g>
    <g text-rendering="geometricPrecision" stroke-miterlimit="1.45" shape-rendering="geometricPrecision" transform="matrix(1,0,0,1,-302,-707)" stroke-linecap="butt">
      <rect x="575.6164" y="826.508" clip-path="url(#clipPath2)" fill="none" width="34.218" rx="4" ry="4" height="49.36"/>
      <text x="579.7593" font-size="9px" y="844.438" clip-path="url(#clipPath2)" font-family="'Carlito'" stroke="none" xml:space="preserve">U-Boot</text>
      <text x="580.5921" font-size="9px" y="853.438" clip-path="url(#clipPath2)" font-family="'Carlito'" stroke="none" xml:space="preserve">Env #1</text>
      <text x="580.8799" font-size="9px" y="862.438" clip-path="url(#clipPath2)" font-family="'Carlito'" stroke="none" xml:space="preserve">(8 KiB)</text>
      <text x="582.6693" font-size="10px" y="889.368" clip-path="url(#clipPath2)" font-family="'Carlito'" stroke="none" xml:space="preserve">RAW</text>
    </g>
    <g fill="rgb(158,255,0)" text-rendering="geometricPrecision" shape-rendering="geometricPrecision" transform="matrix(1,0,0,1,-302,-707)" stroke="rgb(158,255,0)">
      <rect x="618.5002" y="826.508" clip-path="url(#clipPath2)" width="34.218" rx="4" ry="4" height="49.36" stroke="none"/>
    </g>
    <g text-rendering="geometricPrecision" stroke-miterlimit="1.45" shape-rendering="geometricPrecision" transform="matrix(1,0,0,1,-302,-707)" stroke-linecap="butt">
      <rect x="618.5002" y="826.508" clip-path="url(#clipPath2)" fill="none" width="34.218" rx="4" ry="4" height="49.36"/>
      <text x="622.6431" font-size="9px" y="844.438" clip-path="url(#clipPath2)" font-family="'Carlito'" stroke="none" xml:space="preserve">U-Boot</text>
      <text x="623.4759" font-size="9px" y="853.438" clip-path="url(#clipPath2)" font-family="'Carlito'" stroke="none" xml:space="preserve">Env #2</text>
      <text x="623.7637" font-size="9px" y="862.438" clip-path="url(#clipPath2)" font-family="'Carlito'" stroke="none" xml:space="preserve">(8 KiB)</text>
      <text x="625.553" font-size="10px" y="889.368" clip-path="url(#clipPath2)" font-family="'Carlito'" stroke="none" xml:space="preserve">RAW</text>
    </g>
    <g fill="rgb(204,255,255)" text-rendering="geometricPrecision" shape-rendering="geometricPrecision" transform="matrix(1,0,0,1,-302,-707)" stroke="rgb(204,255,255)">
      <rect x="495.8513" y="826.508" clip-path="url(#clipPath2)" width="23.268" rx="4" ry="4" height="49.36" stroke="none"/>
    </g>
    <g text-rendering="geometricPrecision" stroke-miterlimit="1.45" shape-rendering="geometricPrecision" transform="matrix(1,0,0,1,-302,-707)" stroke-linecap="butt">
      <rect x="495.8513" y="826.508" clip-path="url(#clipPath2)" fill="none" width="23.268" rx="4" ry="4" height="49.36"/>
    </g>
    <g font-size="9px" stroke-linecap="butt" transform="matrix(-0,-1,1,-0,194.4853,163.6321)" text-rendering="geometricPrecision" font-family="'Carlito'" shape-rendering="geometricPrecision" stroke-miterlimit="1.45">
      <text x="12.1909" xml:space="preserve" y="8.75" clip-path="url(#clipPath9)" stroke="none">PPA</text>
      <text x="2" xml:space="preserve" y="17.75" clip-path="url(#clipPath9)" stroke="none">Firmware</text>
    </g>
    <g font-size="10px" stroke-linecap="butt" transform="matrix(1,0,0,1,-302,-707)" text-rendering="geometricPrecision" font-family="'Carlito'" shape-rendering="geometricPrecision" stroke-miterlimit="1.45">
      <text x="497.4292" xml:space="preserve" y="889.368" clip-path="url(#clipPath2)" stroke="none">RAW</text>
    </g>
    <g fill="rgb(153,204,255)" text-rendering="geometricPrecision" shape-rendering="geometricPrecision" transform="matrix(1,0,0,1,-302,-707)" stroke="rgb(153,204,255)">
      <rect x="530.1112" y="826.508" clip-path="url(#clipPath2)" width="36.8394" rx="4" ry="4" height="49.36" stroke="none"/>
    </g>
    <g text-rendering="geometricPrecision" stroke-miterlimit="1.45" shape-rendering="geometricPrecision" transform="matrix(1,0,0,1,-302,-707)" stroke-linecap="butt">
      <rect x="530.1112" y="826.508" clip-path="url(#clipPath2)" fill="none" width="36.8394" rx="4" ry="4" height="49.36"/>
      <text x="535.5648" font-size="9px" y="844.438" clip-path="url(#clipPath2)" font-family="'Carlito'" stroke="none" xml:space="preserve">U-Boot</text>
      <text x="534.9957" font-size="9px" y="853.438" clip-path="url(#clipPath2)" font-family="'Carlito'" stroke="none" xml:space="preserve">Startup</text>
      <text x="538.0873" font-size="9px" y="862.438" clip-path="url(#clipPath2)" font-family="'Carlito'" stroke="none" xml:space="preserve">Script</text>
      <text x="538.4747" font-size="10px" y="889.368" clip-path="url(#clipPath2)" font-family="'Carlito'" stroke="none" xml:space="preserve">RAW</text>
    </g>
    <g fill="rgb(153,204,255)" text-rendering="geometricPrecision" shape-rendering="geometricPrecision" transform="matrix(1,0,0,1,-302,-707)" stroke="rgb(153,204,255)">
      <rect x="417.2558" width="57.4824" height="22" y="792.0978" clip-path="url(#clipPath2)" stroke="none"/>
    </g>
    <g font-size="9px" stroke-linecap="butt" transform="matrix(1,0,0,1,-302,-707)" text-rendering="geometricPrecision" font-family="'Consolas'" shape-rendering="geometricPrecision" stroke-miterlimit="1.45">
      <text x="421.2558" xml:space="preserve" y="800.7819" clip-path="url(#clipPath2)" stroke="none">0x00300000</text>
      <text x="431.1523" xml:space="preserve" y="809.7819" clip-path="url(#clipPath2)" stroke="none">+3 MiB</text>
    </g>
    <g fill="rgb(255,204,0)" text-rendering="geometricPrecision" shape-rendering="geometricPrecision" transform="matrix(1,0,0,1,-302,-707)" stroke="rgb(255,204,0)">
      <rect x="445.9722" y="826.508" clip-path="url(#clipPath2)" width="43.1471" rx="4" ry="4" height="49.36" stroke="none"/>
    </g>
    <g text-rendering="geometricPrecision" stroke-miterlimit="1.45" shape-rendering="geometricPrecision" transform="matrix(1,0,0,1,-302,-707)" stroke-linecap="butt">
      <rect x="445.9722" y="826.508" clip-path="url(#clipPath2)" fill="none" width="43.1471" rx="4" ry="4" height="49.36"/>
      <text x="462.4525" font-size="9px" y="839.938" clip-path="url(#clipPath2)" font-family="'Carlito'" stroke="none" xml:space="preserve">DP</text>
      <text x="450.1017" font-size="9px" y="848.938" clip-path="url(#clipPath2)" font-family="'Carlito'" stroke="none" xml:space="preserve">Firmware</text>
      <text x="456.5638" font-size="9px" y="857.938" clip-path="url(#clipPath2)" font-family="'Carlito'" stroke="none" xml:space="preserve">(up tp</text>
      <text x="452.5033" font-size="9px" y="866.938" clip-path="url(#clipPath2)" font-family="'Carlito'" stroke="none" xml:space="preserve">256 KiB)</text>
      <text x="457.4896" font-size="10px" y="889.368" clip-path="url(#clipPath2)" font-family="'Carlito'" stroke="none" xml:space="preserve">RAW</text>
    </g>
    <g fill="rgb(153,204,255)" text-rendering="geometricPrecision" shape-rendering="geometricPrecision" transform="matrix(1,0,0,1,-302,-707)" stroke="rgb(153,204,255)">
      <rect x="670.061" width="57.4824" height="22" y="792.0978" clip-path="url(#clipPath2)" stroke="none"/>
    </g>
    <g font-size="9px" stroke-linecap="butt" transform="matrix(1,0,0,1,-302,-707)" text-rendering="geometricPrecision" font-family="'Consolas'" shape-rendering="geometricPrecision" stroke-miterlimit="1.45">
      <text x="674.061" xml:space="preserve" y="800.7819" clip-path="url(#clipPath2)" stroke="none">0x00A00000</text>
      <text x="681.4834" xml:space="preserve" y="809.7819" clip-path="url(#clipPath2)" stroke="none">+10 MiB</text>
      <path fill="none" d="M661.4088 784.8022 L661.4003 830.1508" clip-path="url(#clipPath2)"/>
      <path fill="none" stroke-dasharray="6,2" d="M698.8022 851.188 L698.8114 944.8138" clip-path="url(#clipPath2)"/>
      <path fill="none" stroke-dasharray="6,2" d="M843.1295 851.188 L843.1386 944.8138" clip-path="url(#clipPath2)"/>
      <path fill="none" d="M402.3756 851.188 L402.4112 784.8022" clip-path="url(#clipPath2)"/>
      <path fill="none" stroke-dasharray="6,2" d="M1131.7743 872.263 L1131.7743 923.7358" clip-path="url(#clipPath2)"/>
      <path fill="none" stroke-dasharray="6,2" d="M987.4152 944.8138 L987.4435 872.263" clip-path="url(#clipPath2)"/>
      <path fill="none" d="M575.6053 851.188 L575.6029 784.8022" clip-path="url(#clipPath2)"/>
      <path fill="none" d="M618.4891 851.188 L618.4868 814.0978" clip-path="url(#clipPath2)"/>
      <path fill="none" d="M495.8694 830.1271 L495.8763 784.8022" clip-path="url(#clipPath2)"/>
      <path fill="none" d="M530.0992 851.188 L530.0977 814.0978" clip-path="url(#clipPath2)"/>
      <path fill="none" d="M445.9955 830.0579 L445.9967 814.0978" clip-path="url(#clipPath2)"/>
      <path fill="none" d="M698.8022 851.188 L698.8022 814.0978" clip-path="url(#clipPath2)"/>
    </g>
  </g>
</svg>
