<?xml version="1.0" encoding="UTF-8"?><svg xmlns="http://www.w3.org/2000/svg" xmlns:xlink="http://www.w3.org/1999/xlink" fill-opacity="1" color-rendering="auto" color-interpolation="auto" text-rendering="auto" stroke="black" stroke-linecap="square" width="764" stroke-miterlimit="10" shape-rendering="auto" stroke-opacity="1" fill="black" stroke-dasharray="none" font-weight="normal" stroke-width="1" height="366" font-family="'Dialog'" font-style="normal" stroke-linejoin="miter" font-size="12px" stroke-dashoffset="0" image-rendering="auto">
  <!--Generated by ySVG 2.5-->
  <defs id="genericDefs"/>
  <g>
    <defs id="defs1">
      <clipPath clipPathUnits="userSpaceOnUse" id="clipPath1">
        <path d="M0 0 L764 0 L764 366 L0 366 L0 0 Z"/>
      </clipPath>
      <clipPath clipPathUnits="userSpaceOnUse" id="clipPath2">
        <path d="M313 828 L1077 828 L1077 1194 L313 1194 L313 828 Z"/>
      </clipPath>
      <clipPath clipPathUnits="userSpaceOnUse" id="clipPath3">
        <path d="M301.4607 -15.744 L301.4607 748.256 L-64.5393 748.256 L-64.5393 -15.744 L301.4607 -15.744 Z"/>
      </clipPath>
      <clipPath clipPathUnits="userSpaceOnUse" id="clipPath4">
        <path d="M141.9221 -15.744 L141.9221 748.256 L-224.0779 748.256 L-224.0779 -15.744 L141.9221 -15.744 Z"/>
      </clipPath>
      <clipPath clipPathUnits="userSpaceOnUse" id="clipPath5">
        <path d="M134.6848 -37.378 L134.6848 726.622 L-231.3152 726.622 L-231.3152 -37.378 L134.6848 -37.378 Z"/>
      </clipPath>
    </defs>
    <g fill="rgb(248,248,248)" text-rendering="geometricPrecision" shape-rendering="geometricPrecision" transform="matrix(1,0,0,1,-313,-828)" stroke="rgb(248,248,248)">
      <rect x="313.744" y="828.0845" clip-path="url(#clipPath2)" width="762.7682" rx="4" ry="4" height="365.4315" stroke="none"/>
    </g>
    <g font-size="15px" stroke-linecap="butt" transform="matrix(1,0,0,1,-313,-828)" text-rendering="geometricPrecision" font-family="'Carlito'" shape-rendering="geometricPrecision" stroke-miterlimit="1.45">
      <text x="369.0356" xml:space="preserve" y="847.3345" clip-path="url(#clipPath2)" stroke="none">KSZ9563 Plug-in Evaluation Board (EVB-KSZ9563) on SAMA5D3 Ethernet Development System (DM320114)</text>
      <text x="574.9267" xml:space="preserve" y="862.3345" clip-path="url(#clipPath2)" stroke="none">SD Card (at least 1 GiB) Memory Layout</text>
      <text x="965.6636" font-size="10px" y="1188.016" clip-path="url(#clipPath2)" fill="silver" stroke="none" xml:space="preserve">© 2021 Tano Systems LLC</text>
    </g>
    <g stroke-linecap="butt" transform="matrix(1,0,0,1,-313,-828)" fill="silver" text-rendering="geometricPrecision" shape-rendering="geometricPrecision" stroke="silver" stroke-miterlimit="1.45">
      <rect x="313.744" y="828.0845" clip-path="url(#clipPath2)" fill="none" width="762.7682" rx="4" ry="4" height="365.4315"/>
      <rect stroke-linecap="square" x="348.744" y="1031.3858" clip-path="url(#clipPath2)" width="712.7682" rx="4" ry="4" height="119.1302" stroke="none" stroke-miterlimit="10"/>
      <rect x="348.744" y="1031.3858" clip-path="url(#clipPath2)" fill="none" width="712.7682" rx="4" ry="4" height="119.1302" stroke-width="7"/>
    </g>
    <g text-rendering="geometricPrecision" stroke-miterlimit="1.45" shape-rendering="geometricPrecision" font-family="'Carlito'" transform="matrix(-0,-1,1,-0,15.744,301.4607)" stroke-linecap="butt">
      <text x="2" xml:space="preserve" y="11" clip-path="url(#clipPath3)" stroke="none">MBR Partitions</text>
    </g>
    <g transform="matrix(1,0,0,1,-313,-828)" fill-opacity="0.6275" fill="rgb(255,255,255)" text-rendering="geometricPrecision" shape-rendering="geometricPrecision" stroke="rgb(255,255,255)" stroke-opacity="0.6275">
      <rect x="767.428" y="1031.3858" clip-path="url(#clipPath2)" width="294.0841" rx="4" ry="4" height="119.1302" stroke="none"/>
    </g>
    <g stroke-linecap="butt" transform="matrix(1,0,0,1,-313,-828)" fill="rgb(153,153,153)" text-rendering="geometricPrecision" shape-rendering="geometricPrecision" stroke="rgb(153,153,153)" stroke-miterlimit="1.45">
      <rect x="767.428" y="1031.3858" clip-path="url(#clipPath2)" fill="none" width="294.0841" rx="4" ry="4" height="119.1302"/>
    </g>
    <g font-size="10px" stroke-linecap="butt" transform="matrix(1,0,0,1,-313,-828)" text-rendering="geometricPrecision" font-family="'Carlito'" shape-rendering="geometricPrecision" stroke-miterlimit="1.45">
      <text x="804.6597" xml:space="preserve" y="1022.8858" clip-path="url(#clipPath2)" stroke="none">Extended Partition 4</text>
      <text x="890.6249" xml:space="preserve" y="1164.016" clip-path="url(#clipPath2)" stroke="none">mmcblk1p4</text>
    </g>
    <g fill="silver" text-rendering="geometricPrecision" shape-rendering="geometricPrecision" transform="matrix(1,0,0,1,-313,-828)" stroke="silver">
      <rect x="348.744" y="924.12" clip-path="url(#clipPath2)" width="712.7682" rx="4" ry="4" height="49.36" stroke="none"/>
      <rect stroke-linecap="butt" x="348.744" y="924.12" clip-path="url(#clipPath2)" fill="none" width="712.7682" rx="4" ry="4" height="49.36" stroke-width="7" stroke-miterlimit="1.45"/>
    </g>
    <g text-rendering="geometricPrecision" stroke-miterlimit="1.45" shape-rendering="geometricPrecision" font-family="'Carlito'" transform="matrix(-0,-1,1,-0,15.744,141.9221)" stroke-linecap="butt">
      <text x="2" xml:space="preserve" y="11" clip-path="url(#clipPath4)" stroke="none">SD Card</text>
    </g>
    <g fill="rgb(158,255,0)" text-rendering="geometricPrecision" shape-rendering="geometricPrecision" transform="matrix(1,0,0,1,-313,-828)" stroke="rgb(158,255,0)">
      <rect x="389.48" y="924.12" clip-path="url(#clipPath2)" width="65.68" rx="4" ry="4" height="49.36" stroke="none"/>
    </g>
    <g text-rendering="geometricPrecision" stroke-miterlimit="1.45" shape-rendering="geometricPrecision" transform="matrix(1,0,0,1,-313,-828)" stroke-linecap="butt">
      <rect x="389.48" y="924.12" clip-path="url(#clipPath2)" fill="none" width="65.68" rx="4" ry="4" height="49.36"/>
      <text x="407.2809" font-size="10px" y="941.3" clip-path="url(#clipPath2)" font-family="'Carlito'" stroke="none" xml:space="preserve">Startup</text>
      <text x="410.716" font-size="10px" y="951.3" clip-path="url(#clipPath2)" font-family="'Carlito'" stroke="none" xml:space="preserve">Script</text>
      <text x="404.09" font-size="10px" y="961.3" clip-path="url(#clipPath2)" font-family="'Carlito'" stroke="none" xml:space="preserve">(256 KiB)</text>
      <text x="412.2639" font-size="10px" y="986.98" clip-path="url(#clipPath2)" font-family="'Carlito'" stroke="none" xml:space="preserve">RAW</text>
    </g>
    <g fill="rgb(158,255,0)" text-rendering="geometricPrecision" shape-rendering="geometricPrecision" transform="matrix(1,0,0,1,-313,-828)" stroke="rgb(158,255,0)">
      <rect x="455.16" y="924.12" clip-path="url(#clipPath2)" width="65.68" rx="4" ry="4" height="49.36" stroke="none"/>
    </g>
    <g text-rendering="geometricPrecision" stroke-miterlimit="1.45" shape-rendering="geometricPrecision" transform="matrix(1,0,0,1,-313,-828)" stroke-linecap="butt">
      <rect x="455.16" y="924.12" clip-path="url(#clipPath2)" fill="none" width="65.68" rx="4" ry="4" height="49.36"/>
      <text x="473.5933" font-size="10px" y="941.3" clip-path="url(#clipPath2)" font-family="'Carlito'" stroke="none" xml:space="preserve">U-Boot</text>
      <text x="461.7354" font-size="10px" y="951.3" clip-path="url(#clipPath2)" font-family="'Carlito'" stroke="none" xml:space="preserve">Environment</text>
      <text x="462.8096" font-size="10px" y="961.3" clip-path="url(#clipPath2)" font-family="'Carlito'" stroke="none" xml:space="preserve">(2 x 128 KiB)</text>
      <text x="477.9438" font-size="10px" y="986.98" clip-path="url(#clipPath2)" font-family="'Carlito'" stroke="none" xml:space="preserve">RAW</text>
    </g>
    <g fill="rgb(153,204,255)" text-rendering="geometricPrecision" shape-rendering="geometricPrecision" transform="matrix(1,0,0,1,-313,-828)" stroke="rgb(153,204,255)">
      <rect x="500.6276" width="57.4824" height="22" y="881.0845" clip-path="url(#clipPath2)" stroke="none"/>
    </g>
    <g font-size="9px" stroke-linecap="butt" transform="matrix(1,0,0,1,-313,-828)" text-rendering="geometricPrecision" font-family="'Consolas'" shape-rendering="geometricPrecision" stroke-miterlimit="1.45">
      <text x="504.6276" xml:space="preserve" y="889.7686" clip-path="url(#clipPath2)" stroke="none">0x00100000</text>
      <text x="514.524" xml:space="preserve" y="898.7686" clip-path="url(#clipPath2)" stroke="none">+1 MiB</text>
    </g>
    <g fill="rgb(153,204,255)" text-rendering="geometricPrecision" shape-rendering="geometricPrecision" transform="matrix(1,0,0,1,-313,-828)" stroke="rgb(153,204,255)">
      <rect x="360.7388" width="57.4824" height="22" y="881.0845" clip-path="url(#clipPath2)" stroke="none"/>
    </g>
    <g font-size="9px" stroke-linecap="butt" transform="matrix(1,0,0,1,-313,-828)" text-rendering="geometricPrecision" font-family="'Consolas'" shape-rendering="geometricPrecision" stroke-miterlimit="1.45">
      <text x="364.7388" xml:space="preserve" y="889.7686" clip-path="url(#clipPath2)" stroke="none">0x00040000</text>
      <text x="369.687" xml:space="preserve" y="898.7686" clip-path="url(#clipPath2)" stroke="none">+256 KiB</text>
    </g>
    <g fill="rgb(153,204,255)" text-rendering="geometricPrecision" shape-rendering="geometricPrecision" transform="matrix(1,0,0,1,-313,-828)" stroke="rgb(153,204,255)">
      <rect x="426.4331" width="57.4824" height="22" y="881.0845" clip-path="url(#clipPath2)" stroke="none"/>
    </g>
    <g font-size="9px" stroke-linecap="butt" transform="matrix(1,0,0,1,-313,-828)" text-rendering="geometricPrecision" font-family="'Consolas'" shape-rendering="geometricPrecision" stroke-miterlimit="1.45">
      <text x="430.4331" xml:space="preserve" y="889.7686" clip-path="url(#clipPath2)" stroke="none">0x00080000</text>
      <text x="435.3813" xml:space="preserve" y="898.7686" clip-path="url(#clipPath2)" stroke="none">+512 KiB</text>
    </g>
    <g fill="rgb(0,204,255)" text-rendering="geometricPrecision" shape-rendering="geometricPrecision" transform="matrix(1,0,0,1,-313,-828)" stroke="rgb(0,204,255)">
      <rect x="348.744" y="924.12" clip-path="url(#clipPath2)" width="23.268" rx="4" ry="4" height="49.36" stroke="none"/>
    </g>
    <g text-rendering="geometricPrecision" stroke-miterlimit="1.45" shape-rendering="geometricPrecision" transform="matrix(1,0,0,1,-313,-828)" stroke-linecap="butt">
      <rect x="348.744" y="924.12" clip-path="url(#clipPath2)" fill="none" width="23.268" rx="4" ry="4" height="49.36"/>
    </g>
    <g font-size="8px" stroke-linecap="butt" transform="matrix(-0,-1,1,-0,37.378,134.6848)" text-rendering="geometricPrecision" font-family="'Carlito'" shape-rendering="geometricPrecision" stroke-miterlimit="1.45">
      <text x="6.1172" xml:space="preserve" y="8" clip-path="url(#clipPath5)" stroke="none">MBR</text>
      <text x="2" xml:space="preserve" y="16" clip-path="url(#clipPath5)" stroke="none">Header</text>
    </g>
    <g fill="rgb(255,153,153)" text-rendering="geometricPrecision" shape-rendering="geometricPrecision" transform="matrix(1,0,0,1,-313,-828)" stroke="rgb(255,153,153)">
      <rect x="529.405" y="1031.3858" clip-path="url(#clipPath2)" width="93.6959" rx="4" ry="4" height="119.1302" stroke="none"/>
    </g>
    <g text-rendering="geometricPrecision" stroke-miterlimit="1.45" shape-rendering="geometricPrecision" transform="matrix(1,0,0,1,-313,-828)" stroke-linecap="butt">
      <rect x="529.405" y="1031.3858" clip-path="url(#clipPath2)" fill="none" width="93.6959" rx="4" ry="4" height="119.1302"/>
      <text x="539.3682" font-size="10px" y="1073.4509" clip-path="url(#clipPath2)" font-family="'Carlito'" stroke="none" xml:space="preserve">FAT Filesystem:</text>
      <text x="539.3682" font-size="10px" y="1083.4509" clip-path="url(#clipPath2)" font-family="'Carlito'" stroke="none" xml:space="preserve">• boot.bin</text>
      <text x="539.3682" font-size="10px" y="1093.4509" clip-path="url(#clipPath2)" font-family="'Carlito'" stroke="none" xml:space="preserve">   (AT91Bootstrap)</text>
      <text x="539.3682" font-size="10px" y="1103.4509" clip-path="url(#clipPath2)" font-family="'Carlito'" stroke="none" xml:space="preserve">• u-boot.bin</text>
      <text x="539.3682" font-size="10px" y="1113.4509" clip-path="url(#clipPath2)" font-family="'Carlito'" stroke="none" xml:space="preserve">   (U-Boot Image)</text>
      <text x="560.3838" font-size="10px" y="1002.8858" clip-path="url(#clipPath2)" font-family="'Carlito'" stroke="none" xml:space="preserve">Primary</text>
      <text x="554.959" font-size="10px" y="1012.8858" clip-path="url(#clipPath2)" font-family="'Carlito'" stroke="none" xml:space="preserve">Partition 1</text>
      <text x="563.6455" font-size="10px" y="1022.8858" clip-path="url(#clipPath2)" font-family="'Carlito'" stroke="none" xml:space="preserve">(boot)</text>
      <text x="552.4077" font-size="10px" y="1164.016" clip-path="url(#clipPath2)" font-family="'Carlito'" stroke="none" xml:space="preserve">mmcblk1p1</text>
      <text x="568.3989" font-size="10px" y="1174.016" clip-path="url(#clipPath2)" font-family="'Carlito'" stroke="none" xml:space="preserve">vfat</text>
    </g>
    <g fill="rgb(255,214,214)" text-rendering="geometricPrecision" shape-rendering="geometricPrecision" transform="matrix(1,0,0,1,-313,-828)" stroke="rgb(255,214,214)">
      <rect x="529.405" y="924.12" clip-path="url(#clipPath2)" width="93.6959" rx="4" ry="4" height="49.36" stroke="none"/>
    </g>
    <g text-rendering="geometricPrecision" stroke-miterlimit="1.45" shape-rendering="geometricPrecision" transform="matrix(1,0,0,1,-313,-828)" stroke-linecap="butt">
      <rect x="529.405" y="924.12" clip-path="url(#clipPath2)" fill="none" width="93.6959" rx="4" ry="4" height="49.36"/>
      <text x="547.8252" font-size="10px" y="951.3" clip-path="url(#clipPath2)" font-family="'Carlito'" stroke="none" xml:space="preserve">Boot Partition</text>
    </g>
    <g fill="rgb(255,255,153)" text-rendering="geometricPrecision" shape-rendering="geometricPrecision" transform="matrix(1,0,0,1,-313,-828)" stroke="rgb(255,255,153)">
      <rect x="623.1008" y="1031.3858" clip-path="url(#clipPath2)" width="65.68" rx="4" ry="4" height="119.1302" stroke="none"/>
    </g>
    <g text-rendering="geometricPrecision" stroke-miterlimit="1.45" shape-rendering="geometricPrecision" transform="matrix(1,0,0,1,-313,-828)" stroke-linecap="butt">
      <rect x="623.1008" y="1031.3858" clip-path="url(#clipPath2)" fill="none" width="65.68" rx="4" ry="4" height="119.1302"/>
      <text x="636.3266" font-size="10px" y="1078.4509" clip-path="url(#clipPath2)" font-family="'Carlito'" stroke="none" xml:space="preserve">FIT Image</text>
      <text x="642.85" font-size="10px" y="1088.4509" clip-path="url(#clipPath2)" font-family="'Carlito'" stroke="none" xml:space="preserve">Kernel</text>
      <text x="631.4145" font-size="10px" y="1098.4509" clip-path="url(#clipPath2)" font-family="'Carlito'" stroke="none" xml:space="preserve">DTB + DTBO</text>
      <text x="638.5678" font-size="10px" y="1108.4509" clip-path="url(#clipPath2)" font-family="'Carlito'" stroke="none" xml:space="preserve">(64 MiB)</text>
      <text x="640.0717" font-size="10px" y="1002.8858" clip-path="url(#clipPath2)" font-family="'Carlito'" stroke="none" xml:space="preserve">Primary</text>
      <text x="634.6469" font-size="10px" y="1012.8858" clip-path="url(#clipPath2)" font-family="'Carlito'" stroke="none" xml:space="preserve">Partition 2</text>
      <text x="635.2573" font-size="10px" y="1022.8858" clip-path="url(#clipPath2)" font-family="'Carlito'" stroke="none" xml:space="preserve">(kernel_a)</text>
      <text x="632.0956" font-size="10px" y="1164.016" clip-path="url(#clipPath2)" font-family="'Carlito'" stroke="none" xml:space="preserve">mmcblk1p2</text>
      <text x="647.0786" font-size="10px" y="1174.016" clip-path="url(#clipPath2)" font-family="'Carlito'" stroke="none" xml:space="preserve">ext4</text>
    </g>
    <g fill="rgb(153,204,255)" text-rendering="geometricPrecision" shape-rendering="geometricPrecision" transform="matrix(1,0,0,1,-313,-828)" stroke="rgb(153,204,255)">
      <rect x="776.174" y="1071.5778" clip-path="url(#clipPath2)" width="65.68" rx="4" ry="4" height="49.36" stroke="none"/>
    </g>
    <g text-rendering="geometricPrecision" stroke-miterlimit="1.45" shape-rendering="geometricPrecision" transform="matrix(1,0,0,1,-313,-828)" stroke-linecap="butt">
      <rect x="776.174" y="1071.5778" clip-path="url(#clipPath2)" fill="none" width="65.68" rx="4" ry="4" height="49.36"/>
      <text x="789.3998" font-size="10px" y="1083.7578" clip-path="url(#clipPath2)" font-family="'Carlito'" stroke="none" xml:space="preserve">FIT Image</text>
      <text x="795.9232" font-size="10px" y="1093.7578" clip-path="url(#clipPath2)" font-family="'Carlito'" stroke="none" xml:space="preserve">Kernel</text>
      <text x="784.4877" font-size="10px" y="1103.7578" clip-path="url(#clipPath2)" font-family="'Carlito'" stroke="none" xml:space="preserve">DTB + DTBO</text>
      <text x="791.641" font-size="10px" y="1113.7578" clip-path="url(#clipPath2)" font-family="'Carlito'" stroke="none" xml:space="preserve">(64 MiB)</text>
    </g>
    <g stroke-linecap="butt" font-size="9px" transform="matrix(1,0,0,1,-313,-828)" fill="rgb(80,80,80)" text-rendering="geometricPrecision" font-family="'Carlito'" shape-rendering="geometricPrecision" stroke="rgb(80,80,80)" stroke-miterlimit="1.45">
      <text x="796.5072" xml:space="preserve" y="1047.3278" clip-path="url(#clipPath2)" stroke="none">Logical</text>
      <text x="789.8495" xml:space="preserve" y="1056.3278" clip-path="url(#clipPath2)" stroke="none">Partition 5</text>
      <text x="790.1901" xml:space="preserve" y="1065.3278" clip-path="url(#clipPath2)" stroke="none">(kernel_b)</text>
      <text x="787.5533" xml:space="preserve" y="1131.6877" clip-path="url(#clipPath2)" stroke="none">mmcblk1p5</text>
      <text x="801.038" xml:space="preserve" y="1140.6877" clip-path="url(#clipPath2)" stroke="none">ext4</text>
    </g>
    <g fill="rgb(255,255,153)" text-rendering="geometricPrecision" shape-rendering="geometricPrecision" transform="matrix(1,0,0,1,-313,-828)" stroke="rgb(255,255,153)">
      <rect x="688.7808" y="1031.3858" clip-path="url(#clipPath2)" width="78.6472" rx="4" ry="4" height="119.1302" stroke="none"/>
    </g>
    <g text-rendering="geometricPrecision" stroke-miterlimit="1.45" shape-rendering="geometricPrecision" transform="matrix(1,0,0,1,-313,-828)" stroke-linecap="butt">
      <rect x="688.7808" y="1031.3858" clip-path="url(#clipPath2)" fill="none" width="78.6472" rx="4" ry="4" height="119.1302"/>
      <text x="707.0009" font-size="10px" y="1083.4509" clip-path="url(#clipPath2)" font-family="'Carlito'" stroke="none" xml:space="preserve">Read-Only</text>
      <text x="694.4277" font-size="10px" y="1093.4509" clip-path="url(#clipPath2)" font-family="'Carlito'" stroke="none" xml:space="preserve">Root File System</text>
      <text x="708.1972" font-size="10px" y="1103.4509" clip-path="url(#clipPath2)" font-family="'Carlito'" stroke="none" xml:space="preserve">(384 MiB)</text>
      <text x="712.2353" font-size="10px" y="1002.8858" clip-path="url(#clipPath2)" font-family="'Carlito'" stroke="none" xml:space="preserve">Primary</text>
      <text x="706.8105" font-size="10px" y="1012.8858" clip-path="url(#clipPath2)" font-family="'Carlito'" stroke="none" xml:space="preserve">Partition 3</text>
      <text x="708.0141" font-size="10px" y="1022.8858" clip-path="url(#clipPath2)" font-family="'Carlito'" stroke="none" xml:space="preserve">(rootfs_a)</text>
      <text x="704.2592" font-size="10px" y="1164.016" clip-path="url(#clipPath2)" font-family="'Carlito'" stroke="none" xml:space="preserve">mmcblk1p3</text>
      <text x="710.436" font-size="10px" y="1174.016" clip-path="url(#clipPath2)" font-family="'Carlito'" stroke="none" xml:space="preserve">squashfs</text>
    </g>
    <g fill="rgb(153,204,255)" text-rendering="geometricPrecision" shape-rendering="geometricPrecision" transform="matrix(1,0,0,1,-313,-828)" stroke="rgb(153,204,255)">
      <rect x="841.854" y="1071.5778" clip-path="url(#clipPath2)" width="78.6472" rx="4" ry="4" height="49.36" stroke="none"/>
    </g>
    <g text-rendering="geometricPrecision" stroke-miterlimit="1.45" shape-rendering="geometricPrecision" transform="matrix(1,0,0,1,-313,-828)" stroke-linecap="butt">
      <rect x="841.854" y="1071.5778" clip-path="url(#clipPath2)" fill="none" width="78.6472" rx="4" ry="4" height="49.36"/>
      <text x="860.0741" font-size="10px" y="1088.7578" clip-path="url(#clipPath2)" font-family="'Carlito'" stroke="none" xml:space="preserve">Read-Only</text>
      <text x="847.5009" font-size="10px" y="1098.7578" clip-path="url(#clipPath2)" font-family="'Carlito'" stroke="none" xml:space="preserve">Root File System</text>
      <text x="861.2704" font-size="10px" y="1108.7578" clip-path="url(#clipPath2)" font-family="'Carlito'" stroke="none" xml:space="preserve">(384 MiB)</text>
    </g>
    <g stroke-linecap="butt" font-size="9px" transform="matrix(1,0,0,1,-313,-828)" fill="rgb(80,80,80)" text-rendering="geometricPrecision" font-family="'Carlito'" shape-rendering="geometricPrecision" stroke="rgb(80,80,80)" stroke-miterlimit="1.45">
      <text x="868.6708" xml:space="preserve" y="1047.3278" clip-path="url(#clipPath2)" stroke="none">Logical</text>
      <text x="862.0131" xml:space="preserve" y="1056.3278" clip-path="url(#clipPath2)" stroke="none">Partition 6</text>
      <text x="862.8876" xml:space="preserve" y="1065.3278" clip-path="url(#clipPath2)" stroke="none">(rootfs_b)</text>
      <text x="859.7169" xml:space="preserve" y="1131.6877" clip-path="url(#clipPath2)" stroke="none">mmcblk1p6</text>
      <text x="865.276" xml:space="preserve" y="1140.6877" clip-path="url(#clipPath2)" stroke="none">squashfs</text>
    </g>
    <g fill="rgb(255,255,229)" text-rendering="geometricPrecision" shape-rendering="geometricPrecision" transform="matrix(1,0,0,1,-313,-828)" stroke="rgb(255,255,229)">
      <rect x="623.1008" y="924.12" clip-path="url(#clipPath2)" width="144.3272" rx="4" ry="4" height="49.36" stroke="none"/>
    </g>
    <g text-rendering="geometricPrecision" stroke-miterlimit="1.45" shape-rendering="geometricPrecision" transform="matrix(1,0,0,1,-313,-828)" stroke-linecap="butt">
      <rect x="623.1008" y="924.12" clip-path="url(#clipPath2)" fill="none" width="144.3272" rx="4" ry="4" height="49.36"/>
      <text x="676.5682" font-size="10px" y="941.3" clip-path="url(#clipPath2)" font-family="'Carlito'" stroke="none" xml:space="preserve">System A</text>
      <text x="638.5872" font-size="10px" y="951.3" clip-path="url(#clipPath2)" font-family="'Carlito'" stroke="none" xml:space="preserve">Kernel and Root File System</text>
      <text x="675.3572" font-size="10px" y="961.3" clip-path="url(#clipPath2)" font-family="'Carlito'" stroke="none" xml:space="preserve">(448 MiB)</text>
    </g>
    <g fill="rgb(229,242,255)" text-rendering="geometricPrecision" shape-rendering="geometricPrecision" transform="matrix(1,0,0,1,-313,-828)" stroke="rgb(229,242,255)">
      <rect x="776.174" y="924.12" clip-path="url(#clipPath2)" width="144.3272" rx="4" ry="4" height="49.36" stroke="none"/>
    </g>
    <g text-rendering="geometricPrecision" stroke-miterlimit="1.45" shape-rendering="geometricPrecision" transform="matrix(1,0,0,1,-313,-828)" stroke-linecap="butt">
      <rect x="776.174" y="924.12" clip-path="url(#clipPath2)" fill="none" width="144.3272" rx="4" ry="4" height="49.36"/>
      <text x="829.8147" font-size="10px" y="941.3" clip-path="url(#clipPath2)" font-family="'Carlito'" stroke="none" xml:space="preserve">System B</text>
      <text x="791.6604" font-size="10px" y="951.3" clip-path="url(#clipPath2)" font-family="'Carlito'" stroke="none" xml:space="preserve">Kernel and Root File System</text>
      <text x="828.4304" font-size="10px" y="961.3" clip-path="url(#clipPath2)" font-family="'Carlito'" stroke="none" xml:space="preserve">(448 MiB)</text>
    </g>
    <g fill="rgb(242,229,255)" text-rendering="geometricPrecision" shape-rendering="geometricPrecision" transform="matrix(1,0,0,1,-313,-828)" stroke="rgb(242,229,255)">
      <rect x="920.5012" y="924.12" clip-path="url(#clipPath2)" width="132.1636" rx="4" ry="4" height="49.36" stroke="none"/>
    </g>
    <g text-rendering="geometricPrecision" stroke-miterlimit="1.45" shape-rendering="geometricPrecision" transform="matrix(1,0,0,1,-313,-828)" stroke-linecap="butt">
      <rect x="920.5012" y="924.12" clip-path="url(#clipPath2)" fill="none" width="132.1636" rx="4" ry="4" height="49.36"/>
      <text x="966.5171" font-size="10px" y="946.3" clip-path="url(#clipPath2)" font-family="'Carlito'" stroke="none" xml:space="preserve">User Data</text>
      <text x="937.645" font-size="10px" y="956.3" clip-path="url(#clipPath2)" font-family="'Carlito'" stroke="none" xml:space="preserve">(all available free space)</text>
    </g>
    <g fill="rgb(204,153,255)" text-rendering="geometricPrecision" shape-rendering="geometricPrecision" transform="matrix(1,0,0,1,-313,-828)" stroke="rgb(204,153,255)">
      <rect x="920.5012" y="1071.5778" clip-path="url(#clipPath2)" width="132.1636" rx="4" ry="4" height="49.36" stroke="none"/>
    </g>
    <g text-rendering="geometricPrecision" stroke-miterlimit="1.45" shape-rendering="geometricPrecision" transform="matrix(1,0,0,1,-313,-828)" stroke-linecap="butt">
      <rect x="920.5012" y="1071.5778" clip-path="url(#clipPath2)" fill="none" width="132.1636" rx="4" ry="4" height="49.36"/>
      <text x="966.5171" font-size="10px" y="1088.7578" clip-path="url(#clipPath2)" font-family="'Carlito'" stroke="none" xml:space="preserve">User Data</text>
      <text x="946.9639" font-size="10px" y="1098.7578" clip-path="url(#clipPath2)" font-family="'Carlito'" stroke="none" xml:space="preserve">Overlay File System</text>
      <text x="937.645" font-size="10px" y="1108.7578" clip-path="url(#clipPath2)" font-family="'Carlito'" stroke="none" xml:space="preserve">(all available free space)</text>
    </g>
    <g stroke-linecap="butt" font-size="9px" transform="matrix(1,0,0,1,-313,-828)" fill="rgb(80,80,80)" text-rendering="geometricPrecision" font-family="'Carlito'" shape-rendering="geometricPrecision" stroke="rgb(80,80,80)" stroke-miterlimit="1.45">
      <text x="974.0762" xml:space="preserve" y="1047.3278" clip-path="url(#clipPath2)" stroke="none">Logical</text>
      <text x="967.4185" xml:space="preserve" y="1056.3278" clip-path="url(#clipPath2)" stroke="none">Partition 7</text>
      <text x="962.4746" xml:space="preserve" y="1065.3278" clip-path="url(#clipPath2)" stroke="none">(rootfs_data)</text>
      <text x="965.1223" xml:space="preserve" y="1131.6877" clip-path="url(#clipPath2)" stroke="none">mmcblk1p7</text>
      <text x="978.6069" xml:space="preserve" y="1140.6877" clip-path="url(#clipPath2)" stroke="none">ext4</text>
    </g>
    <g text-rendering="geometricPrecision" stroke-miterlimit="1.45" shape-rendering="geometricPrecision" transform="matrix(1,0,0,1,-313,-828)" stroke-linecap="butt">
      <path fill="none" d="M389.5056 927.6896 L389.4839 903.0845" clip-path="url(#clipPath2)"/>
      <path fill="none" d="M455.1743 927.7876 L455.1743 903.0845" clip-path="url(#clipPath2)"/>
      <path fill="none" d="M529.381 948.8 L529.3699 903.0845" clip-path="url(#clipPath2)"/>
      <path fill="none" stroke-dasharray="6,2" d="M529.4255 969.8658 L529.4255 1034.9905" clip-path="url(#clipPath2)"/>
      <path fill="none" stroke-dasharray="6,2" d="M623.0905 948.8 L623.0996 1090.9509" clip-path="url(#clipPath2)"/>
      <path fill="none" stroke-dasharray="6,2" d="M767.4384 948.8 L767.4573 1090.9509" clip-path="url(#clipPath2)"/>
      <path fill="none" stroke-dasharray="6,2" d="M776.1636 948.8 L776.1728 1096.2578" clip-path="url(#clipPath2)"/>
      <path fill="none" stroke-dasharray="6,2" d="M1052.6466 969.8602 L1052.6466 1075.1813" clip-path="url(#clipPath2)"/>
      <path fill="none" stroke-dasharray="6,2" d="M920.4944 948.8 L920.4944 1096.2578" clip-path="url(#clipPath2)"/>
    </g>
  </g>
</svg>
