<?xml version="1.0" encoding="UTF-8"?><svg xmlns="http://www.w3.org/2000/svg" xmlns:xlink="http://www.w3.org/1999/xlink" fill-opacity="1" color-rendering="auto" color-interpolation="auto" text-rendering="auto" stroke="black" stroke-linecap="square" width="838" stroke-miterlimit="10" shape-rendering="auto" stroke-opacity="1" fill="black" stroke-dasharray="none" font-weight="normal" stroke-width="1" height="311" font-family="'Dialog'" font-style="normal" stroke-linejoin="miter" font-size="12px" stroke-dashoffset="0" image-rendering="auto">
  <!--Generated by ySVG 2.5-->
  <defs id="genericDefs"/>
  <g>
    <defs id="defs1">
      <clipPath clipPathUnits="userSpaceOnUse" id="clipPath1">
        <path d="M0 0 L838 0 L838 311 L0 311 L0 0 Z"/>
      </clipPath>
      <clipPath clipPathUnits="userSpaceOnUse" id="clipPath2">
        <path d="M302 706 L1140 706 L1140 1017 L302 1017 L302 706 Z"/>
      </clipPath>
      <clipPath clipPathUnits="userSpaceOnUse" id="clipPath3">
        <path d="M264.3158 -15.1328 L264.3158 822.8672 L-46.6842 822.8672 L-46.6842 -15.1328 L264.3158 -15.1328 Z"/>
      </clipPath>
      <clipPath clipPathUnits="userSpaceOnUse" id="clipPath4">
        <path d="M166.3101 -27.1328 L166.3101 810.8672 L-144.6899 810.8672 L-144.6899 -27.1328 L166.3101 -27.1328 Z"/>
      </clipPath>
      <clipPath clipPathUnits="userSpaceOnUse" id="clipPath5">
        <path d="M3.973 -136.6945 L596.5285 455.861 L376.6183 675.7712 L-215.9372 83.2157 L3.973 -136.6945 Z"/>
      </clipPath>
      <clipPath clipPathUnits="userSpaceOnUse" id="clipPath6">
        <path d="M-23.6372 -164.3048 L568.9183 428.2507 L349.0081 648.1609 L-243.5474 55.6054 L-23.6372 -164.3048 Z"/>
      </clipPath>
      <clipPath clipPathUnits="userSpaceOnUse" id="clipPath7">
        <path d="M-71.1457 -211.8133 L521.4097 380.7422 L301.4995 600.6524 L-291.056 8.0969 L-71.1457 -211.8133 Z"/>
      </clipPath>
      <clipPath clipPathUnits="userSpaceOnUse" id="clipPath8">
        <path d="M-164.9828 -305.6503 L427.5727 286.9052 L207.6625 506.8154 L-384.893 -85.7401 L-164.9828 -305.6503 Z"/>
      </clipPath>
      <clipPath clipPathUnits="userSpaceOnUse" id="clipPath9">
        <path d="M-104.2138 -244.8813 L488.3417 347.6741 L268.4315 567.5844 L-324.124 -24.9711 L-104.2138 -244.8813 Z"/>
      </clipPath>
      <clipPath clipPathUnits="userSpaceOnUse" id="clipPath10">
        <path d="M-134.0284 -274.696 L458.5271 317.8595 L238.6169 537.7697 L-353.9386 -54.7857 L-134.0284 -274.696 Z"/>
      </clipPath>
      <clipPath clipPathUnits="userSpaceOnUse" id="clipPath11">
        <path d="M161.7564 -72.0348 L161.7564 765.9652 L-149.2436 765.9652 L-149.2436 -72.0348 L161.7564 -72.0348 Z"/>
      </clipPath>
      <clipPath clipPathUnits="userSpaceOnUse" id="clipPath12">
        <path d="M163.8345 -48.7668 L163.8345 789.2332 L-147.1655 789.2332 L-147.1655 -48.7668 L163.8345 -48.7668 Z"/>
      </clipPath>
      <clipPath clipPathUnits="userSpaceOnUse" id="clipPath13">
        <path d="M164.1412 -801.004 L164.1412 36.9959 L-146.8588 36.9959 L-146.8588 -801.004 L164.1412 -801.004 Z"/>
      </clipPath>
    </defs>
    <g fill="rgb(248,248,248)" text-rendering="geometricPrecision" shape-rendering="geometricPrecision" transform="matrix(1,0,0,1,-302,-706)" stroke="rgb(248,248,248)">
      <rect x="302.1328" y="706.3653" clip-path="url(#clipPath2)" width="837.5053" rx="4" ry="4" height="310.1285" stroke="none"/>
    </g>
    <g font-size="15px" stroke-linecap="butt" transform="matrix(1,0,0,1,-302,-706)" text-rendering="geometricPrecision" font-family="'Carlito'" shape-rendering="geometricPrecision" stroke-miterlimit="1.45">
      <text x="676.1125" xml:space="preserve" y="725.6154" clip-path="url(#clipPath2)" stroke="none">am574x-idk-sd</text>
      <text x="584.4828" xml:space="preserve" y="740.6154" clip-path="url(#clipPath2)" stroke="none">TI AM574x IDK EVM SD Card Memory Layout</text>
      <text x="676.3212" xml:space="preserve" y="755.6154" clip-path="url(#clipPath2)" stroke="none">(at least 1 GiB)</text>
      <text x="913.8285" font-size="10px" y="1010.9938" clip-path="url(#clipPath2)" fill="silver" stroke="none" xml:space="preserve">© 2021 Tano Systems LLC | https://tano-systems.com</text>
    </g>
    <g stroke-linecap="butt" transform="matrix(1,0,0,1,-302,-706)" fill="silver" text-rendering="geometricPrecision" shape-rendering="geometricPrecision" stroke="silver" stroke-miterlimit="1.45">
      <rect x="302.1328" y="706.3653" clip-path="url(#clipPath2)" fill="none" width="837.5053" rx="4" ry="4" height="310.1285"/>
      <rect stroke-linecap="square" x="349.1328" y="920.1338" clip-path="url(#clipPath2)" width="775.5053" rx="4" ry="4" height="49.36" stroke="none" stroke-miterlimit="10"/>
      <rect x="349.1328" y="920.1338" clip-path="url(#clipPath2)" fill="none" width="775.5053" rx="4" ry="4" height="49.36" stroke-width="7"/>
    </g>
    <g text-rendering="geometricPrecision" stroke-miterlimit="1.45" shape-rendering="geometricPrecision" font-family="'Carlito'" transform="matrix(-0,-1,1,-0,15.1328,264.3158)" stroke-linecap="butt">
      <text x="15.6934" xml:space="preserve" y="11" clip-path="url(#clipPath3)" stroke="none">GPT</text>
      <text x="2" xml:space="preserve" y="23" clip-path="url(#clipPath3)" stroke="none">Partitions</text>
    </g>
    <g fill="silver" text-rendering="geometricPrecision" shape-rendering="geometricPrecision" transform="matrix(1,0,0,1,-302,-706)" stroke="silver">
      <rect x="349.1328" y="826.508" clip-path="url(#clipPath2)" width="775.5053" rx="4" ry="4" height="49.36" stroke="none"/>
      <rect stroke-linecap="butt" x="349.1328" y="826.508" clip-path="url(#clipPath2)" fill="none" width="775.5053" rx="4" ry="4" height="49.36" stroke-width="7" stroke-miterlimit="1.45"/>
    </g>
    <g text-rendering="geometricPrecision" stroke-miterlimit="1.45" shape-rendering="geometricPrecision" font-family="'Carlito'" transform="matrix(-0,-1,1,-0,27.1328,166.3101)" stroke-linecap="butt">
      <text x="2" xml:space="preserve" y="11" clip-path="url(#clipPath4)" stroke="none">SD Card</text>
    </g>
    <g stroke-linecap="butt" font-size="8px" transform="matrix(0.7071,-0.7071,0.7071,0.7071,93.8483,99.467)" fill="gray" text-rendering="geometricPrecision" font-family="'Consolas'" shape-rendering="geometricPrecision" stroke="gray" stroke-miterlimit="1.45">
      <text x="0" xml:space="preserve" y="5.9414" clip-path="url(#clipPath5)" stroke="none">0x00020000</text>
      <text x="0" xml:space="preserve" y="13.9414" clip-path="url(#clipPath5)" stroke="none">+128 KiB</text>
    </g>
    <g stroke-linecap="butt" font-size="8px" transform="matrix(0.7071,-0.7071,0.7071,0.7071,132.895,99.467)" fill="gray" text-rendering="geometricPrecision" font-family="'Consolas'" shape-rendering="geometricPrecision" stroke="gray" stroke-miterlimit="1.45">
      <text x="0" xml:space="preserve" y="5.9414" clip-path="url(#clipPath6)" stroke="none">0x00080000</text>
      <text x="0" xml:space="preserve" y="13.9414" clip-path="url(#clipPath6)" stroke="none">+512 KiB</text>
    </g>
    <g stroke-linecap="butt" font-size="8px" transform="matrix(0.7071,-0.7071,0.7071,0.7071,200.0823,99.467)" fill="gray" text-rendering="geometricPrecision" font-family="'Consolas'" shape-rendering="geometricPrecision" stroke="gray" stroke-miterlimit="1.45">
      <text x="0" xml:space="preserve" y="5.9414" clip-path="url(#clipPath7)" stroke="none">0x00280000</text>
      <text x="0" xml:space="preserve" y="13.9414" clip-path="url(#clipPath7)" stroke="none">+2.5 MiB</text>
    </g>
    <g stroke-linecap="butt" font-size="8px" transform="matrix(0.7071,-0.7071,0.7071,0.7071,332.7878,99.467)" fill="gray" text-rendering="geometricPrecision" font-family="'Consolas'" shape-rendering="geometricPrecision" stroke="gray" stroke-miterlimit="1.45">
      <text x="0" xml:space="preserve" y="5.9414" clip-path="url(#clipPath8)" stroke="none">0x00300000</text>
      <text x="0" xml:space="preserve" y="13.9414" clip-path="url(#clipPath8)" stroke="none">+3 MiB</text>
    </g>
    <g stroke-linecap="butt" font-size="8px" transform="matrix(0.7071,-0.7071,0.7071,0.7071,246.8475,99.467)" fill="gray" text-rendering="geometricPrecision" font-family="'Consolas'" shape-rendering="geometricPrecision" stroke="gray" stroke-miterlimit="1.45">
      <text x="0" xml:space="preserve" y="5.9414" clip-path="url(#clipPath9)" stroke="none">0x002c0000</text>
      <text x="0" xml:space="preserve" y="13.9414" clip-path="url(#clipPath9)" stroke="none">+2.75 MiB</text>
    </g>
    <g stroke-linecap="butt" font-size="8px" transform="matrix(0.7071,-0.7071,0.7071,0.7071,289.0118,99.467)" fill="gray" text-rendering="geometricPrecision" font-family="'Consolas'" shape-rendering="geometricPrecision" stroke="gray" stroke-miterlimit="1.45">
      <text x="0" xml:space="preserve" y="5.9414" clip-path="url(#clipPath10)" stroke="none">0x002e0000</text>
      <text x="0" xml:space="preserve" y="13.9414" clip-path="url(#clipPath10)" stroke="none">+2.875 MiB</text>
    </g>
    <g fill="rgb(255,153,153)" text-rendering="geometricPrecision" shape-rendering="geometricPrecision" transform="matrix(1,0,0,1,-302,-706)" stroke="rgb(255,153,153)">
      <rect x="404.5717" y="826.508" clip-path="url(#clipPath2)" width="43.8995" rx="4" ry="4" height="49.36" stroke="none"/>
    </g>
    <g text-rendering="geometricPrecision" stroke-miterlimit="1.45" shape-rendering="geometricPrecision" transform="matrix(1,0,0,1,-302,-706)" stroke-linecap="butt">
      <rect x="404.5717" y="826.508" clip-path="url(#clipPath2)" fill="none" width="43.8995" rx="4" ry="4" height="49.36"/>
      <text x="409.8735" font-size="10px" y="848.688" clip-path="url(#clipPath2)" font-family="'Carlito'" stroke="none" xml:space="preserve">3 x MLO</text>
      <text x="408.2915" font-size="10px" y="858.688" clip-path="url(#clipPath2)" font-family="'Carlito'" stroke="none" xml:space="preserve">(384 KiB)</text>
      <text x="416.4653" font-size="10px" y="889.368" clip-path="url(#clipPath2)" font-family="'Carlito'" stroke="none" xml:space="preserve">RAW</text>
    </g>
    <g fill="rgb(255,255,153)" text-rendering="geometricPrecision" shape-rendering="geometricPrecision" transform="matrix(1,0,0,1,-302,-706)" stroke="rgb(255,255,153)">
      <rect x="646.9521" y="920.1338" clip-path="url(#clipPath2)" width="65.68" rx="4" ry="4" height="49.36" stroke="none"/>
    </g>
    <g text-rendering="geometricPrecision" stroke-miterlimit="1.45" shape-rendering="geometricPrecision" transform="matrix(1,0,0,1,-302,-706)" stroke-linecap="butt">
      <rect x="646.9521" y="920.1338" clip-path="url(#clipPath2)" fill="none" width="65.68" rx="4" ry="4" height="49.36"/>
      <text x="660.1778" font-size="10px" y="932.3138" clip-path="url(#clipPath2)" font-family="'Carlito'" stroke="none" xml:space="preserve">FIT Image</text>
      <text x="666.7012" font-size="10px" y="942.3138" clip-path="url(#clipPath2)" font-family="'Carlito'" stroke="none" xml:space="preserve">Kernel</text>
      <text x="655.2657" font-size="10px" y="952.3138" clip-path="url(#clipPath2)" font-family="'Carlito'" stroke="none" xml:space="preserve">DTB + DTBO</text>
      <text x="662.419" font-size="10px" y="962.3138" clip-path="url(#clipPath2)" font-family="'Carlito'" stroke="none" xml:space="preserve">(64 MiB)</text>
      <text x="658.4981" font-size="10px" y="901.6339" clip-path="url(#clipPath2)" font-family="'Carlito'" stroke="none" xml:space="preserve">Partition 1</text>
      <text x="659.1085" font-size="10px" y="911.6339" clip-path="url(#clipPath2)" font-family="'Carlito'" stroke="none" xml:space="preserve">(kernel_a)</text>
      <text x="655.9468" font-size="10px" y="982.9938" clip-path="url(#clipPath2)" font-family="'Carlito'" stroke="none" xml:space="preserve">mmcblk1p1</text>
      <text x="670.9297" font-size="10px" y="992.9938" clip-path="url(#clipPath2)" font-family="'Carlito'" stroke="none" xml:space="preserve">ext4</text>
    </g>
    <g fill="rgb(153,204,255)" text-rendering="geometricPrecision" shape-rendering="geometricPrecision" transform="matrix(1,0,0,1,-302,-706)" stroke="rgb(153,204,255)">
      <rect x="791.2793" y="920.1338" clip-path="url(#clipPath2)" width="65.68" rx="4" ry="4" height="49.36" stroke="none"/>
    </g>
    <g text-rendering="geometricPrecision" stroke-miterlimit="1.45" shape-rendering="geometricPrecision" transform="matrix(1,0,0,1,-302,-706)" stroke-linecap="butt">
      <rect x="791.2793" y="920.1338" clip-path="url(#clipPath2)" fill="none" width="65.68" rx="4" ry="4" height="49.36"/>
      <text x="804.505" font-size="10px" y="932.3138" clip-path="url(#clipPath2)" font-family="'Carlito'" stroke="none" xml:space="preserve">FIT Image</text>
      <text x="811.0284" font-size="10px" y="942.3138" clip-path="url(#clipPath2)" font-family="'Carlito'" stroke="none" xml:space="preserve">Kernel</text>
      <text x="799.5929" font-size="10px" y="952.3138" clip-path="url(#clipPath2)" font-family="'Carlito'" stroke="none" xml:space="preserve">DTB + DTBO</text>
      <text x="806.7462" font-size="10px" y="962.3138" clip-path="url(#clipPath2)" font-family="'Carlito'" stroke="none" xml:space="preserve">(64 MiB)</text>
      <text x="802.8253" font-size="10px" y="901.6339" clip-path="url(#clipPath2)" font-family="'Carlito'" stroke="none" xml:space="preserve">Partition 3</text>
      <text x="803.2037" font-size="10px" y="911.6339" clip-path="url(#clipPath2)" font-family="'Carlito'" stroke="none" xml:space="preserve">(kernel_b)</text>
      <text x="800.274" font-size="10px" y="982.9938" clip-path="url(#clipPath2)" font-family="'Carlito'" stroke="none" xml:space="preserve">mmcblk1p3</text>
      <text x="815.257" font-size="10px" y="992.9938" clip-path="url(#clipPath2)" font-family="'Carlito'" stroke="none" xml:space="preserve">ext4</text>
    </g>
    <g fill="rgb(0,204,255)" text-rendering="geometricPrecision" shape-rendering="geometricPrecision" transform="matrix(1,0,0,1,-302,-706)" stroke="rgb(0,204,255)">
      <rect x="372.4008" y="826.508" clip-path="url(#clipPath2)" width="23.268" rx="4" ry="4" height="49.36" stroke="none"/>
    </g>
    <g text-rendering="geometricPrecision" stroke-miterlimit="1.45" shape-rendering="geometricPrecision" transform="matrix(1,0,0,1,-302,-706)" stroke-linecap="butt">
      <rect x="372.4008" y="826.508" clip-path="url(#clipPath2)" fill="none" width="23.268" rx="4" ry="4" height="49.36"/>
    </g>
    <g font-size="8px" stroke-linecap="butt" transform="matrix(-0,-1,1,-0,72.0348,161.7564)" text-rendering="geometricPrecision" font-family="'Carlito'" shape-rendering="geometricPrecision" stroke-miterlimit="1.45">
      <text x="3.873" xml:space="preserve" y="8" clip-path="url(#clipPath11)" stroke="none">Primary</text>
      <text x="2" xml:space="preserve" y="16" clip-path="url(#clipPath11)" stroke="none">GPT HDR</text>
    </g>
    <g fill="silver" text-rendering="geometricPrecision" shape-rendering="geometricPrecision" transform="matrix(1,0,0,1,-302,-706)" stroke="silver">
      <rect x="349.1328" y="826.508" clip-path="url(#clipPath2)" width="23.268" rx="4" ry="4" height="49.36" stroke="none"/>
    </g>
    <g text-rendering="geometricPrecision" stroke-miterlimit="1.45" shape-rendering="geometricPrecision" transform="matrix(1,0,0,1,-302,-706)" stroke-linecap="butt">
      <rect x="349.1328" y="826.508" clip-path="url(#clipPath2)" fill="none" width="23.268" rx="4" ry="4" height="49.36"/>
    </g>
    <g font-size="8px" stroke-linecap="butt" transform="matrix(-0,-1,1,-0,48.7668,163.8345)" text-rendering="geometricPrecision" font-family="'Carlito'" shape-rendering="geometricPrecision" stroke-miterlimit="1.45">
      <text x="2" xml:space="preserve" y="8" clip-path="url(#clipPath12)" stroke="none">Protective</text>
      <text x="2.8496" xml:space="preserve" y="16" clip-path="url(#clipPath12)" stroke="none">MBR HDR</text>
    </g>
    <g fill="rgb(255,255,153)" text-rendering="geometricPrecision" shape-rendering="geometricPrecision" transform="matrix(1,0,0,1,-302,-706)" stroke="rgb(255,255,153)">
      <rect x="712.6321" y="920.1338" clip-path="url(#clipPath2)" width="78.6472" rx="4" ry="4" height="49.36" stroke="none"/>
    </g>
    <g text-rendering="geometricPrecision" stroke-miterlimit="1.45" shape-rendering="geometricPrecision" transform="matrix(1,0,0,1,-302,-706)" stroke-linecap="butt">
      <rect x="712.6321" y="920.1338" clip-path="url(#clipPath2)" fill="none" width="78.6472" rx="4" ry="4" height="49.36"/>
      <text x="730.8521" font-size="10px" y="937.3138" clip-path="url(#clipPath2)" font-family="'Carlito'" stroke="none" xml:space="preserve">Read-Only</text>
      <text x="718.2789" font-size="10px" y="947.3138" clip-path="url(#clipPath2)" font-family="'Carlito'" stroke="none" xml:space="preserve">Root File System</text>
      <text x="732.0484" font-size="10px" y="957.3138" clip-path="url(#clipPath2)" font-family="'Carlito'" stroke="none" xml:space="preserve">(384 MiB)</text>
      <text x="730.6617" font-size="10px" y="901.6339" clip-path="url(#clipPath2)" font-family="'Carlito'" stroke="none" xml:space="preserve">Partition 2</text>
      <text x="731.8653" font-size="10px" y="911.6339" clip-path="url(#clipPath2)" font-family="'Carlito'" stroke="none" xml:space="preserve">(rootfs_a)</text>
      <text x="728.1104" font-size="10px" y="982.9938" clip-path="url(#clipPath2)" font-family="'Carlito'" stroke="none" xml:space="preserve">mmcblk1p2</text>
      <text x="734.2872" font-size="10px" y="992.9938" clip-path="url(#clipPath2)" font-family="'Carlito'" stroke="none" xml:space="preserve">squashfs</text>
    </g>
    <g fill="rgb(153,204,255)" text-rendering="geometricPrecision" shape-rendering="geometricPrecision" transform="matrix(1,0,0,1,-302,-706)" stroke="rgb(153,204,255)">
      <rect x="856.9593" y="920.1338" clip-path="url(#clipPath2)" width="78.6472" rx="4" ry="4" height="49.36" stroke="none"/>
    </g>
    <g text-rendering="geometricPrecision" stroke-miterlimit="1.45" shape-rendering="geometricPrecision" transform="matrix(1,0,0,1,-302,-706)" stroke-linecap="butt">
      <rect x="856.9593" y="920.1338" clip-path="url(#clipPath2)" fill="none" width="78.6472" rx="4" ry="4" height="49.36"/>
      <text x="875.1793" font-size="10px" y="937.3138" clip-path="url(#clipPath2)" font-family="'Carlito'" stroke="none" xml:space="preserve">Read-Only</text>
      <text x="862.6061" font-size="10px" y="947.3138" clip-path="url(#clipPath2)" font-family="'Carlito'" stroke="none" xml:space="preserve">Root File System</text>
      <text x="876.3756" font-size="10px" y="957.3138" clip-path="url(#clipPath2)" font-family="'Carlito'" stroke="none" xml:space="preserve">(384 MiB)</text>
      <text x="874.9889" font-size="10px" y="901.6339" clip-path="url(#clipPath2)" font-family="'Carlito'" stroke="none" xml:space="preserve">Partition 4</text>
      <text x="875.9606" font-size="10px" y="911.6339" clip-path="url(#clipPath2)" font-family="'Carlito'" stroke="none" xml:space="preserve">(rootfs_b)</text>
      <text x="872.4376" font-size="10px" y="982.9938" clip-path="url(#clipPath2)" font-family="'Carlito'" stroke="none" xml:space="preserve">mmcblk1p4</text>
      <text x="878.6144" font-size="10px" y="992.9938" clip-path="url(#clipPath2)" font-family="'Carlito'" stroke="none" xml:space="preserve">squashfs</text>
    </g>
    <g fill="rgb(0,204,255)" text-rendering="geometricPrecision" shape-rendering="geometricPrecision" transform="matrix(1,0,0,1,-302,-706)" stroke="rgb(0,204,255)">
      <rect x="1101.3701" y="826.508" clip-path="url(#clipPath2)" width="23.268" rx="4" ry="4" height="49.36" stroke="none"/>
    </g>
    <g text-rendering="geometricPrecision" stroke-miterlimit="1.45" shape-rendering="geometricPrecision" transform="matrix(1,0,0,1,-302,-706)" stroke-linecap="butt">
      <rect x="1101.3701" y="826.508" clip-path="url(#clipPath2)" fill="none" width="23.268" rx="4" ry="4" height="49.36"/>
    </g>
    <g font-size="8px" stroke-linecap="butt" transform="matrix(-0,-1,1,-0,801.0041,164.1412)" text-rendering="geometricPrecision" font-family="'Carlito'" shape-rendering="geometricPrecision" stroke-miterlimit="1.45">
      <text x="2" xml:space="preserve" y="8" clip-path="url(#clipPath13)" stroke="none">Secondary</text>
      <text x="4.3848" xml:space="preserve" y="16" clip-path="url(#clipPath13)" stroke="none">GPT HDR</text>
    </g>
    <g fill="rgb(255,255,229)" text-rendering="geometricPrecision" shape-rendering="geometricPrecision" transform="matrix(1,0,0,1,-302,-706)" stroke="rgb(255,255,229)">
      <rect x="646.9521" y="826.508" clip-path="url(#clipPath2)" width="144.3272" rx="4" ry="4" height="49.36" stroke="none"/>
    </g>
    <g text-rendering="geometricPrecision" stroke-miterlimit="1.45" shape-rendering="geometricPrecision" transform="matrix(1,0,0,1,-302,-706)" stroke-linecap="butt">
      <rect x="646.9521" y="826.508" clip-path="url(#clipPath2)" fill="none" width="144.3272" rx="4" ry="4" height="49.36"/>
      <text x="700.4194" font-size="10px" y="843.688" clip-path="url(#clipPath2)" font-family="'Carlito'" stroke="none" xml:space="preserve">System A</text>
      <text x="662.4384" font-size="10px" y="853.688" clip-path="url(#clipPath2)" font-family="'Carlito'" stroke="none" xml:space="preserve">Kernel and Root File System</text>
      <text x="699.2084" font-size="10px" y="863.688" clip-path="url(#clipPath2)" font-family="'Carlito'" stroke="none" xml:space="preserve">(448 MiB)</text>
    </g>
    <g fill="rgb(229,242,255)" text-rendering="geometricPrecision" shape-rendering="geometricPrecision" transform="matrix(1,0,0,1,-302,-706)" stroke="rgb(229,242,255)">
      <rect x="791.2793" y="826.508" clip-path="url(#clipPath2)" width="144.3272" rx="4" ry="4" height="49.36" stroke="none"/>
    </g>
    <g text-rendering="geometricPrecision" stroke-miterlimit="1.45" shape-rendering="geometricPrecision" transform="matrix(1,0,0,1,-302,-706)" stroke-linecap="butt">
      <rect x="791.2793" y="826.508" clip-path="url(#clipPath2)" fill="none" width="144.3272" rx="4" ry="4" height="49.36"/>
      <text x="844.9199" font-size="10px" y="843.688" clip-path="url(#clipPath2)" font-family="'Carlito'" stroke="none" xml:space="preserve">System B</text>
      <text x="806.7656" font-size="10px" y="853.688" clip-path="url(#clipPath2)" font-family="'Carlito'" stroke="none" xml:space="preserve">Kernel and Root File System</text>
      <text x="843.5356" font-size="10px" y="863.688" clip-path="url(#clipPath2)" font-family="'Carlito'" stroke="none" xml:space="preserve">(448 MiB)</text>
    </g>
    <g fill="rgb(255,178,127)" text-rendering="geometricPrecision" shape-rendering="geometricPrecision" transform="matrix(1,0,0,1,-302,-706)" stroke="rgb(255,178,127)">
      <rect x="448.4712" y="826.508" clip-path="url(#clipPath2)" width="57.7043" rx="4" ry="4" height="49.36" stroke="none"/>
    </g>
    <g text-rendering="geometricPrecision" stroke-miterlimit="1.45" shape-rendering="geometricPrecision" transform="matrix(1,0,0,1,-302,-706)" stroke-linecap="butt">
      <rect x="448.4712" y="826.508" clip-path="url(#clipPath2)" fill="none" width="57.7043" rx="4" ry="4" height="49.36"/>
      <text x="462.9166" font-size="10px" y="843.688" clip-path="url(#clipPath2)" font-family="'Carlito'" stroke="none" xml:space="preserve">U-Boot</text>
      <text x="465.1114" font-size="10px" y="853.688" clip-path="url(#clipPath2)" font-family="'Carlito'" stroke="none" xml:space="preserve">(up to</text>
      <text x="464.0006" font-size="10px" y="863.688" clip-path="url(#clipPath2)" font-family="'Carlito'" stroke="none" xml:space="preserve">2 MiB)</text>
      <text x="467.2672" font-size="10px" y="889.368" clip-path="url(#clipPath2)" font-family="'Carlito'" stroke="none" xml:space="preserve">RAW</text>
    </g>
    <g fill="rgb(158,255,0)" text-rendering="geometricPrecision" shape-rendering="geometricPrecision" transform="matrix(1,0,0,1,-302,-706)" stroke="rgb(158,255,0)">
      <rect x="562.6236" y="826.508" clip-path="url(#clipPath2)" width="42.1642" rx="4" ry="4" height="49.36" stroke="none"/>
    </g>
    <g text-rendering="geometricPrecision" stroke-miterlimit="1.45" shape-rendering="geometricPrecision" transform="matrix(1,0,0,1,-302,-706)" stroke-linecap="butt">
      <rect x="562.6236" y="826.508" clip-path="url(#clipPath2)" fill="none" width="42.1642" rx="4" ry="4" height="49.36"/>
      <text x="569.299" font-size="10px" y="843.688" clip-path="url(#clipPath2)" font-family="'Carlito'" stroke="none" xml:space="preserve">U-Boot</text>
      <text x="570.2243" font-size="10px" y="853.688" clip-path="url(#clipPath2)" font-family="'Carlito'" stroke="none" xml:space="preserve">Env #1</text>
      <text x="565.4758" font-size="10px" y="863.688" clip-path="url(#clipPath2)" font-family="'Carlito'" stroke="none" xml:space="preserve">(128 KiB)</text>
      <text x="573.6496" font-size="10px" y="889.368" clip-path="url(#clipPath2)" font-family="'Carlito'" stroke="none" xml:space="preserve">RAW</text>
    </g>
    <g fill="rgb(158,255,0)" text-rendering="geometricPrecision" shape-rendering="geometricPrecision" transform="matrix(1,0,0,1,-302,-706)" stroke="rgb(158,255,0)">
      <rect x="604.7878" y="826.508" clip-path="url(#clipPath2)" width="42.1642" rx="4" ry="4" height="49.36" stroke="none"/>
    </g>
    <g text-rendering="geometricPrecision" stroke-miterlimit="1.45" shape-rendering="geometricPrecision" transform="matrix(1,0,0,1,-302,-706)" stroke-linecap="butt">
      <rect x="604.7878" y="826.508" clip-path="url(#clipPath2)" fill="none" width="42.1642" rx="4" ry="4" height="49.36"/>
      <text x="611.4632" font-size="10px" y="843.688" clip-path="url(#clipPath2)" font-family="'Carlito'" stroke="none" xml:space="preserve">U-Boot</text>
      <text x="612.3885" font-size="10px" y="853.688" clip-path="url(#clipPath2)" font-family="'Carlito'" stroke="none" xml:space="preserve">Env #2</text>
      <text x="607.64" font-size="10px" y="863.688" clip-path="url(#clipPath2)" font-family="'Carlito'" stroke="none" xml:space="preserve">(128 KiB)</text>
      <text x="615.8138" font-size="10px" y="889.368" clip-path="url(#clipPath2)" font-family="'Carlito'" stroke="none" xml:space="preserve">RAW</text>
    </g>
    <g fill="rgb(158,255,0)" text-rendering="geometricPrecision" shape-rendering="geometricPrecision" transform="matrix(1,0,0,1,-302,-706)" stroke="rgb(158,255,0)">
      <rect x="514.5065" y="826.508" clip-path="url(#clipPath2)" width="40.2125" rx="4" ry="4" height="49.36" stroke="none"/>
    </g>
    <g text-rendering="geometricPrecision" stroke-miterlimit="1.45" shape-rendering="geometricPrecision" transform="matrix(1,0,0,1,-302,-706)" stroke-linecap="butt">
      <rect x="514.5065" y="826.508" clip-path="url(#clipPath2)" fill="none" width="40.2125" rx="4" ry="4" height="49.36"/>
      <text x="520.206" font-size="10px" y="843.688" clip-path="url(#clipPath2)" font-family="'Carlito'" stroke="none" xml:space="preserve">U-Boot</text>
      <text x="519.5737" font-size="10px" y="853.688" clip-path="url(#clipPath2)" font-family="'Carlito'" stroke="none" xml:space="preserve">Startup</text>
      <text x="523.0087" font-size="10px" y="863.688" clip-path="url(#clipPath2)" font-family="'Carlito'" stroke="none" xml:space="preserve">Script</text>
      <text x="524.5566" font-size="10px" y="889.368" clip-path="url(#clipPath2)" font-family="'Carlito'" stroke="none" xml:space="preserve">RAW</text>
    </g>
    <g fill="rgb(242,229,255)" text-rendering="geometricPrecision" shape-rendering="geometricPrecision" transform="matrix(1,0,0,1,-302,-706)" stroke="rgb(242,229,255)">
      <rect x="935.6065" y="826.508" clip-path="url(#clipPath2)" width="165.7636" rx="4" ry="4" height="49.36" stroke="none"/>
    </g>
    <g text-rendering="geometricPrecision" stroke-miterlimit="1.45" shape-rendering="geometricPrecision" transform="matrix(1,0,0,1,-302,-706)" stroke-linecap="butt">
      <rect x="935.6065" y="826.508" clip-path="url(#clipPath2)" fill="none" width="165.7636" rx="4" ry="4" height="49.36"/>
      <text x="998.4224" font-size="10px" y="848.688" clip-path="url(#clipPath2)" font-family="'Carlito'" stroke="none" xml:space="preserve">User Data</text>
      <text x="969.5503" font-size="10px" y="858.688" clip-path="url(#clipPath2)" font-family="'Carlito'" stroke="none" xml:space="preserve">(all available free space)</text>
    </g>
    <g fill="rgb(204,153,255)" text-rendering="geometricPrecision" shape-rendering="geometricPrecision" transform="matrix(1,0,0,1,-302,-706)" stroke="rgb(204,153,255)">
      <rect x="935.6065" y="920.1338" clip-path="url(#clipPath2)" width="165.7636" rx="4" ry="4" height="49.36" stroke="none"/>
    </g>
    <g text-rendering="geometricPrecision" stroke-miterlimit="1.45" shape-rendering="geometricPrecision" transform="matrix(1,0,0,1,-302,-706)" stroke-linecap="butt">
      <rect x="935.6065" y="920.1338" clip-path="url(#clipPath2)" fill="none" width="165.7636" rx="4" ry="4" height="49.36"/>
      <text x="998.4224" font-size="10px" y="937.3138" clip-path="url(#clipPath2)" font-family="'Carlito'" stroke="none" xml:space="preserve">User Data</text>
      <text x="978.8691" font-size="10px" y="947.3138" clip-path="url(#clipPath2)" font-family="'Carlito'" stroke="none" xml:space="preserve">Overlay File System</text>
      <text x="969.5503" font-size="10px" y="957.3138" clip-path="url(#clipPath2)" font-family="'Carlito'" stroke="none" xml:space="preserve">(all available free space)</text>
      <text x="997.1943" font-size="10px" y="901.6339" clip-path="url(#clipPath2)" font-family="'Carlito'" stroke="none" xml:space="preserve">Partition 5</text>
      <text x="991.7012" font-size="10px" y="911.6339" clip-path="url(#clipPath2)" font-family="'Carlito'" stroke="none" xml:space="preserve">(rootfs_data)</text>
      <text x="994.6431" font-size="10px" y="982.9938" clip-path="url(#clipPath2)" font-family="'Carlito'" stroke="none" xml:space="preserve">mmcblk1p5</text>
      <text x="1009.626" font-size="10px" y="992.9938" clip-path="url(#clipPath2)" font-family="'Carlito'" stroke="none" xml:space="preserve">ext4</text>
      <path fill="none" d="M404.2562 816.7807 L404.2407 826.5439" clip-path="url(#clipPath2)" stroke="gray"/>
      <path fill="none" d="M515.0524 816.7807 L515.0524 826.5336" clip-path="url(#clipPath2)" stroke="gray"/>
      <path fill="none" d="M561.8177 816.7807 L561.8177 826.4742" clip-path="url(#clipPath2)" stroke="gray"/>
      <path fill="none" d="M447.8652 816.7807 L447.8652 828.3765" clip-path="url(#clipPath2)" stroke="gray"/>
      <path fill="none" d="M646.5561 816.7807 L646.9623 830.2108" clip-path="url(#clipPath2)" stroke="gray"/>
      <path fill="none" stroke-dasharray="6,2" d="M791.2689 851.188 L791.278 944.8138" clip-path="url(#clipPath2)"/>
      <path fill="none" d="M604.1218 816.7807 L604.5081 829.0485" clip-path="url(#clipPath2)" stroke="gray"/>
      <path fill="none" stroke-dasharray="6,2" d="M646.9657 851.188 L646.9509 944.8138" clip-path="url(#clipPath2)"/>
      <path fill="none" stroke-dasharray="6,2" d="M1101.3472 872.263 L1101.3472 923.7358" clip-path="url(#clipPath2)"/>
      <path fill="none" stroke-dasharray="6,2" d="M935.5469 944.8138 L935.5812 872.3544" clip-path="url(#clipPath2)"/>
    </g>
  </g>
</svg>
