<?xml version="1.0" encoding="UTF-8"?><svg xmlns="http://www.w3.org/2000/svg" xmlns:xlink="http://www.w3.org/1999/xlink" fill-opacity="1" color-rendering="auto" color-interpolation="auto" text-rendering="auto" stroke="black" stroke-linecap="square" width="809" stroke-miterlimit="10" shape-rendering="auto" stroke-opacity="1" fill="black" stroke-dasharray="none" font-weight="normal" stroke-width="1" height="291" font-family="'Dialog'" font-style="normal" stroke-linejoin="miter" font-size="12px" stroke-dashoffset="0" image-rendering="auto">
  <!--Generated by ySVG 2.5-->
  <defs id="genericDefs"/>
  <g>
    <defs id="defs1">
      <clipPath clipPathUnits="userSpaceOnUse" id="clipPath1">
        <path d="M0 0 L809 0 L809 291 L0 291 L0 0 Z"/>
      </clipPath>
      <clipPath clipPathUnits="userSpaceOnUse" id="clipPath2">
        <path d="M470 405 L1279 405 L1279 696 L470 696 L470 405 Z"/>
      </clipPath>
      <clipPath clipPathUnits="userSpaceOnUse" id="clipPath3">
        <path d="M151.9827 -15.0022 L151.9827 793.9977 L-139.0173 793.9977 L-139.0173 -15.0022 L151.9827 -15.0022 Z"/>
      </clipPath>
      <clipPath clipPathUnits="userSpaceOnUse" id="clipPath4">
        <path d="M142.136 -314.2022 L142.136 494.7978 L-148.864 494.7978 L-148.864 -314.2022 L142.136 -314.2022 Z"/>
      </clipPath>
      <clipPath clipPathUnits="userSpaceOnUse" id="clipPath5">
        <path d="M254.5267 -314.2022 L254.5267 494.7978 L-36.4733 494.7978 L-36.4733 -314.2022 L254.5267 -314.2022 Z"/>
      </clipPath>
      <clipPath clipPathUnits="userSpaceOnUse" id="clipPath6">
        <path d="M143.9216 -41.2656 L143.9216 767.7344 L-147.0784 767.7344 L-147.0784 -41.2656 L143.9216 -41.2656 Z"/>
      </clipPath>
      <clipPath clipPathUnits="userSpaceOnUse" id="clipPath7">
        <path d="M142.3382 -335.8362 L142.3382 473.1638 L-148.6618 473.1638 L-148.6618 -335.8362 L142.3382 -335.8362 Z"/>
      </clipPath>
      <clipPath clipPathUnits="userSpaceOnUse" id="clipPath8">
        <path d="M140.26 -359.1042 L140.26 449.8958 L-150.74 449.8958 L-150.74 -359.1042 L140.26 -359.1042 Z"/>
      </clipPath>
      <clipPath clipPathUnits="userSpaceOnUse" id="clipPath9">
        <path d="M142.6448 -771.6382 L142.6448 37.3618 L-148.3552 37.3618 L-148.3552 -771.6382 L142.6448 -771.6382 Z"/>
      </clipPath>
    </defs>
    <g fill="rgb(248,248,248)" text-rendering="geometricPrecision" shape-rendering="geometricPrecision" transform="matrix(1,0,0,1,-470,-405)" stroke="rgb(248,248,248)">
      <rect x="470.0022" y="405.0117" clip-path="url(#clipPath2)" width="808.27" rx="4" ry="4" height="290.0081" stroke="none"/>
    </g>
    <g font-size="15px" stroke-linecap="butt" transform="matrix(1,0,0,1,-470,-405)" text-rendering="geometricPrecision" font-family="'Carlito'" shape-rendering="geometricPrecision" stroke-miterlimit="1.45">
      <text x="817.3525" xml:space="preserve" y="424.2617" clip-path="url(#clipPath2)" stroke="none">am574x-idk-emmc</text>
      <text x="609.9819" xml:space="preserve" y="439.2617" clip-path="url(#clipPath2)" stroke="none">TI AM574x IDK EVM Memory Layout (running from eMMC with bootloader in SPI NOR)</text>
      <text x="1052.4626" font-size="10px" y="689.5197" clip-path="url(#clipPath2)" fill="silver" stroke="none" xml:space="preserve">© 2021 Tano Systems LLC | https://tano-systems.com</text>
    </g>
    <g stroke-linecap="butt" transform="matrix(1,0,0,1,-470,-405)" fill="silver" text-rendering="geometricPrecision" shape-rendering="geometricPrecision" stroke="silver" stroke-miterlimit="1.45">
      <rect x="470.0022" y="405.0117" clip-path="url(#clipPath2)" fill="none" width="808.27" rx="4" ry="4" height="290.0081"/>
      <rect stroke-linecap="square" x="505.0022" y="504.0117" clip-path="url(#clipPath2)" width="265.1488" rx="4" ry="4" height="49.36" stroke="none" stroke-miterlimit="10"/>
      <rect x="505.0022" y="504.0117" clip-path="url(#clipPath2)" fill="none" width="265.1488" rx="4" ry="4" height="49.36" stroke-width="7"/>
    </g>
    <g text-rendering="geometricPrecision" stroke-miterlimit="1.45" shape-rendering="geometricPrecision" font-family="'Carlito'" transform="matrix(-0,-1,1,-0,15.0022,151.9827)" stroke-linecap="butt">
      <text x="2" xml:space="preserve" y="11" clip-path="url(#clipPath3)" stroke="none">MTD Layer</text>
    </g>
    <g text-rendering="geometricPrecision" stroke-miterlimit="1.45" shape-rendering="geometricPrecision" font-family="'Carlito'" transform="matrix(1,0,0,1,-470,-405)" stroke-linecap="butt">
      <text x="580.3246" xml:space="preserve" y="469.0117" clip-path="url(#clipPath2)" stroke="none">SPI NOR Flash (32 MiB) </text>
    </g>
    <g fill="silver" text-rendering="geometricPrecision" shape-rendering="geometricPrecision" transform="matrix(1,0,0,1,-470,-405)" stroke="silver">
      <rect x="804.2022" y="504.0117" clip-path="url(#clipPath2)" width="459.07" rx="4" ry="4" height="49.36" stroke="none"/>
      <rect stroke-linecap="butt" x="804.2022" y="504.0117" clip-path="url(#clipPath2)" fill="none" width="459.07" rx="4" ry="4" height="49.36" stroke-width="7" stroke-miterlimit="1.45"/>
    </g>
    <g text-rendering="geometricPrecision" stroke-miterlimit="1.45" shape-rendering="geometricPrecision" font-family="'Carlito'" transform="matrix(-0,-1,1,-0,314.2022,142.136)" stroke-linecap="butt">
      <text x="2" xml:space="preserve" y="11" clip-path="url(#clipPath4)" stroke="none">eMMC</text>
    </g>
    <g text-rendering="geometricPrecision" stroke-miterlimit="1.45" shape-rendering="geometricPrecision" font-family="'Carlito'" transform="matrix(1,0,0,1,-470,-405)" stroke-linecap="butt">
      <text x="919.2158" xml:space="preserve" y="493.0117" clip-path="url(#clipPath2)" stroke="none">eMMC ROM1 Main User Data Partition (16 GB)</text>
    </g>
    <g fill="silver" text-rendering="geometricPrecision" shape-rendering="geometricPrecision" transform="matrix(1,0,0,1,-470,-405)" stroke="silver">
      <rect x="804.2022" y="598.1797" clip-path="url(#clipPath2)" width="459.07" rx="4" ry="4" height="49.36" stroke="none"/>
      <rect stroke-linecap="butt" x="804.2022" y="598.1797" clip-path="url(#clipPath2)" fill="none" width="459.07" rx="4" ry="4" height="49.36" stroke-width="7" stroke-miterlimit="1.45"/>
    </g>
    <g text-rendering="geometricPrecision" stroke-miterlimit="1.45" shape-rendering="geometricPrecision" font-family="'Carlito'" transform="matrix(-0,-1,1,-0,314.2022,254.5267)" stroke-linecap="butt">
      <text x="2" xml:space="preserve" y="11" clip-path="url(#clipPath5)" stroke="none">GPT Partitions</text>
    </g>
    <g fill="rgb(255,153,153)" text-rendering="geometricPrecision" shape-rendering="geometricPrecision" transform="matrix(1,0,0,1,-470,-405)" stroke="rgb(255,153,153)">
      <rect x="505.0022" y="504.0117" clip-path="url(#clipPath2)" width="36.5267" rx="4" ry="4" height="49.36" stroke="none"/>
    </g>
    <g text-rendering="geometricPrecision" stroke-miterlimit="1.45" shape-rendering="geometricPrecision" transform="matrix(1,0,0,1,-470,-405)" stroke-linecap="butt">
      <rect x="505.0022" y="504.0117" clip-path="url(#clipPath2)" fill="none" width="36.5267" rx="4" ry="4" height="49.36"/>
    </g>
    <g font-size="10px" stroke-linecap="butt" transform="matrix(-0,-1,1,-0,41.2656,143.9216)" text-rendering="geometricPrecision" font-family="'Carlito'" shape-rendering="geometricPrecision" stroke-miterlimit="1.45">
      <text x="3.582" xml:space="preserve" y="9.5" clip-path="url(#clipPath6)" stroke="none">4 x MLO</text>
      <text x="2" xml:space="preserve" y="19.5" clip-path="url(#clipPath6)" stroke="none">(512 KiB)</text>
    </g>
    <g font-size="10px" stroke-linecap="butt" transform="matrix(1,0,0,1,-470,-405)" text-rendering="geometricPrecision" font-family="'Carlito'" shape-rendering="geometricPrecision" stroke-miterlimit="1.45">
      <text x="513.2094" xml:space="preserve" y="566.8716" clip-path="url(#clipPath2)" stroke="none">RAW</text>
      <text x="512.4355" xml:space="preserve" y="485.5117" clip-path="url(#clipPath2)" stroke="none">mtd0</text>
      <text x="514.5034" xml:space="preserve" y="495.5117" clip-path="url(#clipPath2)" stroke="none">(spl)</text>
    </g>
    <g fill="rgb(204,153,255)" text-rendering="geometricPrecision" shape-rendering="geometricPrecision" transform="matrix(1,0,0,1,-470,-405)" stroke="rgb(204,153,255)">
      <rect x="1139.3926" y="598.1797" clip-path="url(#clipPath2)" width="100.6116" rx="4" ry="4" height="49.36" stroke="none"/>
    </g>
    <g text-rendering="geometricPrecision" stroke-miterlimit="1.45" shape-rendering="geometricPrecision" transform="matrix(1,0,0,1,-470,-405)" stroke-linecap="butt">
      <rect x="1139.3926" y="598.1797" clip-path="url(#clipPath2)" fill="none" width="100.6116" rx="4" ry="4" height="49.36"/>
      <text x="1169.6326" font-size="10px" y="615.3597" clip-path="url(#clipPath2)" font-family="'Carlito'" stroke="none" xml:space="preserve">User Data</text>
      <text x="1150.0793" font-size="10px" y="625.3597" clip-path="url(#clipPath2)" font-family="'Carlito'" stroke="none" xml:space="preserve">Overlay File System</text>
      <text x="1164.7229" font-size="10px" y="635.3597" clip-path="url(#clipPath2)" font-family="'Carlito'" stroke="none" xml:space="preserve">(10365 MiB)</text>
      <text x="1168.4045" font-size="10px" y="579.6797" clip-path="url(#clipPath2)" font-family="'Carlito'" stroke="none" xml:space="preserve">Partition 5</text>
      <text x="1162.9114" font-size="10px" y="589.6797" clip-path="url(#clipPath2)" font-family="'Carlito'" stroke="none" xml:space="preserve">(rootfs_data)</text>
      <text x="1165.8533" font-size="10px" y="661.0397" clip-path="url(#clipPath2)" font-family="'Carlito'" stroke="none" xml:space="preserve">mmcblk1p5</text>
      <text x="1180.8362" font-size="10px" y="671.0397" clip-path="url(#clipPath2)" font-family="'Carlito'" stroke="none" xml:space="preserve">ext4</text>
    </g>
    <g fill="rgb(255,255,229)" text-rendering="geometricPrecision" shape-rendering="geometricPrecision" transform="matrix(1,0,0,1,-470,-405)" stroke="rgb(255,255,229)">
      <rect x="850.7382" y="504.0117" clip-path="url(#clipPath2)" width="144.3272" rx="4" ry="4" height="49.36" stroke="none"/>
    </g>
    <g text-rendering="geometricPrecision" stroke-miterlimit="1.45" shape-rendering="geometricPrecision" transform="matrix(1,0,0,1,-470,-405)" stroke-linecap="butt">
      <rect x="850.7382" y="504.0117" clip-path="url(#clipPath2)" fill="none" width="144.3272" rx="4" ry="4" height="49.36"/>
      <text x="904.2056" font-size="10px" y="521.1917" clip-path="url(#clipPath2)" font-family="'Carlito'" stroke="none" xml:space="preserve">System A</text>
      <text x="866.2246" font-size="10px" y="531.1917" clip-path="url(#clipPath2)" font-family="'Carlito'" stroke="none" xml:space="preserve">Kernel and Root File System</text>
      <text x="900.4604" font-size="10px" y="541.1917" clip-path="url(#clipPath2)" font-family="'Carlito'" stroke="none" xml:space="preserve">(2816 MiB)</text>
    </g>
    <g fill="rgb(255,255,153)" text-rendering="geometricPrecision" shape-rendering="geometricPrecision" transform="matrix(1,0,0,1,-470,-405)" stroke="rgb(255,255,153)">
      <rect x="850.7382" y="598.1797" clip-path="url(#clipPath2)" width="65.68" rx="4" ry="4" height="49.36" stroke="none"/>
    </g>
    <g text-rendering="geometricPrecision" stroke-miterlimit="1.45" shape-rendering="geometricPrecision" transform="matrix(1,0,0,1,-470,-405)" stroke-linecap="butt">
      <rect x="850.7382" y="598.1797" clip-path="url(#clipPath2)" fill="none" width="65.68" rx="4" ry="4" height="49.36"/>
      <text x="863.964" font-size="10px" y="610.3597" clip-path="url(#clipPath2)" font-family="'Carlito'" stroke="none" xml:space="preserve">FIT Image</text>
      <text x="870.4874" font-size="10px" y="620.3597" clip-path="url(#clipPath2)" font-family="'Carlito'" stroke="none" xml:space="preserve">Kernel</text>
      <text x="859.0519" font-size="10px" y="630.3597" clip-path="url(#clipPath2)" font-family="'Carlito'" stroke="none" xml:space="preserve">DTB + DTBO</text>
      <text x="863.671" font-size="10px" y="640.3597" clip-path="url(#clipPath2)" font-family="'Carlito'" stroke="none" xml:space="preserve">(256 MiB)</text>
      <text x="862.2843" font-size="10px" y="579.6797" clip-path="url(#clipPath2)" font-family="'Carlito'" stroke="none" xml:space="preserve">Partition 1</text>
      <text x="862.8947" font-size="10px" y="589.6797" clip-path="url(#clipPath2)" font-family="'Carlito'" stroke="none" xml:space="preserve">(kernel_a)</text>
      <text x="859.733" font-size="10px" y="661.0397" clip-path="url(#clipPath2)" font-family="'Carlito'" stroke="none" xml:space="preserve">mmcblk1p1</text>
      <text x="874.7159" font-size="10px" y="671.0397" clip-path="url(#clipPath2)" font-family="'Carlito'" stroke="none" xml:space="preserve">ext4</text>
    </g>
    <g fill="rgb(255,255,153)" text-rendering="geometricPrecision" shape-rendering="geometricPrecision" transform="matrix(1,0,0,1,-470,-405)" stroke="rgb(255,255,153)">
      <rect x="916.4182" y="598.1797" clip-path="url(#clipPath2)" width="78.6472" rx="4" ry="4" height="49.36" stroke="none"/>
    </g>
    <g text-rendering="geometricPrecision" stroke-miterlimit="1.45" shape-rendering="geometricPrecision" transform="matrix(1,0,0,1,-470,-405)" stroke-linecap="butt">
      <rect x="916.4182" y="598.1797" clip-path="url(#clipPath2)" fill="none" width="78.6472" rx="4" ry="4" height="49.36"/>
      <text x="934.6383" font-size="10px" y="615.3597" clip-path="url(#clipPath2)" font-family="'Carlito'" stroke="none" xml:space="preserve">Read-Only</text>
      <text x="922.0651" font-size="10px" y="625.3597" clip-path="url(#clipPath2)" font-family="'Carlito'" stroke="none" xml:space="preserve">Root File System</text>
      <text x="933.3004" font-size="10px" y="635.3597" clip-path="url(#clipPath2)" font-family="'Carlito'" stroke="none" xml:space="preserve">(2560 MiB)</text>
      <text x="934.4479" font-size="10px" y="579.6797" clip-path="url(#clipPath2)" font-family="'Carlito'" stroke="none" xml:space="preserve">Partition 2</text>
      <text x="935.6515" font-size="10px" y="589.6797" clip-path="url(#clipPath2)" font-family="'Carlito'" stroke="none" xml:space="preserve">(rootfs_a)</text>
      <text x="931.8966" font-size="10px" y="661.0397" clip-path="url(#clipPath2)" font-family="'Carlito'" stroke="none" xml:space="preserve">mmcblk1p2</text>
      <text x="938.0734" font-size="10px" y="671.0397" clip-path="url(#clipPath2)" font-family="'Carlito'" stroke="none" xml:space="preserve">squashfs</text>
    </g>
    <g fill="rgb(153,204,255)" text-rendering="geometricPrecision" shape-rendering="geometricPrecision" transform="matrix(1,0,0,1,-470,-405)" stroke="rgb(153,204,255)">
      <rect x="995.0654" y="598.1797" clip-path="url(#clipPath2)" width="65.68" rx="4" ry="4" height="49.36" stroke="none"/>
    </g>
    <g text-rendering="geometricPrecision" stroke-miterlimit="1.45" shape-rendering="geometricPrecision" transform="matrix(1,0,0,1,-470,-405)" stroke-linecap="butt">
      <rect x="995.0654" y="598.1797" clip-path="url(#clipPath2)" fill="none" width="65.68" rx="4" ry="4" height="49.36"/>
      <text x="1008.2912" font-size="10px" y="610.3597" clip-path="url(#clipPath2)" font-family="'Carlito'" stroke="none" xml:space="preserve">FIT Image</text>
      <text x="1014.8146" font-size="10px" y="620.3597" clip-path="url(#clipPath2)" font-family="'Carlito'" stroke="none" xml:space="preserve">Kernel</text>
      <text x="1003.3791" font-size="10px" y="630.3597" clip-path="url(#clipPath2)" font-family="'Carlito'" stroke="none" xml:space="preserve">DTB + DTBO</text>
      <text x="1007.9982" font-size="10px" y="640.3597" clip-path="url(#clipPath2)" font-family="'Carlito'" stroke="none" xml:space="preserve">(256 MiB)</text>
      <text x="1006.6115" font-size="10px" y="579.6797" clip-path="url(#clipPath2)" font-family="'Carlito'" stroke="none" xml:space="preserve">Partition 3</text>
      <text x="1006.9899" font-size="10px" y="589.6797" clip-path="url(#clipPath2)" font-family="'Carlito'" stroke="none" xml:space="preserve">(kernel_b)</text>
      <text x="1004.0602" font-size="10px" y="661.0397" clip-path="url(#clipPath2)" font-family="'Carlito'" stroke="none" xml:space="preserve">mmcblk1p3</text>
      <text x="1019.0432" font-size="10px" y="671.0397" clip-path="url(#clipPath2)" font-family="'Carlito'" stroke="none" xml:space="preserve">ext4</text>
    </g>
    <g fill="rgb(153,204,255)" text-rendering="geometricPrecision" shape-rendering="geometricPrecision" transform="matrix(1,0,0,1,-470,-405)" stroke="rgb(153,204,255)">
      <rect x="1060.7454" y="598.1797" clip-path="url(#clipPath2)" width="78.6472" rx="4" ry="4" height="49.36" stroke="none"/>
    </g>
    <g text-rendering="geometricPrecision" stroke-miterlimit="1.45" shape-rendering="geometricPrecision" transform="matrix(1,0,0,1,-470,-405)" stroke-linecap="butt">
      <rect x="1060.7454" y="598.1797" clip-path="url(#clipPath2)" fill="none" width="78.6472" rx="4" ry="4" height="49.36"/>
      <text x="1078.9655" font-size="10px" y="615.3597" clip-path="url(#clipPath2)" font-family="'Carlito'" stroke="none" xml:space="preserve">Read-Only</text>
      <text x="1066.3922" font-size="10px" y="625.3597" clip-path="url(#clipPath2)" font-family="'Carlito'" stroke="none" xml:space="preserve">Root File System</text>
      <text x="1077.6276" font-size="10px" y="635.3597" clip-path="url(#clipPath2)" font-family="'Carlito'" stroke="none" xml:space="preserve">(2560 MiB)</text>
      <text x="1078.775" font-size="10px" y="579.6797" clip-path="url(#clipPath2)" font-family="'Carlito'" stroke="none" xml:space="preserve">Partition 4</text>
      <text x="1079.7467" font-size="10px" y="589.6797" clip-path="url(#clipPath2)" font-family="'Carlito'" stroke="none" xml:space="preserve">(rootfs_b)</text>
      <text x="1076.2238" font-size="10px" y="661.0397" clip-path="url(#clipPath2)" font-family="'Carlito'" stroke="none" xml:space="preserve">mmcblk1p4</text>
      <text x="1082.4005" font-size="10px" y="671.0397" clip-path="url(#clipPath2)" font-family="'Carlito'" stroke="none" xml:space="preserve">squashfs</text>
    </g>
    <g fill="rgb(229,242,255)" text-rendering="geometricPrecision" shape-rendering="geometricPrecision" transform="matrix(1,0,0,1,-470,-405)" stroke="rgb(229,242,255)">
      <rect x="995.0654" y="504.0117" clip-path="url(#clipPath2)" width="144.3272" rx="4" ry="4" height="49.36" stroke="none"/>
    </g>
    <g text-rendering="geometricPrecision" stroke-miterlimit="1.45" shape-rendering="geometricPrecision" transform="matrix(1,0,0,1,-470,-405)" stroke-linecap="butt">
      <rect x="995.0654" y="504.0117" clip-path="url(#clipPath2)" fill="none" width="144.3272" rx="4" ry="4" height="49.36"/>
      <text x="1048.7061" font-size="10px" y="521.1917" clip-path="url(#clipPath2)" font-family="'Carlito'" stroke="none" xml:space="preserve">System B</text>
      <text x="1010.5518" font-size="10px" y="531.1917" clip-path="url(#clipPath2)" font-family="'Carlito'" stroke="none" xml:space="preserve">Kernel and Root File System</text>
      <text x="1044.7876" font-size="10px" y="541.1917" clip-path="url(#clipPath2)" font-family="'Carlito'" stroke="none" xml:space="preserve">(2816 MiB)</text>
    </g>
    <g fill="rgb(242,229,255)" text-rendering="geometricPrecision" shape-rendering="geometricPrecision" transform="matrix(1,0,0,1,-470,-405)" stroke="rgb(242,229,255)">
      <rect x="1139.3926" y="504.0117" clip-path="url(#clipPath2)" width="100.6116" rx="4" ry="4" height="49.36" stroke="none"/>
    </g>
    <g text-rendering="geometricPrecision" stroke-miterlimit="1.45" shape-rendering="geometricPrecision" transform="matrix(1,0,0,1,-470,-405)" stroke-linecap="butt">
      <rect x="1139.3926" y="504.0117" clip-path="url(#clipPath2)" fill="none" width="100.6116" rx="4" ry="4" height="49.36"/>
      <text x="1169.6326" font-size="10px" y="526.1917" clip-path="url(#clipPath2)" font-family="'Carlito'" stroke="none" xml:space="preserve">User Data</text>
      <text x="1164.7229" font-size="10px" y="536.1917" clip-path="url(#clipPath2)" font-family="'Carlito'" stroke="none" xml:space="preserve">(10365 MiB)</text>
    </g>
    <g fill="silver" text-rendering="geometricPrecision" shape-rendering="geometricPrecision" transform="matrix(1,0,0,1,-470,-405)" stroke="silver">
      <rect x="804.2022" y="504.0117" clip-path="url(#clipPath2)" width="23.268" rx="4" ry="4" height="49.36" stroke="none"/>
    </g>
    <g text-rendering="geometricPrecision" stroke-miterlimit="1.45" shape-rendering="geometricPrecision" transform="matrix(1,0,0,1,-470,-405)" stroke-linecap="butt">
      <rect x="804.2022" y="504.0117" clip-path="url(#clipPath2)" fill="none" width="23.268" rx="4" ry="4" height="49.36"/>
    </g>
    <g font-size="8px" stroke-linecap="butt" transform="matrix(-0,-1,1,-0,335.8362,142.3381)" text-rendering="geometricPrecision" font-family="'Carlito'" shape-rendering="geometricPrecision" stroke-miterlimit="1.45">
      <text x="2" xml:space="preserve" y="8" clip-path="url(#clipPath7)" stroke="none">Protective</text>
      <text x="2.8496" xml:space="preserve" y="16" clip-path="url(#clipPath7)" stroke="none">MBR HDR</text>
    </g>
    <g fill="rgb(0,204,255)" text-rendering="geometricPrecision" shape-rendering="geometricPrecision" transform="matrix(1,0,0,1,-470,-405)" stroke="rgb(0,204,255)">
      <rect x="827.4702" y="504.0117" clip-path="url(#clipPath2)" width="23.268" rx="4" ry="4" height="49.36" stroke="none"/>
    </g>
    <g text-rendering="geometricPrecision" stroke-miterlimit="1.45" shape-rendering="geometricPrecision" transform="matrix(1,0,0,1,-470,-405)" stroke-linecap="butt">
      <rect x="827.4702" y="504.0117" clip-path="url(#clipPath2)" fill="none" width="23.268" rx="4" ry="4" height="49.36"/>
    </g>
    <g font-size="8px" stroke-linecap="butt" transform="matrix(-0,-1,1,-0,359.1042,140.26)" text-rendering="geometricPrecision" font-family="'Carlito'" shape-rendering="geometricPrecision" stroke-miterlimit="1.45">
      <text x="3.873" xml:space="preserve" y="8" clip-path="url(#clipPath8)" stroke="none">Primary</text>
      <text x="2" xml:space="preserve" y="16" clip-path="url(#clipPath8)" stroke="none">GPT HDR</text>
    </g>
    <g fill="rgb(0,204,255)" text-rendering="geometricPrecision" shape-rendering="geometricPrecision" transform="matrix(1,0,0,1,-470,-405)" stroke="rgb(0,204,255)">
      <rect x="1240.0042" y="504.0117" clip-path="url(#clipPath2)" width="23.268" rx="4" ry="4" height="49.36" stroke="none"/>
    </g>
    <g text-rendering="geometricPrecision" stroke-miterlimit="1.45" shape-rendering="geometricPrecision" transform="matrix(1,0,0,1,-470,-405)" stroke-linecap="butt">
      <rect x="1240.0042" y="504.0117" clip-path="url(#clipPath2)" fill="none" width="23.268" rx="4" ry="4" height="49.36"/>
    </g>
    <g font-size="8px" stroke-linecap="butt" transform="matrix(-0,-1,1,-0,771.6382,142.6448)" text-rendering="geometricPrecision" font-family="'Carlito'" shape-rendering="geometricPrecision" stroke-miterlimit="1.45">
      <text x="2" xml:space="preserve" y="8" clip-path="url(#clipPath9)" stroke="none">Secondary</text>
      <text x="4.3848" xml:space="preserve" y="16" clip-path="url(#clipPath9)" stroke="none">GPT HDR</text>
    </g>
    <g transform="matrix(1,0,0,1,-470,-405)" fill-opacity="0.498" fill="rgb(255,255,255)" text-rendering="geometricPrecision" shape-rendering="geometricPrecision" stroke="rgb(255,255,255)" stroke-opacity="0.498">
      <rect x="701.1334" y="504.0117" clip-path="url(#clipPath2)" width="69.0176" rx="4" ry="4" height="49.36" stroke="none"/>
    </g>
    <g text-rendering="geometricPrecision" stroke-miterlimit="1.45" stroke-dasharray="6,2" shape-rendering="geometricPrecision" transform="matrix(1,0,0,1,-470,-405)" stroke-linecap="butt">
      <rect x="701.1334" y="504.0117" clip-path="url(#clipPath2)" fill="none" width="69.0176" rx="4" ry="4" height="49.36"/>
      <text x="713.5743" font-size="10px" y="526.1917" clip-path="url(#clipPath2)" font-family="'Carlito'" stroke-dasharray="none" stroke="none" xml:space="preserve">Free Space</text>
      <text x="718.2692" font-size="10px" y="536.1917" clip-path="url(#clipPath2)" font-family="'Carlito'" stroke-dasharray="none" stroke="none" xml:space="preserve">(28 MiB)</text>
      <text x="711.8361" font-size="10px" y="495.5117" clip-path="url(#clipPath2)" font-family="'Carlito'" stroke-dasharray="none" stroke="none" xml:space="preserve">mtd4 (user)</text>
    </g>
    <g fill="rgb(227,255,183)" text-rendering="geometricPrecision" shape-rendering="geometricPrecision" transform="matrix(1,0,0,1,-470,-405)" stroke="rgb(227,255,183)">
      <rect x="586.9766" y="504.0117" clip-path="url(#clipPath2)" width="48.4768" rx="4" ry="4" height="49.36" stroke="none"/>
    </g>
    <g text-rendering="geometricPrecision" stroke-miterlimit="1.45" shape-rendering="geometricPrecision" transform="matrix(1,0,0,1,-470,-405)" stroke-linecap="butt">
      <rect x="586.9766" y="504.0117" clip-path="url(#clipPath2)" fill="none" width="48.4768" rx="4" ry="4" height="49.36"/>
      <text x="596.8083" font-size="10px" y="521.1917" clip-path="url(#clipPath2)" font-family="'Carlito'" stroke="none" xml:space="preserve">U-Boot</text>
      <text x="596.176" font-size="10px" y="531.1917" clip-path="url(#clipPath2)" font-family="'Carlito'" stroke="none" xml:space="preserve">Startup</text>
      <text x="592.985" font-size="10px" y="541.1917" clip-path="url(#clipPath2)" font-family="'Carlito'" stroke="none" xml:space="preserve">(256 KiB)</text>
      <text x="600.3849" font-size="10px" y="485.5117" clip-path="url(#clipPath2)" font-family="'Carlito'" stroke="none" xml:space="preserve">mtd2</text>
      <text x="593.4855" font-size="10px" y="495.5117" clip-path="url(#clipPath2)" font-family="'Carlito'" stroke="none" xml:space="preserve">(startup)</text>
      <text x="601.8152" font-size="10px" y="566.8716" clip-path="url(#clipPath2)" font-family="'Carlito'" stroke="none" xml:space="preserve">RAW</text>
    </g>
    <g fill="rgb(227,255,183)" text-rendering="geometricPrecision" shape-rendering="geometricPrecision" transform="matrix(1,0,0,1,-470,-405)" stroke="rgb(227,255,183)">
      <rect x="635.4534" y="504.0117" clip-path="url(#clipPath2)" width="65.68" rx="4" ry="4" height="49.36" stroke="none"/>
    </g>
    <g text-rendering="geometricPrecision" stroke-miterlimit="1.45" shape-rendering="geometricPrecision" transform="matrix(1,0,0,1,-470,-405)" stroke-linecap="butt">
      <rect x="635.4534" y="504.0117" clip-path="url(#clipPath2)" fill="none" width="65.68" rx="4" ry="4" height="49.36"/>
      <text x="653.8867" font-size="10px" y="521.1917" clip-path="url(#clipPath2)" font-family="'Carlito'" stroke="none" xml:space="preserve">U-Boot</text>
      <text x="642.0288" font-size="10px" y="531.1917" clip-path="url(#clipPath2)" font-family="'Carlito'" stroke="none" xml:space="preserve">Environment</text>
      <text x="643.103" font-size="10px" y="541.1917" clip-path="url(#clipPath2)" font-family="'Carlito'" stroke="none" xml:space="preserve">(2 x 128 KiB)</text>
      <text x="657.4634" font-size="10px" y="485.5117" clip-path="url(#clipPath2)" font-family="'Carlito'" stroke="none" xml:space="preserve">mtd3</text>
      <text x="645.686" font-size="10px" y="495.5117" clip-path="url(#clipPath2)" font-family="'Carlito'" stroke="none" xml:space="preserve">(ubootenv)</text>
      <text x="659.1266" font-size="10px" y="566.8716" clip-path="url(#clipPath2)" font-family="'Carlito'" stroke="none" xml:space="preserve">RAW</text>
    </g>
    <g fill="rgb(227,255,183)" text-rendering="geometricPrecision" shape-rendering="geometricPrecision" transform="matrix(1,0,0,1,-470,-405)" stroke="rgb(227,255,183)">
      <rect x="541.5289" y="504.0117" clip-path="url(#clipPath2)" width="45.4477" rx="4" ry="4" height="49.36" stroke="none"/>
    </g>
    <g text-rendering="geometricPrecision" stroke-miterlimit="1.45" shape-rendering="geometricPrecision" transform="matrix(1,0,0,1,-470,-405)" stroke-linecap="butt">
      <rect x="541.5289" y="504.0117" clip-path="url(#clipPath2)" fill="none" width="45.4477" rx="4" ry="4" height="49.36"/>
      <text x="549.8461" font-size="10px" y="521.1917" clip-path="url(#clipPath2)" font-family="'Carlito'" stroke="none" xml:space="preserve">U-Boot</text>
      <text x="551.7626" font-size="10px" y="531.1917" clip-path="url(#clipPath2)" font-family="'Carlito'" stroke="none" xml:space="preserve">Image</text>
      <text x="549.4139" font-size="10px" y="541.1917" clip-path="url(#clipPath2)" font-family="'Carlito'" stroke="none" xml:space="preserve">(3 MiB)</text>
      <text x="553.4227" font-size="10px" y="485.5117" clip-path="url(#clipPath2)" font-family="'Carlito'" stroke="none" xml:space="preserve">mtd1</text>
      <text x="549.0184" font-size="10px" y="495.5117" clip-path="url(#clipPath2)" font-family="'Carlito'" stroke="none" xml:space="preserve">(uboot)</text>
      <text x="554.812" font-size="10px" y="566.8716" clip-path="url(#clipPath2)" font-family="'Carlito'" stroke="none" xml:space="preserve">RAW</text>
      <path fill="none" stroke-dasharray="6,2" d="M850.7278 528.6917 L850.737 622.8597" clip-path="url(#clipPath2)"/>
      <path fill="none" stroke-dasharray="6,2" d="M995.0551 528.6917 L995.0642 622.8597" clip-path="url(#clipPath2)"/>
      <path fill="none" stroke-dasharray="6,2" d="M1239.9839 601.7547 L1239.9963 549.6331" clip-path="url(#clipPath2)"/>
      <path fill="none" stroke-dasharray="6,2" d="M1139.4065 549.7048 L1139.4065 601.8206" clip-path="url(#clipPath2)"/>
    </g>
  </g>
</svg>
