<?xml version="1.0" encoding="UTF-8"?><svg xmlns="http://www.w3.org/2000/svg" xmlns:xlink="http://www.w3.org/1999/xlink" fill-opacity="1" color-rendering="auto" color-interpolation="auto" text-rendering="auto" stroke="black" stroke-linecap="square" width="838" stroke-miterlimit="10" shape-rendering="auto" stroke-opacity="1" fill="black" stroke-dasharray="none" font-weight="normal" stroke-width="1" height="320" font-family="'Dialog'" font-style="normal" stroke-linejoin="miter" font-size="12px" stroke-dashoffset="0" image-rendering="auto">
  <!--Generated by ySVG 2.5-->
  <defs id="genericDefs"/>
  <g>
    <defs id="defs1">
      <clipPath clipPathUnits="userSpaceOnUse" id="clipPath1">
        <path d="M0 0 L838 0 L838 320 L0 320 L0 0 Z"/>
      </clipPath>
      <clipPath clipPathUnits="userSpaceOnUse" id="clipPath2">
        <path d="M302 372 L1140 372 L1140 692 L302 692 L302 372 Z"/>
      </clipPath>
      <clipPath clipPathUnits="userSpaceOnUse" id="clipPath3">
        <path d="M171.9616 -27.1328 L171.9616 810.8672 L-148.0384 810.8672 L-148.0384 -27.1328 L171.9616 -27.1328 Z"/>
      </clipPath>
      <clipPath clipPathUnits="userSpaceOnUse" id="clipPath4">
        <path d="M273.1873 -15.1328 L273.1873 822.8672 L-46.8127 822.8672 L-46.8127 -15.1328 L273.1873 -15.1328 Z"/>
      </clipPath>
      <clipPath clipPathUnits="userSpaceOnUse" id="clipPath5">
        <path d="M172.1637 -48.7668 L172.1637 789.2332 L-147.8363 789.2332 L-147.8363 -48.7668 L172.1637 -48.7668 Z"/>
      </clipPath>
      <clipPath clipPathUnits="userSpaceOnUse" id="clipPath6">
        <path d="M170.0856 -72.0348 L170.0856 765.9652 L-149.9144 765.9652 L-149.9144 -72.0348 L170.0856 -72.0348 Z"/>
      </clipPath>
      <clipPath clipPathUnits="userSpaceOnUse" id="clipPath7">
        <path d="M172.4704 -801.004 L172.4704 36.9959 L-147.5296 36.9959 L-147.5296 -801.004 L172.4704 -801.004 Z"/>
      </clipPath>
      <clipPath clipPathUnits="userSpaceOnUse" id="clipPath8">
        <path d="M9.8627 -142.5842 L602.4182 449.9713 L376.144 676.2455 L-216.4115 83.69 L9.8627 -142.5842 Z"/>
      </clipPath>
      <clipPath clipPathUnits="userSpaceOnUse" id="clipPath9">
        <path d="M-159.0931 -311.5399 L433.4624 281.0155 L207.1882 507.2897 L-385.3673 -85.2658 L-159.0931 -311.5399 Z"/>
      </clipPath>
      <clipPath clipPathUnits="userSpaceOnUse" id="clipPath10">
        <path d="M-17.7476 -170.1944 L574.8079 422.3611 L348.5338 648.6353 L-244.0217 56.0798 L-17.7476 -170.1944 Z"/>
      </clipPath>
      <clipPath clipPathUnits="userSpaceOnUse" id="clipPath11">
        <path d="M-98.3241 -250.771 L494.2314 341.7845 L267.9572 568.0587 L-324.5983 -24.4968 L-98.3241 -250.771 Z"/>
      </clipPath>
      <clipPath clipPathUnits="userSpaceOnUse" id="clipPath12">
        <path d="M-65.2561 -217.703 L527.2994 374.8525 L301.0252 601.1267 L-291.5303 8.5712 L-65.2561 -217.703 Z"/>
      </clipPath>
      <clipPath clipPathUnits="userSpaceOnUse" id="clipPath13">
        <path d="M-128.1387 -280.5856 L464.4167 311.9699 L238.1426 538.2441 L-354.4129 -54.3114 L-128.1387 -280.5856 Z"/>
      </clipPath>
    </defs>
    <g fill="rgb(248,248,248)" text-rendering="geometricPrecision" shape-rendering="geometricPrecision" transform="matrix(1,0,0,1,-302,-372)" stroke="rgb(248,248,248)">
      <rect x="302.1328" y="372.8373" clip-path="url(#clipPath2)" width="837.5053" rx="4" ry="4" height="318.5281" stroke="none"/>
    </g>
    <g font-size="15px" stroke-linecap="butt" transform="matrix(1,0,0,1,-302,-372)" text-rendering="geometricPrecision" font-family="'Carlito'" shape-rendering="geometricPrecision" stroke-miterlimit="1.45">
      <text x="661.3505" xml:space="preserve" y="392.0872" clip-path="url(#clipPath2)" stroke="none">am335x-bbb-emmc</text>
      <text x="577.5029" xml:space="preserve" y="407.0872" clip-path="url(#clipPath2)" stroke="none">BeagleBone Black eMMC Flash Memory Layout</text>
      <text x="687.2233" xml:space="preserve" y="422.0872" clip-path="url(#clipPath2)" stroke="none">(3648 MiB)</text>
      <text x="913.8285" font-size="10px" y="685.8654" clip-path="url(#clipPath2)" fill="silver" stroke="none" xml:space="preserve">© 2021 Tano Systems LLC | https://tano-systems.com</text>
    </g>
    <g stroke-linecap="butt" transform="matrix(1,0,0,1,-302,-372)" fill="silver" text-rendering="geometricPrecision" shape-rendering="geometricPrecision" stroke="silver" stroke-miterlimit="1.45">
      <rect x="302.1328" y="372.8373" clip-path="url(#clipPath2)" fill="none" width="837.5053" rx="4" ry="4" height="318.5281"/>
      <rect stroke-linecap="square" x="349.1328" y="500.8373" clip-path="url(#clipPath2)" width="775.5053" rx="4" ry="4" height="49.36" stroke="none" stroke-miterlimit="10"/>
      <rect x="349.1328" y="500.8373" clip-path="url(#clipPath2)" fill="none" width="775.5053" rx="4" ry="4" height="49.36" stroke-width="7"/>
    </g>
    <g text-rendering="geometricPrecision" stroke-miterlimit="1.45" shape-rendering="geometricPrecision" font-family="'Carlito'" transform="matrix(-0,-1,1,-0,27.1328,171.9616)" stroke-linecap="butt">
      <text x="2" xml:space="preserve" y="11" clip-path="url(#clipPath3)" stroke="none">eMMC</text>
    </g>
    <g text-rendering="geometricPrecision" stroke-miterlimit="1.45" shape-rendering="geometricPrecision" font-family="'Carlito'" transform="matrix(1,0,0,1,-302,-372)" stroke-linecap="butt">
      <text x="709.9557" xml:space="preserve" y="451.8372" clip-path="url(#clipPath2)" stroke="none">(3648 MiB)</text>
      <text x="721.4841" xml:space="preserve" y="463.8372" clip-path="url(#clipPath2)" stroke="none">ROM1</text>
      <text x="698.9167" xml:space="preserve" y="475.8372" clip-path="url(#clipPath2)" stroke="none">Main User Data</text>
      <text x="715.7302" xml:space="preserve" y="487.8372" clip-path="url(#clipPath2)" stroke="none">Partition</text>
    </g>
    <g fill="silver" text-rendering="geometricPrecision" shape-rendering="geometricPrecision" transform="matrix(1,0,0,1,-302,-372)" stroke="silver">
      <rect x="349.1328" y="595.0053" clip-path="url(#clipPath2)" width="775.5053" rx="4" ry="4" height="49.36" stroke="none"/>
      <rect stroke-linecap="butt" x="349.1328" y="595.0053" clip-path="url(#clipPath2)" fill="none" width="775.5053" rx="4" ry="4" height="49.36" stroke-width="7" stroke-miterlimit="1.45"/>
    </g>
    <g text-rendering="geometricPrecision" stroke-miterlimit="1.45" shape-rendering="geometricPrecision" font-family="'Carlito'" transform="matrix(-0,-1,1,-0,15.1328,273.1873)" stroke-linecap="butt">
      <text x="15.6934" xml:space="preserve" y="11" clip-path="url(#clipPath4)" stroke="none">GPT</text>
      <text x="2" xml:space="preserve" y="23" clip-path="url(#clipPath4)" stroke="none">Partitions</text>
    </g>
    <g fill="rgb(255,153,153)" text-rendering="geometricPrecision" shape-rendering="geometricPrecision" transform="matrix(1,0,0,1,-302,-372)" stroke="rgb(255,153,153)">
      <rect x="404.5717" y="500.8373" clip-path="url(#clipPath2)" width="43.8995" rx="4" ry="4" height="49.36" stroke="none"/>
    </g>
    <g text-rendering="geometricPrecision" stroke-miterlimit="1.45" shape-rendering="geometricPrecision" transform="matrix(1,0,0,1,-302,-372)" stroke-linecap="butt">
      <rect x="404.5717" y="500.8373" clip-path="url(#clipPath2)" fill="none" width="43.8995" rx="4" ry="4" height="49.36"/>
      <text x="409.8735" font-size="10px" y="523.0173" clip-path="url(#clipPath2)" font-family="'Carlito'" stroke="none" xml:space="preserve">3 x MLO</text>
      <text x="408.2915" font-size="10px" y="533.0173" clip-path="url(#clipPath2)" font-family="'Carlito'" stroke="none" xml:space="preserve">(384 KiB)</text>
      <text x="416.4653" font-size="10px" y="563.6973" clip-path="url(#clipPath2)" font-family="'Carlito'" stroke="none" xml:space="preserve">RAW</text>
    </g>
    <g fill="rgb(204,153,255)" text-rendering="geometricPrecision" shape-rendering="geometricPrecision" transform="matrix(1,0,0,1,-302,-372)" stroke="rgb(204,153,255)">
      <rect x="935.6065" y="595.0053" clip-path="url(#clipPath2)" width="165.7636" rx="4" ry="4" height="49.36" stroke="none"/>
    </g>
    <g text-rendering="geometricPrecision" stroke-miterlimit="1.45" shape-rendering="geometricPrecision" transform="matrix(1,0,0,1,-302,-372)" stroke-linecap="butt">
      <rect x="935.6065" y="595.0053" clip-path="url(#clipPath2)" fill="none" width="165.7636" rx="4" ry="4" height="49.36"/>
      <text x="998.4224" font-size="10px" y="612.1854" clip-path="url(#clipPath2)" font-family="'Carlito'" stroke="none" xml:space="preserve">User Data</text>
      <text x="978.8691" font-size="10px" y="622.1854" clip-path="url(#clipPath2)" font-family="'Carlito'" stroke="none" xml:space="preserve">Overlay File System</text>
      <text x="996.0469" font-size="10px" y="632.1854" clip-path="url(#clipPath2)" font-family="'Carlito'" stroke="none" xml:space="preserve">(1331 MiB)</text>
      <text x="997.1943" font-size="10px" y="576.5053" clip-path="url(#clipPath2)" font-family="'Carlito'" stroke="none" xml:space="preserve">Partition 5</text>
      <text x="991.7012" font-size="10px" y="586.5053" clip-path="url(#clipPath2)" font-family="'Carlito'" stroke="none" xml:space="preserve">(rootfs_data)</text>
      <text x="994.6431" font-size="10px" y="657.8654" clip-path="url(#clipPath2)" font-family="'Carlito'" stroke="none" xml:space="preserve">mmcblk1p5</text>
      <text x="1009.626" font-size="10px" y="667.8654" clip-path="url(#clipPath2)" font-family="'Carlito'" stroke="none" xml:space="preserve">ext4</text>
    </g>
    <g fill="rgb(158,255,0)" text-rendering="geometricPrecision" shape-rendering="geometricPrecision" transform="matrix(1,0,0,1,-302,-372)" stroke="rgb(158,255,0)">
      <rect x="562.6236" y="500.8373" clip-path="url(#clipPath2)" width="42.1642" rx="4" ry="4" height="49.36" stroke="none"/>
    </g>
    <g text-rendering="geometricPrecision" stroke-miterlimit="1.45" shape-rendering="geometricPrecision" transform="matrix(1,0,0,1,-302,-372)" stroke-linecap="butt">
      <rect x="562.6236" y="500.8373" clip-path="url(#clipPath2)" fill="none" width="42.1642" rx="4" ry="4" height="49.36"/>
      <text x="569.299" font-size="10px" y="518.0173" clip-path="url(#clipPath2)" font-family="'Carlito'" stroke="none" xml:space="preserve">U-Boot</text>
      <text x="570.2243" font-size="10px" y="528.0173" clip-path="url(#clipPath2)" font-family="'Carlito'" stroke="none" xml:space="preserve">Env #1</text>
      <text x="565.4758" font-size="10px" y="538.0173" clip-path="url(#clipPath2)" font-family="'Carlito'" stroke="none" xml:space="preserve">(128 KiB)</text>
      <text x="573.6496" font-size="10px" y="563.6973" clip-path="url(#clipPath2)" font-family="'Carlito'" stroke="none" xml:space="preserve">RAW</text>
    </g>
    <g fill="rgb(255,255,229)" text-rendering="geometricPrecision" shape-rendering="geometricPrecision" transform="matrix(1,0,0,1,-302,-372)" stroke="rgb(255,255,229)">
      <rect x="646.9521" y="500.8373" clip-path="url(#clipPath2)" width="144.3272" rx="4" ry="4" height="49.36" stroke="none"/>
    </g>
    <g text-rendering="geometricPrecision" stroke-miterlimit="1.45" shape-rendering="geometricPrecision" transform="matrix(1,0,0,1,-302,-372)" stroke-linecap="butt">
      <rect x="646.9521" y="500.8373" clip-path="url(#clipPath2)" fill="none" width="144.3272" rx="4" ry="4" height="49.36"/>
      <text x="700.4194" font-size="10px" y="518.0173" clip-path="url(#clipPath2)" font-family="'Carlito'" stroke="none" xml:space="preserve">System A</text>
      <text x="662.4384" font-size="10px" y="528.0173" clip-path="url(#clipPath2)" font-family="'Carlito'" stroke="none" xml:space="preserve">Kernel and Root File System</text>
      <text x="696.6743" font-size="10px" y="538.0173" clip-path="url(#clipPath2)" font-family="'Carlito'" stroke="none" xml:space="preserve">(1156 MiB)</text>
    </g>
    <g fill="rgb(255,255,153)" text-rendering="geometricPrecision" shape-rendering="geometricPrecision" transform="matrix(1,0,0,1,-302,-372)" stroke="rgb(255,255,153)">
      <rect x="646.9521" y="595.0053" clip-path="url(#clipPath2)" width="65.68" rx="4" ry="4" height="49.36" stroke="none"/>
    </g>
    <g text-rendering="geometricPrecision" stroke-miterlimit="1.45" shape-rendering="geometricPrecision" transform="matrix(1,0,0,1,-302,-372)" stroke-linecap="butt">
      <rect x="646.9521" y="595.0053" clip-path="url(#clipPath2)" fill="none" width="65.68" rx="4" ry="4" height="49.36"/>
      <text x="660.1778" font-size="10px" y="607.1854" clip-path="url(#clipPath2)" font-family="'Carlito'" stroke="none" xml:space="preserve">FIT Image</text>
      <text x="666.7012" font-size="10px" y="617.1854" clip-path="url(#clipPath2)" font-family="'Carlito'" stroke="none" xml:space="preserve">Kernel</text>
      <text x="655.2657" font-size="10px" y="627.1854" clip-path="url(#clipPath2)" font-family="'Carlito'" stroke="none" xml:space="preserve">DTB + DTBO</text>
      <text x="659.8848" font-size="10px" y="637.1854" clip-path="url(#clipPath2)" font-family="'Carlito'" stroke="none" xml:space="preserve">(128 MiB)</text>
      <text x="658.4981" font-size="10px" y="576.5053" clip-path="url(#clipPath2)" font-family="'Carlito'" stroke="none" xml:space="preserve">Partition 1</text>
      <text x="659.1085" font-size="10px" y="586.5053" clip-path="url(#clipPath2)" font-family="'Carlito'" stroke="none" xml:space="preserve">(kernel_a)</text>
      <text x="655.9468" font-size="10px" y="657.8654" clip-path="url(#clipPath2)" font-family="'Carlito'" stroke="none" xml:space="preserve">mmcblk1p1</text>
      <text x="670.9297" font-size="10px" y="667.8654" clip-path="url(#clipPath2)" font-family="'Carlito'" stroke="none" xml:space="preserve">ext4</text>
    </g>
    <g fill="rgb(255,255,153)" text-rendering="geometricPrecision" shape-rendering="geometricPrecision" transform="matrix(1,0,0,1,-302,-372)" stroke="rgb(255,255,153)">
      <rect x="712.6321" y="595.0053" clip-path="url(#clipPath2)" width="78.6472" rx="4" ry="4" height="49.36" stroke="none"/>
    </g>
    <g text-rendering="geometricPrecision" stroke-miterlimit="1.45" shape-rendering="geometricPrecision" transform="matrix(1,0,0,1,-302,-372)" stroke-linecap="butt">
      <rect x="712.6321" y="595.0053" clip-path="url(#clipPath2)" fill="none" width="78.6472" rx="4" ry="4" height="49.36"/>
      <text x="730.8521" font-size="10px" y="612.1854" clip-path="url(#clipPath2)" font-family="'Carlito'" stroke="none" xml:space="preserve">Read-Only</text>
      <text x="718.2789" font-size="10px" y="622.1854" clip-path="url(#clipPath2)" font-family="'Carlito'" stroke="none" xml:space="preserve">Root File System</text>
      <text x="729.5142" font-size="10px" y="632.1854" clip-path="url(#clipPath2)" font-family="'Carlito'" stroke="none" xml:space="preserve">(1024 MiB)</text>
      <text x="730.6617" font-size="10px" y="576.5053" clip-path="url(#clipPath2)" font-family="'Carlito'" stroke="none" xml:space="preserve">Partition 2</text>
      <text x="731.8653" font-size="10px" y="586.5053" clip-path="url(#clipPath2)" font-family="'Carlito'" stroke="none" xml:space="preserve">(rootfs_a)</text>
      <text x="728.1104" font-size="10px" y="657.8654" clip-path="url(#clipPath2)" font-family="'Carlito'" stroke="none" xml:space="preserve">mmcblk1p2</text>
      <text x="734.2872" font-size="10px" y="667.8654" clip-path="url(#clipPath2)" font-family="'Carlito'" stroke="none" xml:space="preserve">squashfs</text>
    </g>
    <g fill="rgb(153,204,255)" text-rendering="geometricPrecision" shape-rendering="geometricPrecision" transform="matrix(1,0,0,1,-302,-372)" stroke="rgb(153,204,255)">
      <rect x="791.2793" y="595.0053" clip-path="url(#clipPath2)" width="65.68" rx="4" ry="4" height="49.36" stroke="none"/>
    </g>
    <g text-rendering="geometricPrecision" stroke-miterlimit="1.45" shape-rendering="geometricPrecision" transform="matrix(1,0,0,1,-302,-372)" stroke-linecap="butt">
      <rect x="791.2793" y="595.0053" clip-path="url(#clipPath2)" fill="none" width="65.68" rx="4" ry="4" height="49.36"/>
      <text x="804.505" font-size="10px" y="607.1854" clip-path="url(#clipPath2)" font-family="'Carlito'" stroke="none" xml:space="preserve">FIT Image</text>
      <text x="811.0284" font-size="10px" y="617.1854" clip-path="url(#clipPath2)" font-family="'Carlito'" stroke="none" xml:space="preserve">Kernel</text>
      <text x="799.5929" font-size="10px" y="627.1854" clip-path="url(#clipPath2)" font-family="'Carlito'" stroke="none" xml:space="preserve">DTB + DTBO</text>
      <text x="804.212" font-size="10px" y="637.1854" clip-path="url(#clipPath2)" font-family="'Carlito'" stroke="none" xml:space="preserve">(128 MiB)</text>
      <text x="802.8253" font-size="10px" y="576.5053" clip-path="url(#clipPath2)" font-family="'Carlito'" stroke="none" xml:space="preserve">Partition 3</text>
      <text x="803.2037" font-size="10px" y="586.5053" clip-path="url(#clipPath2)" font-family="'Carlito'" stroke="none" xml:space="preserve">(kernel_b)</text>
      <text x="800.274" font-size="10px" y="657.8654" clip-path="url(#clipPath2)" font-family="'Carlito'" stroke="none" xml:space="preserve">mmcblk1p3</text>
      <text x="815.257" font-size="10px" y="667.8654" clip-path="url(#clipPath2)" font-family="'Carlito'" stroke="none" xml:space="preserve">ext4</text>
    </g>
    <g fill="rgb(153,204,255)" text-rendering="geometricPrecision" shape-rendering="geometricPrecision" transform="matrix(1,0,0,1,-302,-372)" stroke="rgb(153,204,255)">
      <rect x="856.9593" y="595.0053" clip-path="url(#clipPath2)" width="78.6472" rx="4" ry="4" height="49.36" stroke="none"/>
    </g>
    <g text-rendering="geometricPrecision" stroke-miterlimit="1.45" shape-rendering="geometricPrecision" transform="matrix(1,0,0,1,-302,-372)" stroke-linecap="butt">
      <rect x="856.9593" y="595.0053" clip-path="url(#clipPath2)" fill="none" width="78.6472" rx="4" ry="4" height="49.36"/>
      <text x="875.1793" font-size="10px" y="612.1854" clip-path="url(#clipPath2)" font-family="'Carlito'" stroke="none" xml:space="preserve">Read-Only</text>
      <text x="862.6061" font-size="10px" y="622.1854" clip-path="url(#clipPath2)" font-family="'Carlito'" stroke="none" xml:space="preserve">Root File System</text>
      <text x="873.8414" font-size="10px" y="632.1854" clip-path="url(#clipPath2)" font-family="'Carlito'" stroke="none" xml:space="preserve">(1024 MiB)</text>
      <text x="874.9889" font-size="10px" y="576.5053" clip-path="url(#clipPath2)" font-family="'Carlito'" stroke="none" xml:space="preserve">Partition 4</text>
      <text x="875.9606" font-size="10px" y="586.5053" clip-path="url(#clipPath2)" font-family="'Carlito'" stroke="none" xml:space="preserve">(rootfs_b)</text>
      <text x="872.4376" font-size="10px" y="657.8654" clip-path="url(#clipPath2)" font-family="'Carlito'" stroke="none" xml:space="preserve">mmcblk1p4</text>
      <text x="878.6144" font-size="10px" y="667.8654" clip-path="url(#clipPath2)" font-family="'Carlito'" stroke="none" xml:space="preserve">squashfs</text>
    </g>
    <g fill="rgb(229,242,255)" text-rendering="geometricPrecision" shape-rendering="geometricPrecision" transform="matrix(1,0,0,1,-302,-372)" stroke="rgb(229,242,255)">
      <rect x="791.2793" y="500.8373" clip-path="url(#clipPath2)" width="144.3272" rx="4" ry="4" height="49.36" stroke="none"/>
    </g>
    <g text-rendering="geometricPrecision" stroke-miterlimit="1.45" shape-rendering="geometricPrecision" transform="matrix(1,0,0,1,-302,-372)" stroke-linecap="butt">
      <rect x="791.2793" y="500.8373" clip-path="url(#clipPath2)" fill="none" width="144.3272" rx="4" ry="4" height="49.36"/>
      <text x="844.9199" font-size="10px" y="518.0173" clip-path="url(#clipPath2)" font-family="'Carlito'" stroke="none" xml:space="preserve">System B</text>
      <text x="806.7656" font-size="10px" y="528.0173" clip-path="url(#clipPath2)" font-family="'Carlito'" stroke="none" xml:space="preserve">Kernel and Root File System</text>
      <text x="841.0015" font-size="10px" y="538.0173" clip-path="url(#clipPath2)" font-family="'Carlito'" stroke="none" xml:space="preserve">(1156 MiB)</text>
    </g>
    <g fill="rgb(242,229,255)" text-rendering="geometricPrecision" shape-rendering="geometricPrecision" transform="matrix(1,0,0,1,-302,-372)" stroke="rgb(242,229,255)">
      <rect x="935.6065" y="500.8373" clip-path="url(#clipPath2)" width="165.7636" rx="4" ry="4" height="49.36" stroke="none"/>
    </g>
    <g text-rendering="geometricPrecision" stroke-miterlimit="1.45" shape-rendering="geometricPrecision" transform="matrix(1,0,0,1,-302,-372)" stroke-linecap="butt">
      <rect x="935.6065" y="500.8373" clip-path="url(#clipPath2)" fill="none" width="165.7636" rx="4" ry="4" height="49.36"/>
      <text x="998.4224" font-size="10px" y="523.0173" clip-path="url(#clipPath2)" font-family="'Carlito'" stroke="none" xml:space="preserve">User Data</text>
      <text x="996.0469" font-size="10px" y="533.0173" clip-path="url(#clipPath2)" font-family="'Carlito'" stroke="none" xml:space="preserve">(1331 MiB)</text>
    </g>
    <g fill="rgb(255,178,127)" text-rendering="geometricPrecision" shape-rendering="geometricPrecision" transform="matrix(1,0,0,1,-302,-372)" stroke="rgb(255,178,127)">
      <rect x="448.4712" y="500.8373" clip-path="url(#clipPath2)" width="57.7043" rx="4" ry="4" height="49.36" stroke="none"/>
    </g>
    <g text-rendering="geometricPrecision" stroke-miterlimit="1.45" shape-rendering="geometricPrecision" transform="matrix(1,0,0,1,-302,-372)" stroke-linecap="butt">
      <rect x="448.4712" y="500.8373" clip-path="url(#clipPath2)" fill="none" width="57.7043" rx="4" ry="4" height="49.36"/>
      <text x="462.9166" font-size="10px" y="518.0173" clip-path="url(#clipPath2)" font-family="'Carlito'" stroke="none" xml:space="preserve">U-Boot</text>
      <text x="465.1114" font-size="10px" y="528.0173" clip-path="url(#clipPath2)" font-family="'Carlito'" stroke="none" xml:space="preserve">(up to</text>
      <text x="464.0006" font-size="10px" y="538.0173" clip-path="url(#clipPath2)" font-family="'Carlito'" stroke="none" xml:space="preserve">2 MiB)</text>
      <text x="467.2672" font-size="10px" y="563.6973" clip-path="url(#clipPath2)" font-family="'Carlito'" stroke="none" xml:space="preserve">RAW</text>
    </g>
    <g fill="silver" text-rendering="geometricPrecision" shape-rendering="geometricPrecision" transform="matrix(1,0,0,1,-302,-372)" stroke="silver">
      <rect x="349.1328" y="500.8373" clip-path="url(#clipPath2)" width="23.268" rx="4" ry="4" height="49.36" stroke="none"/>
    </g>
    <g text-rendering="geometricPrecision" stroke-miterlimit="1.45" shape-rendering="geometricPrecision" transform="matrix(1,0,0,1,-302,-372)" stroke-linecap="butt">
      <rect x="349.1328" y="500.8373" clip-path="url(#clipPath2)" fill="none" width="23.268" rx="4" ry="4" height="49.36"/>
    </g>
    <g font-size="8px" stroke-linecap="butt" transform="matrix(-0,-1,1,-0,48.7668,172.1637)" text-rendering="geometricPrecision" font-family="'Carlito'" shape-rendering="geometricPrecision" stroke-miterlimit="1.45">
      <text x="2" xml:space="preserve" y="8" clip-path="url(#clipPath5)" stroke="none">Protective</text>
      <text x="2.8496" xml:space="preserve" y="16" clip-path="url(#clipPath5)" stroke="none">MBR HDR</text>
    </g>
    <g fill="rgb(0,204,255)" text-rendering="geometricPrecision" shape-rendering="geometricPrecision" transform="matrix(1,0,0,1,-302,-372)" stroke="rgb(0,204,255)">
      <rect x="372.4008" y="500.8373" clip-path="url(#clipPath2)" width="23.268" rx="4" ry="4" height="49.36" stroke="none"/>
    </g>
    <g text-rendering="geometricPrecision" stroke-miterlimit="1.45" shape-rendering="geometricPrecision" transform="matrix(1,0,0,1,-302,-372)" stroke-linecap="butt">
      <rect x="372.4008" y="500.8373" clip-path="url(#clipPath2)" fill="none" width="23.268" rx="4" ry="4" height="49.36"/>
    </g>
    <g font-size="8px" stroke-linecap="butt" transform="matrix(-0,-1,1,-0,72.0348,170.0856)" text-rendering="geometricPrecision" font-family="'Carlito'" shape-rendering="geometricPrecision" stroke-miterlimit="1.45">
      <text x="3.873" xml:space="preserve" y="8" clip-path="url(#clipPath6)" stroke="none">Primary</text>
      <text x="2" xml:space="preserve" y="16" clip-path="url(#clipPath6)" stroke="none">GPT HDR</text>
    </g>
    <g fill="rgb(0,204,255)" text-rendering="geometricPrecision" shape-rendering="geometricPrecision" transform="matrix(1,0,0,1,-302,-372)" stroke="rgb(0,204,255)">
      <rect x="1101.3701" y="500.8373" clip-path="url(#clipPath2)" width="23.268" rx="4" ry="4" height="49.36" stroke="none"/>
    </g>
    <g text-rendering="geometricPrecision" stroke-miterlimit="1.45" shape-rendering="geometricPrecision" transform="matrix(1,0,0,1,-302,-372)" stroke-linecap="butt">
      <rect x="1101.3701" y="500.8373" clip-path="url(#clipPath2)" fill="none" width="23.268" rx="4" ry="4" height="49.36"/>
    </g>
    <g font-size="8px" stroke-linecap="butt" transform="matrix(-0,-1,1,-0,801.0041,172.4704)" text-rendering="geometricPrecision" font-family="'Carlito'" shape-rendering="geometricPrecision" stroke-miterlimit="1.45">
      <text x="2" xml:space="preserve" y="8" clip-path="url(#clipPath7)" stroke="none">Secondary</text>
      <text x="4.3848" xml:space="preserve" y="16" clip-path="url(#clipPath7)" stroke="none">GPT HDR</text>
    </g>
    <g stroke-linecap="butt" font-size="8px" transform="matrix(0.7071,-0.7071,0.7071,0.7071,93.8483,107.7962)" fill="gray" text-rendering="geometricPrecision" font-family="'Consolas'" shape-rendering="geometricPrecision" stroke="gray" stroke-miterlimit="1.45">
      <text x="0" xml:space="preserve" y="5.9414" clip-path="url(#clipPath8)" stroke="none">0x00020000</text>
      <text x="0" xml:space="preserve" y="13.9414" clip-path="url(#clipPath8)" stroke="none">+128 KiB</text>
    </g>
    <g stroke-linecap="butt" font-size="8px" transform="matrix(0.7071,-0.7071,0.7071,0.7071,332.7878,107.7962)" fill="gray" text-rendering="geometricPrecision" font-family="'Consolas'" shape-rendering="geometricPrecision" stroke="gray" stroke-miterlimit="1.45">
      <text x="0" xml:space="preserve" y="5.9414" clip-path="url(#clipPath9)" stroke="none">0x00300000</text>
      <text x="0" xml:space="preserve" y="13.9414" clip-path="url(#clipPath9)" stroke="none">+3 MiB</text>
    </g>
    <g stroke-linecap="butt" font-size="8px" transform="matrix(0.7071,-0.7071,0.7071,0.7071,132.895,107.7962)" fill="gray" text-rendering="geometricPrecision" font-family="'Consolas'" shape-rendering="geometricPrecision" stroke="gray" stroke-miterlimit="1.45">
      <text x="0" xml:space="preserve" y="5.9414" clip-path="url(#clipPath10)" stroke="none">0x00080000</text>
      <text x="0" xml:space="preserve" y="13.9414" clip-path="url(#clipPath10)" stroke="none">+512 KiB</text>
    </g>
    <g stroke-linecap="butt" font-size="8px" transform="matrix(0.7071,-0.7071,0.7071,0.7071,246.8475,107.7962)" fill="gray" text-rendering="geometricPrecision" font-family="'Consolas'" shape-rendering="geometricPrecision" stroke="gray" stroke-miterlimit="1.45">
      <text x="0" xml:space="preserve" y="5.9414" clip-path="url(#clipPath11)" stroke="none">0x002c0000</text>
      <text x="0" xml:space="preserve" y="13.9414" clip-path="url(#clipPath11)" stroke="none">+2.75 MiB</text>
    </g>
    <g fill="rgb(158,255,0)" text-rendering="geometricPrecision" shape-rendering="geometricPrecision" transform="matrix(1,0,0,1,-302,-372)" stroke="rgb(158,255,0)">
      <rect x="514.5065" y="500.8373" clip-path="url(#clipPath2)" width="40.2125" rx="4" ry="4" height="49.36" stroke="none"/>
    </g>
    <g text-rendering="geometricPrecision" stroke-miterlimit="1.45" shape-rendering="geometricPrecision" transform="matrix(1,0,0,1,-302,-372)" stroke-linecap="butt">
      <rect x="514.5065" y="500.8373" clip-path="url(#clipPath2)" fill="none" width="40.2125" rx="4" ry="4" height="49.36"/>
      <text x="520.206" font-size="10px" y="518.0173" clip-path="url(#clipPath2)" font-family="'Carlito'" stroke="none" xml:space="preserve">U-Boot</text>
      <text x="519.5737" font-size="10px" y="528.0173" clip-path="url(#clipPath2)" font-family="'Carlito'" stroke="none" xml:space="preserve">Startup</text>
      <text x="523.0087" font-size="10px" y="538.0173" clip-path="url(#clipPath2)" font-family="'Carlito'" stroke="none" xml:space="preserve">Script</text>
      <text x="524.5566" font-size="10px" y="563.6973" clip-path="url(#clipPath2)" font-family="'Carlito'" stroke="none" xml:space="preserve">RAW</text>
    </g>
    <g stroke-linecap="butt" font-size="8px" transform="matrix(0.7071,-0.7071,0.7071,0.7071,200.0823,107.7962)" fill="gray" text-rendering="geometricPrecision" font-family="'Consolas'" shape-rendering="geometricPrecision" stroke="gray" stroke-miterlimit="1.45">
      <text x="0" xml:space="preserve" y="5.9414" clip-path="url(#clipPath12)" stroke="none">0x00280000</text>
      <text x="0" xml:space="preserve" y="13.9414" clip-path="url(#clipPath12)" stroke="none">+2.5 MiB</text>
    </g>
    <g fill="rgb(158,255,0)" text-rendering="geometricPrecision" shape-rendering="geometricPrecision" transform="matrix(1,0,0,1,-302,-372)" stroke="rgb(158,255,0)">
      <rect x="604.7878" y="500.8373" clip-path="url(#clipPath2)" width="42.1642" rx="4" ry="4" height="49.36" stroke="none"/>
    </g>
    <g text-rendering="geometricPrecision" stroke-miterlimit="1.45" shape-rendering="geometricPrecision" transform="matrix(1,0,0,1,-302,-372)" stroke-linecap="butt">
      <rect x="604.7878" y="500.8373" clip-path="url(#clipPath2)" fill="none" width="42.1642" rx="4" ry="4" height="49.36"/>
      <text x="611.4632" font-size="10px" y="518.0173" clip-path="url(#clipPath2)" font-family="'Carlito'" stroke="none" xml:space="preserve">U-Boot</text>
      <text x="612.3885" font-size="10px" y="528.0173" clip-path="url(#clipPath2)" font-family="'Carlito'" stroke="none" xml:space="preserve">Env #2</text>
      <text x="607.64" font-size="10px" y="538.0173" clip-path="url(#clipPath2)" font-family="'Carlito'" stroke="none" xml:space="preserve">(128 KiB)</text>
      <text x="615.8138" font-size="10px" y="563.6973" clip-path="url(#clipPath2)" font-family="'Carlito'" stroke="none" xml:space="preserve">RAW</text>
    </g>
    <g stroke-linecap="butt" font-size="8px" transform="matrix(0.7071,-0.7071,0.7071,0.7071,289.0118,107.7962)" fill="gray" text-rendering="geometricPrecision" font-family="'Consolas'" shape-rendering="geometricPrecision" stroke="gray" stroke-miterlimit="1.45">
      <text x="0" xml:space="preserve" y="5.9414" clip-path="url(#clipPath13)" stroke="none">0x002e0000</text>
      <text x="0" xml:space="preserve" y="13.9414" clip-path="url(#clipPath13)" stroke="none">+2.875 MiB</text>
    </g>
    <g text-rendering="geometricPrecision" stroke-miterlimit="1.45" stroke-dasharray="6,2" shape-rendering="geometricPrecision" transform="matrix(1,0,0,1,-302,-372)" stroke-linecap="butt">
      <path fill="none" d="M646.9417 525.5173 L646.9509 619.6854" clip-path="url(#clipPath2)"/>
      <path fill="none" d="M791.2689 525.5173 L791.278 619.6854" clip-path="url(#clipPath2)"/>
      <path fill="none" d="M1101.3367 598.4883 L1101.3569 546.5035" clip-path="url(#clipPath2)"/>
      <path fill="none" d="M935.6293 546.6223 L935.6293 598.6013" clip-path="url(#clipPath2)"/>
      <path fill="none" stroke-dasharray="none" d="M404.2562 491.1099 L404.2407 500.8731" clip-path="url(#clipPath2)" stroke="gray"/>
      <path fill="none" stroke-dasharray="none" d="M646.5561 491.1099 L646.9623 504.54" clip-path="url(#clipPath2)" stroke="gray"/>
      <path fill="none" stroke-dasharray="none" d="M447.8652 491.1099 L447.8652 502.7058" clip-path="url(#clipPath2)" stroke="gray"/>
      <path fill="none" stroke-dasharray="none" d="M561.8177 491.1099 L561.8177 500.8035" clip-path="url(#clipPath2)" stroke="gray"/>
      <path fill="none" stroke-dasharray="none" d="M515.0524 491.1099 L515.0524 500.8628" clip-path="url(#clipPath2)" stroke="gray"/>
      <path fill="none" stroke-dasharray="none" d="M604.1218 491.1099 L604.5081 503.3777" clip-path="url(#clipPath2)" stroke="gray"/>
    </g>
  </g>
</svg>
