<?xml version="1.0" encoding="UTF-8" standalone="no"?>
<!-- Created with Inkscape (http://www.inkscape.org/) -->
<svg
   xmlns:svg="http://www.w3.org/2000/svg"
   xmlns="http://www.w3.org/2000/svg"
   version="1.0"
   width="617.59839"
   height="245.55118"
   id="svg63728">
  <defs
     id="defs63730">
    <clipPath
       id="clp10">
<path
   d="M 0.5,842.5 L 595.5,842.5 L 595.5,0.5 L 0.5,0.5 L 0.5,842.5 z "
   id="path66372" />

</clipPath>
    <clipPath
       id="clp9">
<path
   d="M -1,843 L 596,843 L 596,-1 L -1,-1 L -1,843 z "
   id="path66366" />

</clipPath>
    <clipPath
       id="clp11">
<path
   d="M 473.94,501.28 L 533.19,501.28 L 533.19,451.22 L 473.94,451.22 L 473.94,501.28 z "
   id="path66380" />

</clipPath>
    <clipPath
       id="clp3">
<path
   d="M 0.5,842.5 L 595.5,842.5 L 595.5,0.5 L 0.5,0.5 L 0.5,842.5 z "
   id="path66260" />

</clipPath>
    <clipPath
       id="clp2">
<path
   d="M -1,843 L 596,843 L 596,-1 L -1,-1 L -1,843 z "
   id="path66254" />

</clipPath>
    <clipPath
       id="clp4">
<path
   d="M 210.04,244.79 L 273,244.79 L 273,181.83 L 210.04,181.83 L 210.04,244.79 z "
   id="path66268" />

</clipPath>
    <clipPath
       id="clp5">
<path
   d="M 210.04,244.79 L 273,244.79 L 273,193.25 L 210.04,193.25 L 210.04,244.79 z "
   id="path66276" />

</clipPath>
    <clipPath
       id="clp6">
<path
   d="M 232.71,228.15 C 232.71,231.12 235.12,233.53 238.1,233.53 C 241.07,233.53 243.48,231.12 243.48,228.15 C 243.48,225.17 241.07,222.76 238.1,222.76 C 235.12,222.76 232.71,225.17 232.71,228.15"
   id="path66288" />

</clipPath>
    <clipPath
       id="clp7">
<path
   d="M 210.04,244.79 L 273,244.79 L 273,193.25 L 210.04,193.25 L 210.04,244.79 z "
   id="path66306" />

</clipPath>
    <clipPath
       id="clp8">
<path
   d="M 210.04,244.79 L 273,244.79 L 273,193.25 L 210.04,193.25 L 210.04,244.79 z "
   id="path66356" />

</clipPath>
    <clipPath
       id="clp13">
<path
   d="M 0.5,842.5 L 595.5,842.5 L 595.5,0.5 L 0.5,0.5 L 0.5,842.5 z "
   id="path66514" />

</clipPath>
    <clipPath
       id="clp12">
<path
   d="M -1,843 L 596,843 L 596,-1 L -1,-1 L -1,843 z "
   id="path66508" />

</clipPath>
  </defs>
  <g
     transform="translate(-8209.368,2574.252)"
     id="layer1">
    <g
       transform="translate(17.75014,17.74984)"
       id="g94366">
      <path
         d="M 8558.4653,-2574.2468 L 8546.7154,-2574.2468 L 8503.1657,-2504.427 L 8459.6161,-2574.2468 L 8447.7584,-2574.2468 L 8447.7584,-2364.2005 L 8459.6161,-2364.2005 L 8503.1657,-2434.0147 L 8546.7154,-2364.2005 L 8558.627,-2364.2005 L 8558.4653,-2364.373 L 8558.4653,-2574.2468 z "
         style="fill:#8baed9;fill-rule:nonzero;stroke:none"
         id="path93967" />
      <path
         d="M 8447.7584,-2574.2468 L 8383.1885,-2574.2468 L 8447.7045,-2469.2262 L 8383.1885,-2364.2005 L 8447.7584,-2364.2005 L 8447.7584,-2574.2468 z "
         style="fill:#8f833e;fill-rule:nonzero;stroke:none"
         id="path93969" />
      <path
         d="M 8623.0891,-2574.2468 L 8558.4653,-2574.2468 L 8558.4653,-2364.373 L 8558.627,-2364.2005 L 8623.0891,-2364.2113 L 8558.627,-2469.2262 L 8623.0891,-2574.2468 z "
         style="fill:#7d963d;fill-rule:nonzero;stroke:none"
         id="path93971" />
      <path
         d="M 8731.2622,-2489.5026 C 8731.2622,-2477.0469 8725.4414,-2462.7207 8710.2419,-2462.7207 L 8623.1969,-2462.7207 L 8623.1969,-2522.1382 L 8704.7445,-2522.1382 C 8724.2556,-2522.1382 8731.2622,-2514.0316 8731.2622,-2499.8459 L 8731.2622,-2489.5026 z M 8715.1468,-2574.2468 L 8623.0891,-2574.2468 L 8558.627,-2469.2262 L 8623.0891,-2364.2113 L 8623.0891,-2364.2113 L 8623.0891,-2410.6069 L 8732.0168,-2410.6069 C 8777.7764,-2410.6069 8791.4666,-2446.5084 8791.4666,-2477.7744 L 8791.4666,-2502.4547 C 8791.4666,-2543.5681 8776.5906,-2574.2468 8715.1468,-2574.2468"
         style="fill:#c9d121;fill-rule:nonzero;stroke:none"
         id="path93973" />
      <path
         d="M 8447.7045,-2469.2262 L 8383.1885,-2574.2468 L 8383.1885,-2574.252 L 8383.1885,-2447.3169 L 8273.9374,-2574.252 L 8209.3675,-2574.252 L 8209.3675,-2364.2005 L 8273.9913,-2364.2113 L 8273.9374,-2491.1304 L 8383.1885,-2364.2005 L 8447.7045,-2469.2262 z "
         style="fill:#e8b410;fill-rule:nonzero;stroke:none"
         id="path93975" />
    </g>
  </g>
</svg>
