<?xml version="1.0" encoding="UTF-8"?>
<svg width="173.1" height="34.8" version="1.1" viewBox="0 0 173.1 34.8" xml:space="preserve" xmlns="http://www.w3.org/2000/svg" xmlns:cc="http://creativecommons.org/ns#" xmlns:dc="http://purl.org/dc/elements/1.1/" xmlns:rdf="http://www.w3.org/1999/02/22-rdf-syntax-ns#"><title>Xilinx logo</title><desc>A company based in San Jose, California, United States that specialised in programmable logic devices</desc><metadata><rdf:RDF><dc:format>image/svg+xml</dc:format><dc:type rdf:resource="http://purl.org/dc/dcmitype/StillImage"/><dc:title/></rdf:RDF></metadata>
<style type="text/css">
	.st0{fill:#E01F27;}
	.st1{fill:#801517;}
	.st2{fill:#FFFFFF;}
	.st3{fill:#171C2D;}
</style>
<polygon class="st0" points="18.7 0 11.1 8.7 0 8.7 7.6 0"/>
<polygon class="st1" points="18.7 17.4 11.1 8.7 0 8.7 7.6 17.4"/>
<polygon class="st0" points="18.7 17.4 11.1 26.1 0 26.1 7.6 17.4"/>
<polygon class="st1" points="18.7 34.8 11.1 26.1 0 26.1 7.6 34.8"/>
<polygon class="st0" points="26.3 8.7 33.8 0 18.7 0"/>
<polygon class="st1" points="26.3 26.1 33.8 34.8 18.7 34.8"/>
<polygon class="st2" points="53 34.8 48.3 34.8 58.9 17 48.9 0 53.8 0 61.2 13.3 68.7 0 73.5 0 63.5 17 74.3 34.8 69.4 34.8 61.2 20.7" style="fill:#171c2d"/>
<rect class="st2" x="76.8" width="4.2" height="34.8" style="fill:#171c2d"/>
<polygon class="st2" points="91 0 91 31 105.2 31 105.2 34.8 86.8 34.8 86.8 0" style="fill:#171c2d"/>
<rect class="st2" x="108.7" width="4.2" height="34.8" style="fill:#171c2d"/>
<polygon class="st2" points="122.9 34.8 118.7 34.8 118.7 0 122.6 0 140.4 26.8 140.4 0 144.5 0 144.5 34.8 140.7 34.8 122.9 7.9" style="fill:#171c2d"/>
<polygon class="st2" points="151.8 34.8 147.1 34.8 157.7 17 147.8 0 152.6 0 160.1 13.3 167.5 0 172.4 0 162.3 17 173.1 34.8 168.2 34.8 160.1 20.7" style="fill:#171c2d"/>
</svg>
