<?xml version="1.0" encoding="UTF-8" standalone="no"?>
<!-- Created with Inkscape (http://www.inkscape.org/) -->

<svg
   xmlns:dc="http://purl.org/dc/elements/1.1/"
   xmlns:cc="http://creativecommons.org/ns#"
   xmlns:rdf="http://www.w3.org/1999/02/22-rdf-syntax-ns#"
   xmlns:svg="http://www.w3.org/2000/svg"
   xmlns="http://www.w3.org/2000/svg"
   xmlns:sodipodi="http://sodipodi.sourceforge.net/DTD/sodipodi-0.dtd"
   xmlns:inkscape="http://www.inkscape.org/namespaces/inkscape"
   width="125.19985"
   height="69.149971"
   viewBox="0 0 33.125793 18.29593"
   version="1.1"
   id="svg12315"
   inkscape:version="0.92.0 r15299"
   sodipodi:docname="sierra wireless.svg">
  <defs
     id="defs12309" />
  <sodipodi:namedview
     id="base"
     pagecolor="#ffffff"
     bordercolor="#666666"
     borderopacity="1.0"
     inkscape:pageopacity="0.0"
     inkscape:pageshadow="2"
     inkscape:zoom="7.2222311"
     inkscape:cx="62.099926"
     inkscape:cy="34.074602"
     inkscape:document-units="mm"
     inkscape:current-layer="layer1"
     showgrid="false"
     fit-margin-top="0"
     fit-margin-left="0"
     fit-margin-right="0"
     fit-margin-bottom="0"
     units="px"
     inkscape:window-width="1280"
     inkscape:window-height="744"
     inkscape:window-x="-4"
     inkscape:window-y="-4"
     inkscape:window-maximized="1" />
  <metadata
     id="metadata12312">
    <rdf:RDF>
      <cc:Work
         rdf:about="">
        <dc:format>image/svg+xml</dc:format>
        <dc:type
           rdf:resource="http://purl.org/dc/dcmitype/StillImage" />
        <dc:title></dc:title>
      </cc:Work>
    </rdf:RDF>
  </metadata>
  <g
     inkscape:label="Layer 1"
     inkscape:groupmode="layer"
     id="layer1"
     transform="translate(-81.087254,-133.50536)">
    <g
       id="g12450"
       transform="translate(0.13229174,-0.13229152)">
      <path
         inkscape:connector-curvature="0"
         id="path11632"
         style="fill:#666666;fill-opacity:1;fill-rule:nonzero;stroke:none;stroke-width:0.35277778"
         d="m 84.228538,149.55796 h -0.0074 l -0.724253,2.17734 h -0.430742 l -0.863953,-2.62643 h 0.422275 l 0.673453,2.1336 h 0.0071 l 0.702733,-2.1336 h 0.46355 l 0.721078,2.1336 h 0.0074 l 0.669572,-2.1336 h 0.404637 l -0.890412,2.62643 h -0.426508 z" />
      <path
         d="m 87.446438,149.10891 h 0.39017 v 2.62608 h -0.39017 z"
         style="fill:#666666;fill-opacity:1;fill-rule:nonzero;stroke:none;stroke-width:0.35277778"
         id="path11634"
         inkscape:connector-curvature="0" />
      <path
         inkscape:connector-curvature="0"
         id="path11638"
         style="fill:#666666;fill-opacity:1;fill-rule:nonzero;stroke:none;stroke-width:0.35277778"
         d="m 89.333223,149.10902 h 1.625953 c 0.525991,0 0.717197,0.36407 0.717197,0.6985 0,0.32067 -0.154869,0.55527 -0.441678,0.64735 v 0.008 c 0.231775,0.0332 0.367947,0.24976 0.382764,0.5588 0.02223,0.4893 0.03704,0.61101 0.125236,0.71367 h -0.412397 c -0.06244,-0.073 -0.06244,-0.18345 -0.08079,-0.49954 -0.02575,-0.47131 -0.183445,-0.61489 -0.506942,-0.61489 h -1.019528 v 1.11443 h -0.389819 z m 1.478844,1.17334 c 0.382764,0 0.474134,-0.23142 0.474134,-0.41522 0,-0.25047 -0.150636,-0.4191 -0.463197,-0.4191 h -1.099962 v 0.83432 z" />
      <path
         inkscape:connector-curvature="0"
         id="path11642"
         style="fill:#666666;fill-opacity:1;fill-rule:nonzero;stroke:none;stroke-width:0.35277778"
         d="m 92.99294,149.10902 h 2.111022 v 0.33902 h -1.721203 v 0.76059 h 1.67005 v 0.33866 h -1.67005 v 0.84914 h 1.758245 v 0.33867 H 92.99294 Z" />
      <path
         inkscape:connector-curvature="0"
         id="path11646"
         style="fill:#666666;fill-opacity:1;fill-rule:nonzero;stroke:none;stroke-width:0.35277778"
         d="m 96.479487,149.10902 h 0.389467 v 2.28741 h 1.597025 v 0.33867 h -1.986492 z" />
      <path
         inkscape:connector-curvature="0"
         id="path11650"
         style="fill:#666666;fill-opacity:1;fill-rule:nonzero;stroke:none;stroke-width:0.35277778"
         d="m 99.664541,149.10902 h 2.111379 v 0.33902 h -1.72191 v 0.76059 h 1.67005 v 0.33866 h -1.67005 v 0.84914 h 1.75859 v 0.33867 h -2.148059 z" />
      <path
         inkscape:connector-curvature="0"
         id="path11654"
         style="fill:#666666;fill-opacity:1;fill-rule:nonzero;stroke:none;stroke-width:0.35277778"
         d="m 103.3014,150.87104 c 0.007,0.47061 0.44979,0.59161 0.84631,0.59161 0.41558,0 0.70979,-0.15734 0.70979,-0.4445 0,-0.23918 -0.18768,-0.33867 -0.4893,-0.39017 l -0.59549,-0.0988 c -0.31327,-0.0519 -0.77999,-0.17674 -0.77999,-0.68827 0,-0.47766 0.37888,-0.79834 1.05234,-0.79834 0.52563,0 1.08126,0.19121 1.11795,0.82444 h -0.38982 c -0.0335,-0.20672 -0.15134,-0.48577 -0.77999,-0.48577 -0.28681,0 -0.61137,0.12136 -0.61137,0.43039 0,0.16228 0.10725,0.29069 0.4311,0.34572 l 0.64346,0.10971 c 0.20638,0.037 0.79093,0.13618 0.79093,0.67381 0,0.66922 -0.59901,0.86042 -1.12924,0.86042 -0.59231,0 -1.2065,-0.20531 -1.2065,-0.93027 z" />
      <path
         inkscape:connector-curvature="0"
         id="path11658"
         style="fill:#666666;fill-opacity:1;fill-rule:nonzero;stroke:none;stroke-width:0.35277778"
         d="m 106.63718,150.87104 c 0.008,0.47061 0.44909,0.59161 0.84631,0.59161 0.41558,0 0.70944,-0.15734 0.70944,-0.4445 0,-0.23918 -0.18697,-0.33867 -0.4893,-0.39017 l -0.59514,-0.0988 c -0.31256,-0.0519 -0.77999,-0.17674 -0.77999,-0.68827 0,-0.47766 0.37888,-0.79834 1.05198,-0.79834 0.52599,0 1.08162,0.19121 1.11866,0.82444 h -0.39052 c -0.0328,-0.20672 -0.15064,-0.48577 -0.77964,-0.48577 -0.28681,0 -0.60996,0.12136 -0.60996,0.43039 0,0.16228 0.10548,0.29069 0.42969,0.34572 l 0.64346,0.10971 c 0.20603,0.037 0.79093,0.13618 0.79093,0.67381 0,0.66922 -0.59901,0.86042 -1.12924,0.86042 -0.59231,0 -1.2065,-0.20531 -1.2065,-0.93027 z" />
      <path
         inkscape:connector-curvature="0"
         id="path11662"
         style="fill:#666666;fill-opacity:1;fill-rule:nonzero;stroke:none;stroke-width:0.35277778"
         d="m 83.008835,143.34102 c 0.636411,0 1.909939,0.11571 2.019653,1.3141 h -0.937331 c -0.02928,-0.31821 -0.318558,-0.66534 -1.041753,-0.66534 -0.578908,0 -0.960613,0.17886 -0.960613,0.56621 0,0.9726 3.079044,0.0409 3.079044,1.80587 0,1.06538 -1.105958,1.34267 -1.985081,1.34267 -1.486958,0 -2.083505,-0.5842 -2.0955,-1.45239 h 0.937684 c 0.02328,0.54363 0.474839,0.80469 1.186744,0.80469 0.525992,0 1.01847,-0.15699 1.01847,-0.60784 0,-1.02482 -3.04412,-0.13264 -3.04412,-1.8288 0,-0.92004 0.815975,-1.27917 1.822803,-1.27917" />
      <path
         inkscape:connector-curvature="0"
         id="path11666"
         style="fill:#666666;fill-opacity:1;fill-rule:nonzero;stroke:none;stroke-width:0.35277778"
         d="m 86.706863,143.45691 c 0,0 -0.0014,3.75461 -0.0014,3.75885 0,0.23953 0.194028,0.43286 0.433917,0.43286 0.23883,0 0.433563,-0.19333 0.433563,-0.43286 0,-10e-4 0.0014,-3.75885 0.0014,-3.75885 z" />
      <path
         inkscape:connector-curvature="0"
         id="path11670"
         style="fill:#666666;fill-opacity:1;fill-rule:nonzero;stroke:none;stroke-width:0.35277778"
         d="m 92.453032,145.14683 c 0.179917,0 0.324203,0.14358 0.324203,0.32279 0,0.17921 -0.145345,0.32385 -0.325261,0.32385 h -0.0014 v 0.002 h -2.200275 v 1.14582 h 2.766483 v 0.6477 h -3.634669 v -4.13174 h 3.588102 v 0.64806 h -2.719916 v 1.0421 h 2.175227 z" />
      <path
         inkscape:connector-curvature="0"
         id="path11674"
         style="fill:#666666;fill-opacity:1;fill-rule:nonzero;stroke:none;stroke-width:0.35277778"
         d="m 108.2249,143.45691 h -1.00824 l -1.57938,3.55036 c -0.0279,0.0705 -0.0536,0.13123 -0.0536,0.20566 0,0.24483 0.17639,0.44168 0.41981,0.44168 0.19614,0 0.34854,-0.13476 0.41804,-0.30727 l 0.0141,-0.0346 0.31927,-0.74824 h 1.94415 l 0.42863,1.02411 h 0.93803 z m -1.21003,2.45992 0.70662,-1.74237 0.71755,1.74237 z" />
      <path
         inkscape:connector-curvature="0"
         id="path11678"
         style="fill:#666666;fill-opacity:1;fill-rule:nonzero;stroke:none;stroke-width:0.35277778"
         d="m 104.27964,146.70353 c 0,-0.58491 -0.10971,-1.01212 -0.60219,-1.11689 v -0.0116 c 0.38805,-0.1217 0.68368,-0.45684 0.68368,-0.99553 0,-0.64206 -0.34219,-1.12254 -1.39523,-1.12254 h -2.61585 c 0,0 0.002,3.75778 0.002,3.75884 0,0.23954 0.19402,0.43286 0.43356,0.43286 0.23954,0 0.43321,-0.19332 0.43321,-0.43286 0,-0.004 -10e-4,-1.25835 -10e-4,-1.25835 h 1.47638 c 0.63606,0 0.71719,0.41627 0.71719,1.00647 0,0.30127 0.0402,0.50906 0.10407,0.62477 h 0.93769 c -0.16828,-0.22543 -0.17357,-0.68862 -0.17357,-0.88512 m -1.56316,-1.39453 h -1.4986 v -1.20368 h 1.4986 c 0.45755,0 0.74154,0.16828 0.74154,0.59549 0,0.46285 -0.26105,0.60819 -0.74154,0.60819" />
      <path
         inkscape:connector-curvature="0"
         id="path11682"
         style="fill:#666666;fill-opacity:1;fill-rule:nonzero;stroke:none;stroke-width:0.35277778"
         d="m 98.587502,146.70353 c 0,-0.58491 -0.109361,-1.01212 -0.601839,-1.11689 v -0.0116 c 0.387703,-0.1217 0.683331,-0.45684 0.683331,-0.99553 0,-0.64206 -0.341136,-1.12254 -1.395236,-1.12254 h -2.615142 c 0,0 0.0014,3.75778 0.0014,3.75884 0,0.23954 0.194028,0.43286 0.433564,0.43286 0.239536,0 0.433564,-0.19332 0.433564,-0.43286 0,-0.004 -3.53e-4,-1.25835 -3.53e-4,-1.25835 h 1.474964 c 0.636411,0 0.717903,0.41627 0.717903,1.00647 0,0.30127 0.04092,0.50906 0.104775,0.62477 h 0.936977 c -0.167922,-0.22543 -0.173919,-0.68862 -0.173919,-0.88512 M 97.025049,145.309 h -1.498247 v -1.20368 h 1.498247 c 0.456847,0 0.740834,0.16828 0.740834,0.59549 0,0.46285 -0.26035,0.60819 -0.740834,0.60819" />
      <path
         inkscape:connector-curvature="0"
         id="path11686"
         style="fill:#e53b30;fill-opacity:1;fill-rule:nonzero;stroke:none;stroke-width:0.35277778"
         d="m 108.96041,135.96663 c 0.18203,0.002 0.33267,0.15522 0.3496,0.35066 0,0.0233 0.004,0.22931 0.008,0.2727 0.0169,0.20108 0.12771,0.37853 0.29387,0.47413 0.0871,0.0547 0.18556,0.0836 0.28539,0.0836 0.0138,0 0.0275,-7.1e-4 0.0388,-0.002 0.0176,-3.6e-4 0.18733,-0.002 0.18838,-0.002 0.18274,0.002 0.33232,0.15487 0.34996,0.35595 0,0 0.0212,0.26917 0.0215,0.27658 0.0282,0.32244 0.30021,0.57256 0.60642,0.54716 0.14182,-0.0109 0.27235,-0.0787 0.36689,-0.1898 0.10266,-0.121 0.15311,-0.28328 0.13935,-0.44591 -0.0251,-0.2921 -0.25224,-0.52705 -0.53058,-0.5461 l -0.26282,-0.012 c -0.18662,-0.006 -0.33937,-0.15417 -0.35489,-0.3422 -10e-4,-0.025 -0.0127,-0.24553 -0.0155,-0.27728 -0.0127,-0.1591 -0.0854,-0.30409 -0.20144,-0.40675 -0.0861,-0.0801 -0.19121,-0.13053 -0.30233,-0.14499 -0.0388,-0.006 -0.0755,-0.007 -0.11853,-0.004 -0.0356,0 -0.17004,-0.002 -0.17145,-0.002 -0.18662,-0.006 -0.33902,-0.15487 -0.3549,-0.34572 l -0.0243,-0.28187 c -0.0243,-0.28011 -0.23178,-0.50871 -0.49248,-0.54328 -0.0409,-0.006 -0.0797,-0.008 -0.11888,-0.005 -0.27658,0.0215 -0.49389,0.26071 -0.50589,0.55845 l -0.006,0.28116 c -0.002,0.20144 -0.13512,0.36407 -0.30304,0.37818 -0.0236,10e-4 -0.22825,0.008 -0.25929,0.0106 -0.15275,0.0116 -0.29034,0.0882 -0.38453,0.21307 -0.0716,0.0896 -0.11536,0.19862 -0.12735,0.31468 -0.004,0.0423 -0.005,0.084 -0.002,0.121 7e-4,0.0176 0.002,0.19015 0.002,0.19015 -0.002,0.20214 -0.13441,0.36477 -0.30692,0.37888 l -0.26176,0.0208 c -0.25471,0.0197 -0.45932,0.21378 -0.49706,0.47096 -0.006,0.0377 -0.009,0.12523 -0.01,0.14358 l -0.006,0.25223 c 7e-4,0.1965 -0.13371,0.35631 -0.31398,0.37289 -0.0169,0 -0.0713,-0.002 -0.12629,-0.002 -0.0621,0 -0.10513,0.002 -0.13123,0.006 -0.19685,0.0279 -0.35701,0.14076 -0.43921,0.30868 -0.0557,0.10442 -0.0797,0.22331 -0.0695,0.34008 7.1e-4,0.0169 0.005,0.2032 0.005,0.2032 0.003,0.19861 -0.13299,0.35877 -0.31644,0.37288 -0.1457,0.006 -0.45685,0.0127 -0.45685,0.0127 -0.18203,-0.002 -0.33302,-0.15522 -0.3503,-0.35595 l -0.006,-0.0892 c -0.002,-0.0201 -7.1e-4,-0.0505 0,-0.0801 0,-0.037 0.001,-0.072 -0.001,-0.0988 -0.0162,-0.20144 -0.12876,-0.37959 -0.29633,-0.47519 -0.0988,-0.0607 -0.21626,-0.0882 -0.32315,-0.0797 l -0.0176,0.001 c -0.0155,7e-4 -0.0349,0.002 -0.0469,0.003 l -0.12276,-0.002 c -0.18204,-0.001 -0.33197,-0.15522 -0.34996,-0.35701 l -0.0212,-0.254 c 3.6e-4,-0.006 3.6e-4,-0.0134 -3.5e-4,-0.0215 -0.0275,-0.32243 -0.30127,-0.57079 -0.60607,-0.5468 -0.14182,0.0109 -0.27234,0.078 -0.36654,0.18944 -0.10265,0.12065 -0.15381,0.28258 -0.14005,0.44626 0.025,0.2921 0.25294,0.52635 0.53128,0.54575 l 0.26353,0.0116 c 0.18591,0.006 0.33867,0.15452 0.35419,0.3422 l 0.0102,0.21025 c 0.001,0.0254 0.002,0.0452 0.004,0.0674 0.0138,0.16016 0.0864,0.30586 0.2032,0.40781 0.0857,0.0794 0.18909,0.12877 0.2988,0.14323 0.0399,0.006 0.0776,0.007 0.11995,0.005 0.0346,0 0.17251,0.001 0.17251,0.001 0.18591,0.006 0.33831,0.15522 0.35454,0.34572 l 0.0243,0.28187 c 0.024,0.28046 0.23178,0.50906 0.49283,0.54398 0.0275,0.004 0.054,0.006 0.0801,0.006 0.0127,0 0.0265,-3.5e-4 0.0388,-0.001 0.27622,-0.0219 0.49424,-0.2607 0.50553,-0.5581 l 0.006,-0.28081 c 0.002,-0.20249 0.13511,-0.36512 0.3048,-0.37853 0,0 0.2293,-0.009 0.25788,-0.0113 0.15204,-0.0116 0.28927,-0.0878 0.38347,-0.21131 0.0723,-0.09 0.11712,-0.19967 0.12876,-0.31538 0.004,-0.0423 0.005,-0.0843 0.002,-0.12171 0,-0.0173 -0.002,-0.1905 -0.002,-0.1905 0.002,-0.20214 0.13441,-0.36477 0.30656,-0.37818 l 0.26212,-0.0201 c 0.25223,-0.0205 0.45967,-0.21308 0.50482,-0.46708 0.001,-0.007 0.003,-0.0127 0.008,-0.127 l -3.5e-4,-0.2741 c -10e-4,-0.19827 0.13476,-0.35913 0.31785,-0.37324 l 0.0543,-0.004 0.0113,-3.5e-4 c 0.0166,0 0.0399,0.001 0.0646,0.001 0.0459,0.002 0.0942,0.003 0.11818,0.001 0.1912,-0.0152 0.35736,-0.13194 0.4445,-0.30974 0.0494,-0.0945 0.073,-0.20814 0.0691,-0.33725 -0.002,-0.0751 -0.006,-0.20603 -0.006,-0.20603 -0.002,-0.19826 0.13476,-0.35842 0.31679,-0.37324 0,0 0.35736,-0.0138 0.4572,-0.012" />
      <path
         inkscape:connector-curvature="0"
         id="path11690"
         style="fill:#e53b30;fill-opacity:1;fill-rule:nonzero;stroke:none;stroke-width:0.35277778"
         d="m 105.55184,136.29316 c 0.1778,-0.0148 0.31115,-0.17921 0.30939,-0.38347 0,0 -0.004,-0.18838 -0.006,-0.20743 -0.01,-0.12206 0.0138,-0.24271 0.0681,-0.34925 0.0861,-0.1838 0.25118,-0.30445 0.43992,-0.31962 0.009,-7e-4 0.0339,-0.003 0.19579,-0.003 h 0.0519 c 0.17603,-0.0166 0.30833,-0.18027 0.30656,-0.38277 l 10e-4,-0.28539 c 0.004,-0.31362 0.21908,-0.56762 0.5006,-0.59055 0.30233,-0.0254 0.57114,0.23107 0.59866,0.56233 0.004,0.0413 0.003,0.0832 -0.002,0.12417 -0.0258,0.28787 -0.23495,0.51329 -0.49954,0.53481 l -0.25682,0.0208 c -0.16863,0.0145 -0.29704,0.18168 -0.29986,0.38911 0,0 0.002,0.17604 0.003,0.19544 0.003,0.0395 0.002,0.0829 -0.003,0.12665 -0.0109,0.11747 -0.0547,0.2293 -0.12524,0.32138 -0.0942,0.12806 -0.22966,0.20602 -0.381,0.21837 -0.0282,0.003 -0.23001,0.0109 -0.25329,0.0123 -0.1651,0.013 -0.29387,0.17991 -0.29634,0.3877 l -0.005,0.29033 c -0.0131,0.3048 -0.22754,0.55034 -0.50059,0.57256 -0.0127,0.001 -0.0258,0.001 -0.0388,0.001 -0.0247,0 -0.0515,-0.002 -0.0787,-0.006 -0.25788,-0.0356 -0.46285,-0.27058 -0.48684,-0.55844 l -0.0233,-0.28963 c -0.0162,-0.1958 -0.16545,-0.3482 -0.34713,-0.3556 l -0.15311,-0.003 c -0.0198,0.001 -0.0519,0.001 -0.072,0.001 -0.0275,0 -0.048,-0.001 -0.0639,-0.004 -0.1083,-0.0155 -0.21096,-0.067 -0.29633,-0.14922 -0.1136,-0.10513 -0.18415,-0.254 -0.19756,-0.41734 -0.003,-0.0325 -0.0141,-0.25929 -0.0148,-0.2854 -0.0159,-0.19261 -0.17428,-0.36406 -0.35525,-0.37006 l -0.25929,-0.0127 c -0.27552,-0.0194 -0.50024,-0.26 -0.52494,-0.56056 -0.0134,-0.1704 0.0378,-0.33938 0.14253,-0.46355 0.0931,-0.11078 0.22048,-0.17851 0.35771,-0.1898 0.0145,-0.001 0.0282,-0.001 0.0423,-0.001 0.28645,0 0.53128,0.24765 0.55703,0.56409 3.6e-4,0.0102 0.0219,0.28328 0.0219,0.28328 0.0162,0.20708 0.17287,0.38347 0.35102,0.38524 3.5e-4,-3.6e-4 0.16545,-0.001 0.18344,-0.002 0.0116,-0.001 0.0251,-0.002 0.0392,-0.002 0.0988,0 0.1965,0.0293 0.28222,0.0857 0.16405,0.0974 0.27341,0.28011 0.29034,0.48719 0.004,0.0455 0.007,0.25647 0.008,0.28081 0.0159,0.20073 0.16263,0.35771 0.34184,0.35983 0,0 0.28505,-0.004 0.44803,-0.0127" />
      <path
         inkscape:connector-curvature="0"
         id="path11694"
         style="fill:#e53b30;fill-opacity:1;fill-rule:nonzero;stroke:none;stroke-width:0.35277778"
         d="m 102.20211,136.20804 c 0.17815,0.002 0.36936,0.21026 0.38594,0.41099 7e-4,0.024 0.004,0.23495 0.008,0.2801 0.0169,0.20638 0.127,0.38841 0.29245,0.48683 0.0857,0.0557 0.1838,0.085 0.28293,0.085 0.0145,0 0.0275,-7e-4 0.0388,-0.002 0.018,-3.5e-4 0.1852,-0.002 0.1852,-0.002 0.17816,0.002 0.32456,0.15875 0.34149,0.36477 0,0 0.0208,0.26493 0.0215,0.28363 0.0279,0.33126 0.29563,0.58738 0.60184,0.56233 0.30551,-0.025 0.53023,-0.31785 0.50271,-0.65229 -0.0243,-0.30021 -0.24941,-0.54045 -0.52634,-0.56021 l -0.26,-0.0127 c -0.18168,-0.006 -0.33161,-0.1591 -0.34749,-0.35136 -7e-4,-0.0261 -0.0116,-0.25189 -0.0141,-0.28399 -0.0138,-0.16298 -0.0847,-0.3115 -0.19826,-0.41698 -0.0854,-0.0825 -0.18874,-0.13406 -0.29739,-0.14923 -0.0406,-0.006 -0.085,-0.008 -0.11854,-0.005 h -0.0152 c -0.0455,0 -0.15558,-7.1e-4 -0.15734,-7.1e-4 -0.18204,-0.007 -0.37501,-0.21025 -0.39123,-0.4064 l -0.024,-0.28892 c -0.0233,-0.28787 -0.22966,-0.52317 -0.49001,-0.5588 -0.0258,-0.004 -0.0512,-0.005 -0.0766,-0.005 -0.0134,0 -0.0268,0 -0.0413,0.001 -0.27305,0.0226 -0.4893,0.26776 -0.50165,0.57185 l -0.006,0.28999 c -0.002,0.20743 -0.13123,0.37394 -0.29633,0.3877 -0.0226,7e-4 -0.22472,0.008 -0.25506,0.0109 -0.1524,0.0124 -0.28857,0.0914 -0.38311,0.22014 -0.0706,0.0924 -0.11395,0.20496 -0.12489,0.32349 -0.005,0.0399 -0.005,0.0819 -0.002,0.12524 0.0272,0.33126 0.29739,0.58667 0.60254,0.56198 0.19015,-0.0152 0.3556,-0.13582 0.44168,-0.31892 0.0543,-0.10653 0.0776,-0.22754 0.0681,-0.34819 -10e-4,-0.018 -0.005,-0.20814 -0.005,-0.20814 -0.002,-0.20355 0.13088,-0.36794 0.31009,-0.38241 0,0 0.26423,-0.0138 0.44909,-0.013" />
      <path
         inkscape:connector-curvature="0"
         id="path11698"
         style="fill:#e53b30;fill-opacity:1;fill-rule:nonzero;stroke:none;stroke-width:0.35277778"
         d="m 107.98474,139.39074 c 0.17815,0.002 0.32526,0.15946 0.34184,0.36019 7.1e-4,0.024 0.003,0.2353 0.007,0.28081 0.0169,0.20672 0.127,0.38982 0.29033,0.48718 0.0861,0.0557 0.1838,0.0854 0.28258,0.0854 0.0127,0 0.0272,-3.6e-4 0.0384,-0.001 0.0184,-0.001 0.1838,-0.002 0.1838,-0.002 0.1778,0.001 0.34713,0.17392 0.36406,0.381 0,0 0.0215,0.27305 0.0222,0.28363 0.0261,0.31645 0.27058,0.5641 0.55668,0.5641 0.0138,0 0.0279,-7.1e-4 0.042,-0.002 0.13794,-0.0116 0.26494,-0.0787 0.35843,-0.18944 0.10442,-0.12418 0.15628,-0.29316 0.14217,-0.46355 -0.0247,-0.30057 -0.24942,-0.54151 -0.52529,-0.56056 l -0.25859,-0.0127 c -0.18168,-0.006 -0.35277,-0.17392 -0.3683,-0.36689 -0.001,-0.0261 -0.0123,-0.25259 -0.0148,-0.2854 -0.0138,-0.16298 -0.0843,-0.31221 -0.19791,-0.41698 -0.0854,-0.0825 -0.18803,-0.13371 -0.29598,-0.14923 -0.0155,-0.002 -0.037,-0.004 -0.0639,-0.004 -0.0201,0 -0.0533,0.001 -0.0727,0.002 l -0.1524,-0.005 c -0.18203,-0.007 -0.33126,-0.15945 -0.34713,-0.35489 l -0.0233,-0.28963 c -0.0236,-0.28822 -0.22931,-0.52317 -0.48719,-0.5588 -0.0272,-0.005 -0.0533,-0.006 -0.0783,-0.006 -0.0134,0 -0.0265,3.5e-4 -0.0395,0.001 -0.27305,0.0226 -0.48754,0.26776 -0.49988,0.57256 l -0.006,0.29033 c -0.002,0.20779 -0.13088,0.37465 -0.29633,0.38806 -0.0226,0.001 -0.22472,0.01 -0.2533,0.0123 -0.15134,0.0117 -0.2868,0.09 -0.381,0.21802 -0.0702,0.0921 -0.11359,0.20355 -0.12523,0.32138 -0.005,0.0438 -0.006,0.0871 -0.002,0.127 7.1e-4,0.019 0.002,0.19544 0.002,0.19544 -0.002,0.20743 -0.13089,0.3743 -0.29951,0.38841 l -0.25718,0.0212 c -0.26388,0.0215 -0.47378,0.24729 -0.49918,0.53516 -0.005,0.0409 -0.005,0.0826 -0.002,0.12382 0.0272,0.33162 0.29633,0.58738 0.59866,0.56233 0.28152,-0.0229 0.49707,-0.27622 0.50059,-0.59019 l 0.002,-0.28505 c -0.002,-0.20285 0.12982,-0.36724 0.30656,-0.38347 h 0.0515 c 0.16192,0 0.18767,-0.002 0.19579,-0.002 0.18909,-0.0155 0.35454,-0.13617 0.43991,-0.31961 0.0543,-0.10654 0.0776,-0.22755 0.0681,-0.34961 -0.002,-0.019 -0.005,-0.20743 -0.005,-0.20743 -0.002,-0.20355 0.13088,-0.36865 0.30903,-0.38312 0,0 0.14464,-0.0155 0.44838,-0.013" />
      <path
         inkscape:connector-curvature="0"
         id="path11702"
         style="fill:#e53b30;fill-opacity:1;fill-rule:nonzero;stroke:none;stroke-width:0.35277778"
         d="m 111.31407,139.48985 c 0.17815,-0.0141 0.31009,-0.1778 0.30727,-0.38029 0,0 -0.004,-0.18909 -0.005,-0.20708 -0.01,-0.1203 0.0138,-0.2406 0.0681,-0.34679 0.0854,-0.18238 0.24906,-0.30197 0.4371,-0.3175 0.30162,-0.0243 0.56938,0.22966 0.59584,0.55986 0.004,0.0427 0.002,0.0843 -0.002,0.12453 -0.0109,0.11783 -0.054,0.23001 -0.12417,0.32174 -0.0935,0.12841 -0.2286,0.20637 -0.37854,0.21907 -0.0303,0.002 -0.23036,0.0102 -0.25329,0.0109 -0.16369,0.0134 -0.29104,0.17921 -0.29316,0.38558 l -0.006,0.28858 c -0.012,0.30303 -0.22577,0.5468 -0.49671,0.56867 -0.0134,0.001 -0.0268,0.002 -0.0406,0.002 -0.0243,0 -0.0501,-0.002 -0.0758,-0.005 -0.25682,-0.0353 -0.46179,-0.26953 -0.48578,-0.55598 l -0.0233,-0.28752 c -0.0159,-0.19508 -0.20779,-0.39758 -0.38665,-0.40428 -0.002,0 -0.11112,-7e-4 -0.15628,-7e-4 h -0.0152 c -0.0332,0.003 -0.0769,7e-4 -0.11676,-0.005 -0.1076,-0.0155 -0.21026,-0.0667 -0.29457,-0.14888 -0.11289,-0.10512 -0.1831,-0.25258 -0.1965,-0.41451 -0.002,-0.0317 -0.0134,-0.25717 -0.0145,-0.28293 -0.0152,-0.19191 -0.16333,-0.3436 -0.3436,-0.34995 l -0.25753,-0.012 c -0.27411,-0.0197 -0.49706,-0.25964 -0.52035,-0.55774 -0.0275,-0.33302 0.1958,-0.62406 0.49707,-0.64876 0.30339,-0.025 0.56832,0.22931 0.59549,0.55916 7e-4,0.0183 0.0212,0.28187 0.0212,0.28187 0.0173,0.20531 0.16299,0.36159 0.33867,0.363 0,0 0.16545,-7e-4 0.18344,-0.001 0.0109,-0.001 0.0247,-0.002 0.0381,-0.002 0.0981,0 0.19509,0.0296 0.28082,0.0847 0.16263,0.0981 0.27199,0.2794 0.28857,0.48472 0.004,0.0448 0.008,0.2547 0.008,0.27869 0.0169,0.19968 0.20637,0.40676 0.38206,0.40887 0,0 0.32349,-0.006 0.44485,-0.0131" />
      <path
         inkscape:connector-curvature="0"
         id="path11706"
         style="fill:#e53b30;fill-opacity:1;fill-rule:nonzero;stroke:none;stroke-width:0.35277778"
         d="m 99.13892,138.37532 c 0.02716,0.32173 0.297039,0.56974 0.6096,0.54575 0.150636,-0.012 0.28681,-0.0854 0.38347,-0.20744 0.0931,-0.11888 0.13794,-0.26987 0.12488,-0.42545 -0.0265,-0.30727 -0.275517,-0.54751 -0.566911,-0.54751 -0.01482,0 -0.02893,3.6e-4 -0.04233,0.002 -0.307975,0.024 -0.536223,0.30797 -0.508706,0.63288" />
      <path
         inkscape:connector-curvature="0"
         id="path11710"
         style="fill:#e53b30;fill-opacity:1;fill-rule:nonzero;stroke:none;stroke-width:0.35277778"
         d="m 112.82897,137.43748 c 0.0272,0.32173 0.29669,0.56974 0.60889,0.54575 0.15099,-0.0116 0.28717,-0.0857 0.38347,-0.20744 0.0938,-0.11888 0.13794,-0.27022 0.12489,-0.4258 -0.0254,-0.30692 -0.27482,-0.54716 -0.56692,-0.54716 -0.0138,0 -0.0279,3.6e-4 -0.042,0.002 -0.30833,0.024 -0.53587,0.30797 -0.50835,0.63288" />
      <path
         inkscape:connector-curvature="0"
         id="path11714"
         style="fill:#666666;fill-opacity:1;fill-rule:nonzero;stroke:none;stroke-width:0.35277778"
         d="m 109.57758,149.46464 c 0,0.20496 -0.16087,0.36583 -0.37042,0.36583 -0.20743,0 -0.37253,-0.16087 -0.37253,-0.36583 0,-0.20073 0.1651,-0.3616 0.37253,-0.3616 0.20955,0 0.37042,0.16087 0.37042,0.3616 m -0.65052,0 c 0,0.16087 0.11888,0.28892 0.28222,0.28892 0.15875,0 0.27587,-0.12805 0.27587,-0.2868 0,-0.16087 -0.11712,-0.29104 -0.27799,-0.29104 -0.16122,0 -0.2801,0.13017 -0.2801,0.28892 m 0.2226,0.18979 h -0.0836 v -0.36195 c 0.0332,-0.006 0.0794,-0.0109 0.139,-0.0109 0.0681,0 0.0991,0.0109 0.12559,0.0265 0.0198,0.0155 0.0353,0.0441 0.0353,0.0794 0,0.0399 -0.031,0.0706 -0.0751,0.084 v 0.004 c 0.0353,0.0134 0.0554,0.0399 0.0663,0.0882 0.0109,0.055 0.0176,0.0773 0.0265,0.0907 h -0.0907 c -0.0106,-0.0134 -0.0173,-0.0466 -0.0286,-0.0885 -0.006,-0.0395 -0.0286,-0.0572 -0.0748,-0.0572 h -0.0399 z m 0.002,-0.20531 h 0.0399 c 0.0462,0 0.084,-0.0155 0.084,-0.0529 0,-0.0332 -0.0243,-0.055 -0.0773,-0.055 -0.0222,0 -0.0374,0.002 -0.0466,0.004 z" />
    </g>
  </g>
</svg>
