<?xml version="1.0" encoding="UTF-8" standalone="no"?>
<!-- Created with Inkscape (http://www.inkscape.org/) -->
<svg
   xmlns:dc="http://purl.org/dc/elements/1.1/"
   xmlns:cc="http://web.resource.org/cc/"
   xmlns:rdf="http://www.w3.org/1999/02/22-rdf-syntax-ns#"
   xmlns:svg="http://www.w3.org/2000/svg"
   xmlns="http://www.w3.org/2000/svg"
   xmlns:sodipodi="http://sodipodi.sourceforge.net/DTD/sodipodi-0.dtd"
   xmlns:inkscape="http://www.inkscape.org/namespaces/inkscape"
   width="744.0946"
   height="432.97275"
   id="svg1918"
   sodipodi:version="0.32"
   inkscape:version="0.44"
   version="1.0"
   sodipodi:docbase="C:\Dokumente und Einstellungen\Andreas\Eigene Dateien\Eigene Bilder\sonstiges\Logos\Vektor\Computer, Electronics"
   sodipodi:docname="ST.svg">
  <defs
     id="defs1920" />
  <sodipodi:namedview
     id="base"
     pagecolor="#ffffff"
     bordercolor="#666666"
     borderopacity="1.0"
     inkscape:pageopacity="0.0"
     inkscape:pageshadow="2"
     inkscape:zoom="0.35"
     inkscape:cx="350"
     inkscape:cy="520"
     inkscape:document-units="px"
     inkscape:current-layer="layer1"
     inkscape:window-width="904"
     inkscape:window-height="574"
     inkscape:window-x="23"
     inkscape:window-y="23" />
  <metadata
     id="metadata1923">
    <rdf:RDF>
      <cc:Work
         rdf:about="">
        <dc:format>image/svg+xml</dc:format>
        <dc:type
           rdf:resource="http://purl.org/dc/dcmitype/StillImage" />
      </cc:Work>
    </rdf:RDF>
  </metadata>
  <g
     inkscape:label="Ebene 1"
     inkscape:groupmode="layer"
     id="layer1"
     transform="translate(-33.66698,-298.7329)">
    <g
       id="g1988">
      <path
         style="fill:white;fill-rule:evenodd;stroke:none"
         d="M 222.69051,298.73295 L 777.76158,298.73295 L 586.88245,731.7057 L 33.666984,731.45829 L 222.69051,298.73295"
         class="ps00"
         id="path8" />
      <path
         d="M 590.09882,445.44886 L 697.59977,445.44886 L 576.11999,718.84022 L 469.23757,718.84022 L 590.09882,445.44886 M 730.01087,371.47237 L 289.12091,371.47237 L 284.17265,371.9672 L 278.97697,372.70944 L 273.65759,373.69909 L 271.05976,373.9465 L 268.21451,375.05986 L 264.00849,376.29692 L 259.43135,377.6577 L 257.08092,379.14217 L 253.98826,380.50295 L 249.90594,382.23484 L 246.31846,384.58526 L 239.26719,388.42016 L 232.83445,393.12101 L 229.74179,395.59514 L 226.40171,398.6878 L 223.80387,401.78046 L 221.08233,404.62571 L 217.98967,408.83173 L 215.14442,413.16146 L 213.28882,415.51189 L 212.05176,418.10972 L 209.20651,422.93428 L 206.85608,427.63512 L 205.00049,431.96485 L 203.26859,437.40794 L 201.413,444.58291 L 200.17593,450.76824 L 199.06257,457.20098 L 199.06257,471.42722 L 200.17593,477.36514 L 201.413,483.55046 L 203.26859,489.9832 L 204.50566,494.31293 L 206.11384,498.51895 L 207.35091,502.10644 L 209.70133,506.18875 L 212.05176,510.02365 L 214.27847,513.73485 L 216.38148,517.32233 L 219.22673,521.40465 L 222.81422,525.23955 L 226.40171,529.44557 L 228.50472,531.17746 L 229.74179,532.53823 L 230.60773,533.52789 L 231.10256,534.02271 L 314.35703,612.08151 L 315.5941,613.44229 L 317.20228,615.17418 L 318.93417,619.13278 L 319.67641,621.97803 L 320.29494,623.70992 L 320.78977,626.06035 L 320.29494,628.16336 L 319.67641,631.00861 L 318.93417,632.98791 L 317.44969,635.33834 L 315.5941,638.18359 L 314.85186,639.42065 L 312.99626,640.2866 L 311.51178,641.77107 L 310.15101,642.01849 L 307.92429,643.62667 L 305.57387,644.36891 L 303.22345,644.86374 L 86.984484,644.86374 L 233.94781,311.59843 L 756.36036,311.59843 L 730.01087,371.47237 M 510.43183,445.44886 L 389.818,718.84022 L 335.51084,718.84022 L 333.90266,718.3454 L 332.66559,718.09798 L 331.55223,716.4898 L 332.04706,715.25273 L 333.16042,713.89196 L 334.39748,712.90231 L 334.89231,712.6549 L 340.83022,710.30447 L 345.77848,707.70664 L 350.97416,704.36656 L 356.29353,700.53166 L 362.23145,695.95452 L 367.42712,691.50109 L 372.00426,686.92395 L 376.45769,681.23345 L 381.03483,674.80071 L 384.62232,669.11021 L 387.46757,662.67747 L 388.82834,659.58481 L 390.31282,655.74991 L 392.41583,649.19346 L 393.90031,643.87408 L 394.76626,638.18359 L 395.26108,631.25602 L 395.75591,624.20475 L 395.26108,617.77201 L 394.27143,611.58669 L 392.91066,604.41171 L 392.16842,600.82422 L 391.17877,597.23673 L 388.82834,591.05141 L 386.23051,584.61867 L 382.39561,577.81481 L 378.80812,572.49543 L 374.6021,567.05235 L 372.87021,564.94934 L 371.50943,563.21745 L 370.51978,561.85667 L 370.02496,561.36185 L 281.07998,477.85996 L 279.4718,476.00436 L 277.73991,473.77765 L 275.88431,470.68498 L 275.38948,467.0975 L 275.14207,465.2419 L 275.38948,463.3863 L 275.38948,461.15958 L 275.88431,459.30399 L 277.24508,456.21132 L 278.97697,452.62384 L 281.82222,450.026 L 285.1623,447.67558 L 288.74979,446.43851 L 290.60538,445.94368 L 292.46098,445.94368 L 294.19287,445.44886 L 510.43183,445.44886"
         style="fill:#0a7efc;fill-opacity:1;fill-rule:evenodd;stroke:none"
         id="path16" />
    </g>
  </g>
</svg>
