<?xml version="1.0" encoding="UTF-8" standalone="no"?>
<!-- Creator: CorelDRAW X5 -->

<svg
   xmlns:dc="http://purl.org/dc/elements/1.1/"
   xmlns:cc="http://creativecommons.org/ns#"
   xmlns:rdf="http://www.w3.org/1999/02/22-rdf-syntax-ns#"
   xmlns:svg="http://www.w3.org/2000/svg"
   xmlns="http://www.w3.org/2000/svg"
   xmlns:sodipodi="http://sodipodi.sourceforge.net/DTD/sodipodi-0.dtd"
   xmlns:inkscape="http://www.inkscape.org/namespaces/inkscape"
   xml:space="preserve"
   width="808.08826"
   height="393.25754"
   style="clip-rule:evenodd;fill-rule:evenodd;image-rendering:optimizeQuality;shape-rendering:geometricPrecision;text-rendering:geometricPrecision"
   viewBox="0 0 80808.826 39332"
   version="1.1"
   id="svg40"
   sodipodi:docname="tano-lowercase.svg"
   inkscape:version="0.92.3 (2405546, 2018-03-11)"><metadata
   id="metadata44"><rdf:RDF><cc:Work
       rdf:about=""><dc:format>image/svg+xml</dc:format><dc:type
         rdf:resource="http://purl.org/dc/dcmitype/StillImage" /><dc:title></dc:title></cc:Work></rdf:RDF></metadata><sodipodi:namedview
   pagecolor="#ffffff"
   bordercolor="#666666"
   borderopacity="1"
   objecttolerance="10"
   gridtolerance="10"
   guidetolerance="10"
   inkscape:pageopacity="0"
   inkscape:pageshadow="2"
   inkscape:window-width="2560"
   inkscape:window-height="1387"
   id="namedview42"
   showgrid="false"
   fit-margin-top="0"
   fit-margin-left="0"
   fit-margin-right="0"
   fit-margin-bottom="0"
   inkscape:zoom="0.32596685"
   inkscape:cx="488.94276"
   inkscape:cy="85.737237"
   inkscape:window-x="-8"
   inkscape:window-y="266"
   inkscape:window-maximized="1"
   inkscape:current-layer="Слой_x0020_1" />
 <defs
   id="defs4">
  <style
   type="text/css"
   id="style2">
   <![CDATA[
    .fil0 {fill:#008DD2}
    .fil1 {fill:#333333;fill-rule:nonzero}
   ]]>
  </style>
 </defs>
 <g
   id="Слой_x0020_1"
   transform="translate(-7341.4718,-39300)">
  <metadata
   id="CorelCorpID_0Corel-Layer" />
  <path
   class="fil0"
   d="m 23312,39300 c 15731,7392 20023,20820 4170,23549 20427,168 18195,-13469 -4170,-23549 z"
   id="path7"
   inkscape:connector-curvature="0"
   style="fill:#008dd2" />
  <path
   class="fil0"
   d="m 29983,39300 c 15731,7392 20023,20820 4170,23549 20427,168 18195,-13469 -4170,-23549 z"
   id="path9"
   inkscape:connector-curvature="0"
   style="fill:#008dd2" />
  <path
   class="fil0"
   d="M 39128,78632 C 23397,71240 19105,57812 34958,55083 14531,54915 16763,68552 39128,78632 Z"
   id="path11"
   inkscape:connector-curvature="0"
   style="fill:#008dd2" />
  <path
   class="fil1"
   d="m 83719,63062 c -1116,0 -1994,-158 -2632,-475 -639,-316 -1099,-817 -1381,-1502 -282,-685 -423,-1614 -423,-2788 0,-1254 141,-2224 423,-2908 282,-685 739,-1168 1372,-1450 633,-282 1513,-423 2641,-423 1128,0 2008,147 2641,440 633,293 1090,785 1372,1476 282,690 423,1646 423,2865 0,1220 -135,2169 -406,2848 -270,679 -722,1168 -1355,1467 -633,299 -1525,449 -2675,449 z m 0,-2658 c 311,0 538,-43 682,-129 144,-86 247,-276 311,-570 63,-293 95,-768 95,-1424 0,-644 -32,-1113 -95,-1407 -63,-293 -167,-483 -311,-570 -144,-86 -371,-129 -682,-129 -311,0 -538,43 -682,129 -144,86 -247,276 -311,570 -63,293 -95,762 -95,1407 0,656 32,1131 95,1424 63,293 167,483 311,570 144,86 371,129 682,129 z"
   id="path13"
   inkscape:connector-curvature="0"
   style="fill:#333333;fill-rule:nonzero" />
  <path
   class="fil0"
   d="M 32341,78632 C 16610,71240 12318,57812 28171,55083 7744,54915 9976,68552 32341,78632 Z"
   id="path15"
   inkscape:connector-curvature="0"
   style="fill:#008dd2" />
  <path
   class="fil1"
   d="m 61694,63079 c -725,0 -1306,-213 -1743,-639 -437,-426 -656,-1001 -656,-1726 v -949 c 0,-725 265,-1309 794,-1752 529,-443 1323,-665 2382,-665 h 1864 v -293 c 0,-253 -40,-440 -121,-561 -81,-121 -245,-207 -492,-259 -247,-52 -636,-78 -1165,-78 h -2710 v -1916 c 541,-207 1128,-371 1761,-492 633,-121 1369,-181 2209,-181 1277,0 2241,233 2891,699 650,466 975,1315 975,2546 v 6162 h -2658 l -518,-932 c -276,276 -650,518 -1122,725 -472,207 -1036,311 -1692,311 z m 1761,-2278 c 138,0 296,-26 475,-78 178,-52 314,-101 406,-147 v -1674 l -708,104 c -334,46 -581,132 -742,259 -161,127 -242,311 -242,552 v 345 c 0,230 69,394 207,492 138,98 339,147 604,147 z"
   id="path17"
   inkscape:connector-curvature="0"
   style="fill:#333333;fill-rule:nonzero" />
  <path
   class="fil0"
   d="M 25555,78632 C 9824,71240 5532,57812 21385,55083 958,54915 3190,68552 25555,78632 Z"
   id="path19"
   inkscape:connector-curvature="0"
   style="fill:#008dd2" />
  <path
   class="fil1"
   d="m 69168,53672 h 2796 l 552,898 c 311,-288 711,-535 1200,-742 489,-207 964,-311 1424,-311 1116,0 1879,299 2287,898 408,598 613,1450 613,2555 v 6007 h -3349 v -5558 c 0,-334 -81,-567 -242,-699 -161,-132 -386,-199 -673,-199 -230,0 -460,52 -690,155 -230,104 -420,230 -570,380 v 5920 h -3349 v -9304 z"
   id="path21"
   inkscape:connector-curvature="0"
   style="fill:#333333;fill-rule:nonzero" />
  <path
   class="fil1"
   d="m 56499,62976 c -817,0 -1459,-109 -1925,-328 -466,-219 -803,-581 -1010,-1087 -207,-506 -293,-1203 -259,-2089 l 104,-3141 h -1433 v -2140 l 1571,-518 414,-2606 h 2658 v 2606 h 1881 v 2658 h -1881 v 3124 c 0,299 49,521 147,665 98,144 256,227 475,250 l 1191,121 v 2486 h -1933 z"
   id="path23"
   inkscape:connector-curvature="0"
   style="fill:#333333;fill-rule:nonzero" />
  <path
   class="fil1"
   d="m 60305,72191 c -694,0 -1237,-85 -1631,-255 -394,-170 -681,-468 -862,-894 -181,-426 -271,-1030 -271,-1810 0,-809 81,-1430 244,-1864 163,-433 433,-737 813,-910 379,-173 916,-260 1609,-260 643,0 1140,60 1490,179 350,119 603,325 759,618 155,293 233,717 233,1273 0,607 -173,1037 -520,1290 -347,253 -849,379 -1506,379 h -1040 c 22,188 67,331 135,428 69,98 188,168 358,211 170,43 424,65 764,65 h 1593 v 1225 c -332,101 -666,181 -1002,238 -336,58 -724,87 -1165,87 z m 130,-3479 c 144,0 249,-33 314,-98 65,-65 98,-177 98,-336 0,-209 -51,-359 -152,-450 -101,-90 -264,-135 -488,-135 -217,0 -372,72 -466,217 -94,144 -141,412 -141,802 h 834 z"
   id="path25"
   inkscape:connector-curvature="0"
   style="fill:#333333;fill-rule:nonzero" />
  <path
   class="fil1"
   d="m 75661,72201 c -448,0 -872,-27 -1273,-81 -401,-54 -731,-139 -992,-255 v -1225 h 2709 c 130,0 217,-16 260,-49 43,-32 65,-89 65,-168 v -141 c 0,-79 -27,-137 -81,-173 -54,-36 -161,-54 -320,-54 h -975 c -535,0 -966,-134 -1295,-401 -329,-267 -493,-694 -493,-1279 v -358 c 0,-397 74,-724 222,-981 148,-256 408,-453 780,-591 372,-137 883,-206 1533,-206 376,0 771,34 1187,103 415,69 728,146 937,233 v 1225 h -2568 c -108,0 -188,16 -238,49 -51,33 -76,89 -76,168 v 141 c 0,87 31,146 92,179 61,33 175,49 341,49 h 1008 c 607,0 1046,137 1317,412 271,275 406,672 406,1192 v 596 c 0,578 -206,992 -618,1241 -412,249 -1055,374 -1929,374 z"
   id="path27"
   inkscape:connector-curvature="0"
   style="fill:#333333;fill-rule:nonzero" />
  <path
   class="fil1"
   d="m 63491,66295 h 1756 l 347,564 c 289,-217 562,-381 818,-493 256,-112 583,-168 981,-168 347,0 639,70 878,211 238,141 423,334 553,580 694,-527 1308,-791 1842,-791 708,0 1196,184 1463,553 267,368 401,936 401,1701 v 3685 h -2102 v -3489 c 0,-210 -51,-356 -152,-439 -101,-83 -242,-125 -423,-125 -144,0 -289,33 -433,98 -145,65 -264,145 -358,238 v 271 3446 h -2102 v -3489 c 0,-210 -51,-356 -152,-439 -101,-83 -242,-125 -423,-125 -145,0 -289,33 -433,98 -144,65 -264,145 -358,238 v 3717 h -2102 v -5841 z"
   id="path29"
   inkscape:connector-curvature="0"
   style="fill:#333333;fill-rule:nonzero" />
  <path
   class="fil1"
   d="m 55742,72136 c -513,0 -916,-69 -1208,-206 -293,-137 -504,-365 -634,-683 -130,-318 -184,-755 -163,-1311 l 65,-1972 h -899 v -1344 l 986,-325 260,-1636 h 1669 v 1636 h 1181 v 1669 h -1181 v 1961 c 0,188 31,327 92,417 61,90 161,143 298,157 l 748,76 v 1561 z"
   id="path31"
   inkscape:connector-curvature="0"
   style="fill:#333333;fill-rule:nonzero" />
  <path
   class="fil1"
   d="m 50020,72201 c -448,0 -872,-27 -1273,-81 -401,-54 -731,-139 -992,-255 v -1225 h 2709 c 130,0 217,-16 260,-49 43,-32 65,-89 65,-168 v -141 c 0,-79 -27,-137 -81,-173 -54,-36 -161,-54 -320,-54 h -975 c -535,0 -966,-134 -1295,-401 -329,-267 -493,-694 -493,-1279 v -358 c 0,-397 74,-724 222,-981 148,-256 408,-453 780,-591 372,-137 883,-206 1533,-206 376,0 771,34 1187,103 415,69 728,146 937,233 v 1225 h -2568 c -108,0 -188,16 -238,49 -51,33 -76,89 -76,168 v 141 c 0,87 31,146 92,179 61,33 175,49 341,49 h 1008 c 607,0 1046,137 1317,412 271,275 406,672 406,1192 v 596 c 0,578 -206,992 -618,1241 -412,249 -1055,374 -1929,374 z"
   id="path33"
   inkscape:connector-curvature="0"
   style="fill:#333333;fill-rule:nonzero" />
  <path
   class="fil1"
   d="m 44017,72136 c -1127,0 -1810,-564 -2048,-1691 l -899,-4151 h 2178 l 661,3728 c 43,267 199,408 466,423 l 748,-4151 h 2135 l -1485,7337 -542,1073 h -1777 l 564,-2568 z"
   id="path35"
   inkscape:connector-curvature="0"
   style="fill:#333333;fill-rule:nonzero" />
  <path
   class="fil1"
   d="m 38154,72201 c -448,0 -872,-27 -1273,-81 -401,-54 -731,-139 -992,-255 v -1225 h 2709 c 130,0 217,-16 260,-49 43,-32 65,-89 65,-168 v -141 c 0,-79 -27,-137 -81,-173 -54,-36 -161,-54 -320,-54 h -975 c -535,0 -966,-134 -1295,-401 -329,-267 -493,-694 -493,-1279 v -358 c 0,-397 74,-724 222,-981 148,-256 408,-453 780,-591 372,-137 883,-206 1533,-206 376,0 771,34 1187,103 415,69 728,146 937,233 v 1225 h -2568 c -108,0 -188,16 -238,49 -51,33 -76,89 -76,168 v 141 c 0,87 31,146 92,179 61,33 175,49 341,49 h 1008 c 607,0 1046,137 1317,412 271,275 406,672 406,1192 v 596 c 0,578 -206,992 -618,1241 -412,249 -1055,374 -1929,374 z"
   id="path37"
   inkscape:connector-curvature="0"
   style="fill:#333333;fill-rule:nonzero" />
 </g>
</svg>